%TF.GenerationSoftware,KiCad,Pcbnew,(7.0.0)*%
%TF.CreationDate,2023-07-18T21:48:04-06:00*%
%TF.ProjectId,led-matrix-v4,6c65642d-6d61-4747-9269-782d76342e6b,0*%
%TF.SameCoordinates,Original*%
%TF.FileFunction,Copper,L1,Top*%
%TF.FilePolarity,Positive*%
%FSLAX46Y46*%
G04 Gerber Fmt 4.6, Leading zero omitted, Abs format (unit mm)*
G04 Created by KiCad (PCBNEW (7.0.0)) date 2023-07-18 21:48:04*
%MOMM*%
%LPD*%
G01*
G04 APERTURE LIST*
G04 Aperture macros list*
%AMRoundRect*
0 Rectangle with rounded corners*
0 $1 Rounding radius*
0 $2 $3 $4 $5 $6 $7 $8 $9 X,Y pos of 4 corners*
0 Add a 4 corners polygon primitive as box body*
4,1,4,$2,$3,$4,$5,$6,$7,$8,$9,$2,$3,0*
0 Add four circle primitives for the rounded corners*
1,1,$1+$1,$2,$3*
1,1,$1+$1,$4,$5*
1,1,$1+$1,$6,$7*
1,1,$1+$1,$8,$9*
0 Add four rect primitives between the rounded corners*
20,1,$1+$1,$2,$3,$4,$5,0*
20,1,$1+$1,$4,$5,$6,$7,0*
20,1,$1+$1,$6,$7,$8,$9,0*
20,1,$1+$1,$8,$9,$2,$3,0*%
G04 Aperture macros list end*
%TA.AperFunction,SMDPad,CuDef*%
%ADD10R,1.500000X0.900000*%
%TD*%
%TA.AperFunction,ComponentPad*%
%ADD11R,1.422400X1.422400*%
%TD*%
%TA.AperFunction,ComponentPad*%
%ADD12C,1.422400*%
%TD*%
%TA.AperFunction,SMDPad,CuDef*%
%ADD13RoundRect,0.250000X-0.262500X-0.450000X0.262500X-0.450000X0.262500X0.450000X-0.262500X0.450000X0*%
%TD*%
%TA.AperFunction,ComponentPad*%
%ADD14R,1.700000X1.700000*%
%TD*%
%TA.AperFunction,ComponentPad*%
%ADD15O,1.700000X1.700000*%
%TD*%
%TA.AperFunction,ComponentPad*%
%ADD16C,3.800000*%
%TD*%
%TA.AperFunction,SMDPad,CuDef*%
%ADD17R,1.981200X0.558800*%
%TD*%
%TA.AperFunction,ComponentPad*%
%ADD18C,3.126000*%
%TD*%
%TA.AperFunction,ViaPad*%
%ADD19C,0.800000*%
%TD*%
%TA.AperFunction,Conductor*%
%ADD20C,0.250000*%
%TD*%
G04 APERTURE END LIST*
D10*
%TO.P,D196,1,VDD*%
%TO.N,VDD*%
X220699999Y-150449999D03*
%TO.P,D196,2,DOUT*%
%TO.N,Net-(D196-DOUT)*%
X220699999Y-153749999D03*
%TO.P,D196,3,VSS*%
%TO.N,GND*%
X225599999Y-153749999D03*
%TO.P,D196,4,DIN*%
%TO.N,Net-(D195-DOUT)*%
X225599999Y-150449999D03*
%TD*%
%TO.P,D116,1,VDD*%
%TO.N,VDD*%
X119099999Y-226649999D03*
%TO.P,D116,2,DOUT*%
%TO.N,Net-(D116-DOUT)*%
X119099999Y-229949999D03*
%TO.P,D116,3,VSS*%
%TO.N,GND*%
X123999999Y-229949999D03*
%TO.P,D116,4,DIN*%
%TO.N,Net-(D115-DOUT)*%
X123999999Y-226649999D03*
%TD*%
%TO.P,D94,1,VDD*%
%TO.N,VDD*%
X106399999Y-188549999D03*
%TO.P,D94,2,DOUT*%
%TO.N,Net-(D94-DOUT)*%
X106399999Y-191849999D03*
%TO.P,D94,3,VSS*%
%TO.N,GND*%
X111299999Y-191849999D03*
%TO.P,D94,4,DIN*%
%TO.N,Net-(D93-DOUT)*%
X111299999Y-188549999D03*
%TD*%
%TO.P,D33,1,VDD*%
%TO.N,VDD*%
X80999999Y-99649999D03*
%TO.P,D33,2,DOUT*%
%TO.N,Net-(D33-DOUT)*%
X80999999Y-102949999D03*
%TO.P,D33,3,VSS*%
%TO.N,GND*%
X85899999Y-102949999D03*
%TO.P,D33,4,DIN*%
%TO.N,Net-(D32-DOUT)*%
X85899999Y-99649999D03*
%TD*%
%TO.P,D98,1,VDD*%
%TO.N,VDD*%
X93699999Y-201249999D03*
%TO.P,D98,2,DOUT*%
%TO.N,Net-(D98-DOUT)*%
X93699999Y-204549999D03*
%TO.P,D98,3,VSS*%
%TO.N,GND*%
X98599999Y-204549999D03*
%TO.P,D98,4,DIN*%
%TO.N,Net-(D97-DOUT)*%
X98599999Y-201249999D03*
%TD*%
%TO.P,D135,1,VDD*%
%TO.N,VDD*%
X258799999Y-48849999D03*
%TO.P,D135,2,DOUT*%
%TO.N,Net-(D135-DOUT)*%
X258799999Y-52149999D03*
%TO.P,D135,3,VSS*%
%TO.N,GND*%
X263699999Y-52149999D03*
%TO.P,D135,4,DIN*%
%TO.N,Net-(D134-DOUT)*%
X263699999Y-48849999D03*
%TD*%
%TO.P,D80,1,VDD*%
%TO.N,VDD*%
X80999999Y-163149999D03*
%TO.P,D80,2,DOUT*%
%TO.N,Net-(D80-DOUT)*%
X80999999Y-166449999D03*
%TO.P,D80,3,VSS*%
%TO.N,GND*%
X85899999Y-166449999D03*
%TO.P,D80,4,DIN*%
%TO.N,Net-(D79-DOUT)*%
X85899999Y-163149999D03*
%TD*%
%TO.P,D18,1,VDD*%
%TO.N,VDD*%
X93699999Y-74249999D03*
%TO.P,D18,2,DOUT*%
%TO.N,Net-(D18-DOUT)*%
X93699999Y-77549999D03*
%TO.P,D18,3,VSS*%
%TO.N,GND*%
X98599999Y-77549999D03*
%TO.P,D18,4,DIN*%
%TO.N,Net-(D17-DOUT)*%
X98599999Y-74249999D03*
%TD*%
%TO.P,D30,1,VDD*%
%TO.N,VDD*%
X106399999Y-86949999D03*
%TO.P,D30,2,DOUT*%
%TO.N,Net-(D30-DOUT)*%
X106399999Y-90249999D03*
%TO.P,D30,3,VSS*%
%TO.N,GND*%
X111299999Y-90249999D03*
%TO.P,D30,4,DIN*%
%TO.N,Net-(D29-DOUT)*%
X111299999Y-86949999D03*
%TD*%
%TO.P,D35,1,VDD*%
%TO.N,VDD*%
X106399999Y-99649999D03*
%TO.P,D35,2,DOUT*%
%TO.N,Net-(D35-DOUT)*%
X106399999Y-102949999D03*
%TO.P,D35,3,VSS*%
%TO.N,GND*%
X111299999Y-102949999D03*
%TO.P,D35,4,DIN*%
%TO.N,Net-(D34-DOUT)*%
X111299999Y-99649999D03*
%TD*%
%TO.P,D36,1,VDD*%
%TO.N,VDD*%
X119099999Y-99649999D03*
%TO.P,D36,2,DOUT*%
%TO.N,Net-(D36-DOUT)*%
X119099999Y-102949999D03*
%TO.P,D36,3,VSS*%
%TO.N,GND*%
X123999999Y-102949999D03*
%TO.P,D36,4,DIN*%
%TO.N,Net-(D35-DOUT)*%
X123999999Y-99649999D03*
%TD*%
%TO.P,D146,1,VDD*%
%TO.N,VDD*%
X195299999Y-74249999D03*
%TO.P,D146,2,DOUT*%
%TO.N,Net-(D146-DOUT)*%
X195299999Y-77549999D03*
%TO.P,D146,3,VSS*%
%TO.N,GND*%
X200199999Y-77549999D03*
%TO.P,D146,4,DIN*%
%TO.N,Net-(D145-DOUT)*%
X200199999Y-74249999D03*
%TD*%
%TO.P,D71,1,VDD*%
%TO.N,VDD*%
X157199999Y-150449999D03*
%TO.P,D71,2,DOUT*%
%TO.N,Net-(D71-DOUT)*%
X157199999Y-153749999D03*
%TO.P,D71,3,VSS*%
%TO.N,GND*%
X162099999Y-153749999D03*
%TO.P,D71,4,DIN*%
%TO.N,Net-(D70-DOUT)*%
X162099999Y-150449999D03*
%TD*%
%TO.P,D101,1,VDD*%
%TO.N,VDD*%
X131799999Y-201249999D03*
%TO.P,D101,2,DOUT*%
%TO.N,Net-(D101-DOUT)*%
X131799999Y-204549999D03*
%TO.P,D101,3,VSS*%
%TO.N,GND*%
X136699999Y-204549999D03*
%TO.P,D101,4,DIN*%
%TO.N,Net-(D100-DOUT)*%
X136699999Y-201249999D03*
%TD*%
%TO.P,D256,1,VDD*%
%TO.N,VDD*%
X182599999Y-239349999D03*
%TO.P,D256,2,DOUT*%
%TO.N,unconnected-(D256-DOUT-Pad2)*%
X182599999Y-242649999D03*
%TO.P,D256,3,VSS*%
%TO.N,GND*%
X187499999Y-242649999D03*
%TO.P,D256,4,DIN*%
%TO.N,Net-(D255-DOUT)*%
X187499999Y-239349999D03*
%TD*%
%TO.P,D244,1,VDD*%
%TO.N,VDD*%
X220699999Y-226649999D03*
%TO.P,D244,2,DOUT*%
%TO.N,Net-(D244-DOUT)*%
X220699999Y-229949999D03*
%TO.P,D244,3,VSS*%
%TO.N,GND*%
X225599999Y-229949999D03*
%TO.P,D244,4,DIN*%
%TO.N,Net-(D243-DOUT)*%
X225599999Y-226649999D03*
%TD*%
D11*
%TO.P,PS1,1,REMOTE_ON/OFF_CTRL*%
%TO.N,unconnected-(PS1-REMOTE_ON{slash}OFF_CTRL-Pad1)*%
X60999999Y-115524999D03*
D12*
%TO.P,PS1,2,+VIN*%
%TO.N,Net-(PS1-+VIN)*%
X62700000Y-115525000D03*
%TO.P,PS1,3,GND*%
%TO.N,GND*%
X64400000Y-115525000D03*
%TO.P,PS1,4,+VOUT*%
%TO.N,VDD*%
X66100000Y-115525000D03*
%TO.P,PS1,5,OUTPUT_TRIM*%
%TO.N,Net-(PS1-OUTPUT_TRIM)*%
X67800000Y-115525000D03*
%TD*%
D10*
%TO.P,D56,1,VDD*%
%TO.N,VDD*%
X169899999Y-125049999D03*
%TO.P,D56,2,DOUT*%
%TO.N,Net-(D56-DOUT)*%
X169899999Y-128349999D03*
%TO.P,D56,3,VSS*%
%TO.N,GND*%
X174799999Y-128349999D03*
%TO.P,D56,4,DIN*%
%TO.N,Net-(D55-DOUT)*%
X174799999Y-125049999D03*
%TD*%
%TO.P,D208,1,VDD*%
%TO.N,VDD*%
X182599999Y-163149999D03*
%TO.P,D208,2,DOUT*%
%TO.N,Net-(D208-DOUT)*%
X182599999Y-166449999D03*
%TO.P,D208,3,VSS*%
%TO.N,GND*%
X187499999Y-166449999D03*
%TO.P,D208,4,DIN*%
%TO.N,Net-(D207-DOUT)*%
X187499999Y-163149999D03*
%TD*%
%TO.P,D239,1,VDD*%
%TO.N,VDD*%
X195299999Y-213949999D03*
%TO.P,D239,2,DOUT*%
%TO.N,Net-(D239-DOUT)*%
X195299999Y-217249999D03*
%TO.P,D239,3,VSS*%
%TO.N,GND*%
X200199999Y-217249999D03*
%TO.P,D239,4,DIN*%
%TO.N,Net-(D238-DOUT)*%
X200199999Y-213949999D03*
%TD*%
%TO.P,D227,1,VDD*%
%TO.N,VDD*%
X207999999Y-201249999D03*
%TO.P,D227,2,DOUT*%
%TO.N,Net-(D227-DOUT)*%
X207999999Y-204549999D03*
%TO.P,D227,3,VSS*%
%TO.N,GND*%
X212899999Y-204549999D03*
%TO.P,D227,4,DIN*%
%TO.N,Net-(D226-DOUT)*%
X212899999Y-201249999D03*
%TD*%
D13*
%TO.P,R1,1*%
%TO.N,GND*%
X63487500Y-122125000D03*
%TO.P,R1,2*%
%TO.N,Net-(PS1-OUTPUT_TRIM)*%
X65312500Y-122125000D03*
%TD*%
D10*
%TO.P,D138,1,VDD*%
%TO.N,VDD*%
X258799999Y-61549999D03*
%TO.P,D138,2,DOUT*%
%TO.N,Net-(D138-DOUT)*%
X258799999Y-64849999D03*
%TO.P,D138,3,VSS*%
%TO.N,GND*%
X263699999Y-64849999D03*
%TO.P,D138,4,DIN*%
%TO.N,Net-(D137-DOUT)*%
X263699999Y-61549999D03*
%TD*%
%TO.P,D82,1,VDD*%
%TO.N,VDD*%
X93699999Y-175849999D03*
%TO.P,D82,2,DOUT*%
%TO.N,Net-(D82-DOUT)*%
X93699999Y-179149999D03*
%TO.P,D82,3,VSS*%
%TO.N,GND*%
X98599999Y-179149999D03*
%TO.P,D82,4,DIN*%
%TO.N,Net-(D81-DOUT)*%
X98599999Y-175849999D03*
%TD*%
%TO.P,D172,1,VDD*%
%TO.N,VDD*%
X233399999Y-112349999D03*
%TO.P,D172,2,DOUT*%
%TO.N,Net-(D172-DOUT)*%
X233399999Y-115649999D03*
%TO.P,D172,3,VSS*%
%TO.N,GND*%
X238299999Y-115649999D03*
%TO.P,D172,4,DIN*%
%TO.N,Net-(D171-DOUT)*%
X238299999Y-112349999D03*
%TD*%
%TO.P,D207,1,VDD*%
%TO.N,VDD*%
X195299999Y-163149999D03*
%TO.P,D207,2,DOUT*%
%TO.N,Net-(D207-DOUT)*%
X195299999Y-166449999D03*
%TO.P,D207,3,VSS*%
%TO.N,GND*%
X200199999Y-166449999D03*
%TO.P,D207,4,DIN*%
%TO.N,Net-(D206-DOUT)*%
X200199999Y-163149999D03*
%TD*%
%TO.P,D235,1,VDD*%
%TO.N,VDD*%
X246099999Y-213949999D03*
%TO.P,D235,2,DOUT*%
%TO.N,Net-(D235-DOUT)*%
X246099999Y-217249999D03*
%TO.P,D235,3,VSS*%
%TO.N,GND*%
X250999999Y-217249999D03*
%TO.P,D235,4,DIN*%
%TO.N,Net-(D234-DOUT)*%
X250999999Y-213949999D03*
%TD*%
%TO.P,D174,1,VDD*%
%TO.N,VDD*%
X207999999Y-112349999D03*
%TO.P,D174,2,DOUT*%
%TO.N,Net-(D174-DOUT)*%
X207999999Y-115649999D03*
%TO.P,D174,3,VSS*%
%TO.N,GND*%
X212899999Y-115649999D03*
%TO.P,D174,4,DIN*%
%TO.N,Net-(D173-DOUT)*%
X212899999Y-112349999D03*
%TD*%
%TO.P,D151,1,VDD*%
%TO.N,VDD*%
X258799999Y-74249999D03*
%TO.P,D151,2,DOUT*%
%TO.N,Net-(D151-DOUT)*%
X258799999Y-77549999D03*
%TO.P,D151,3,VSS*%
%TO.N,GND*%
X263699999Y-77549999D03*
%TO.P,D151,4,DIN*%
%TO.N,Net-(D150-DOUT)*%
X263699999Y-74249999D03*
%TD*%
%TO.P,D199,1,VDD*%
%TO.N,VDD*%
X258799999Y-150449999D03*
%TO.P,D199,2,DOUT*%
%TO.N,Net-(D199-DOUT)*%
X258799999Y-153749999D03*
%TO.P,D199,3,VSS*%
%TO.N,GND*%
X263699999Y-153749999D03*
%TO.P,D199,4,DIN*%
%TO.N,Net-(D198-DOUT)*%
X263699999Y-150449999D03*
%TD*%
%TO.P,D25,1,VDD*%
%TO.N,VDD*%
X169899999Y-86949999D03*
%TO.P,D25,2,DOUT*%
%TO.N,Net-(D25-DOUT)*%
X169899999Y-90249999D03*
%TO.P,D25,3,VSS*%
%TO.N,GND*%
X174799999Y-90249999D03*
%TO.P,D25,4,DIN*%
%TO.N,Net-(D24-DOUT)*%
X174799999Y-86949999D03*
%TD*%
%TO.P,D216,1,VDD*%
%TO.N,VDD*%
X271499999Y-175849999D03*
%TO.P,D216,2,DOUT*%
%TO.N,Net-(D216-DOUT)*%
X271499999Y-179149999D03*
%TO.P,D216,3,VSS*%
%TO.N,GND*%
X276399999Y-179149999D03*
%TO.P,D216,4,DIN*%
%TO.N,Net-(D215-DOUT)*%
X276399999Y-175849999D03*
%TD*%
%TO.P,D96,1,VDD*%
%TO.N,VDD*%
X80999999Y-188549999D03*
%TO.P,D96,2,DOUT*%
%TO.N,Net-(D96-DOUT)*%
X80999999Y-191849999D03*
%TO.P,D96,3,VSS*%
%TO.N,GND*%
X85899999Y-191849999D03*
%TO.P,D96,4,DIN*%
%TO.N,Net-(D95-DOUT)*%
X85899999Y-188549999D03*
%TD*%
%TO.P,D220,1,VDD*%
%TO.N,VDD*%
X233399999Y-188549999D03*
%TO.P,D220,2,DOUT*%
%TO.N,Net-(D220-DOUT)*%
X233399999Y-191849999D03*
%TO.P,D220,3,VSS*%
%TO.N,GND*%
X238299999Y-191849999D03*
%TO.P,D220,4,DIN*%
%TO.N,Net-(D219-DOUT)*%
X238299999Y-188549999D03*
%TD*%
%TO.P,D189,1,VDD*%
%TO.N,VDD*%
X220699999Y-137749999D03*
%TO.P,D189,2,DOUT*%
%TO.N,Net-(D189-DOUT)*%
X220699999Y-141049999D03*
%TO.P,D189,3,VSS*%
%TO.N,GND*%
X225599999Y-141049999D03*
%TO.P,D189,4,DIN*%
%TO.N,Net-(D188-DOUT)*%
X225599999Y-137749999D03*
%TD*%
%TO.P,D45,1,VDD*%
%TO.N,VDD*%
X119099999Y-112349999D03*
%TO.P,D45,2,DOUT*%
%TO.N,Net-(D45-DOUT)*%
X119099999Y-115649999D03*
%TO.P,D45,3,VSS*%
%TO.N,GND*%
X123999999Y-115649999D03*
%TO.P,D45,4,DIN*%
%TO.N,Net-(D44-DOUT)*%
X123999999Y-112349999D03*
%TD*%
%TO.P,D43,1,VDD*%
%TO.N,VDD*%
X144499999Y-112349999D03*
%TO.P,D43,2,DOUT*%
%TO.N,Net-(D43-DOUT)*%
X144499999Y-115649999D03*
%TO.P,D43,3,VSS*%
%TO.N,GND*%
X149399999Y-115649999D03*
%TO.P,D43,4,DIN*%
%TO.N,Net-(D42-DOUT)*%
X149399999Y-112349999D03*
%TD*%
%TO.P,D140,1,VDD*%
%TO.N,VDD*%
X233399999Y-61549999D03*
%TO.P,D140,2,DOUT*%
%TO.N,Net-(D140-DOUT)*%
X233399999Y-64849999D03*
%TO.P,D140,3,VSS*%
%TO.N,GND*%
X238299999Y-64849999D03*
%TO.P,D140,4,DIN*%
%TO.N,Net-(D139-DOUT)*%
X238299999Y-61549999D03*
%TD*%
%TO.P,D134,1,VDD*%
%TO.N,VDD*%
X246099999Y-48849999D03*
%TO.P,D134,2,DOUT*%
%TO.N,Net-(D134-DOUT)*%
X246099999Y-52149999D03*
%TO.P,D134,3,VSS*%
%TO.N,GND*%
X250999999Y-52149999D03*
%TO.P,D134,4,DIN*%
%TO.N,Net-(D133-DOUT)*%
X250999999Y-48849999D03*
%TD*%
%TO.P,D249,1,VDD*%
%TO.N,VDD*%
X271499999Y-239349999D03*
%TO.P,D249,2,DOUT*%
%TO.N,Net-(D249-DOUT)*%
X271499999Y-242649999D03*
%TO.P,D249,3,VSS*%
%TO.N,GND*%
X276399999Y-242649999D03*
%TO.P,D249,4,DIN*%
%TO.N,Net-(D248-DOUT)*%
X276399999Y-239349999D03*
%TD*%
%TO.P,D85,1,VDD*%
%TO.N,VDD*%
X131799999Y-175849999D03*
%TO.P,D85,2,DOUT*%
%TO.N,Net-(D85-DOUT)*%
X131799999Y-179149999D03*
%TO.P,D85,3,VSS*%
%TO.N,GND*%
X136699999Y-179149999D03*
%TO.P,D85,4,DIN*%
%TO.N,Net-(D84-DOUT)*%
X136699999Y-175849999D03*
%TD*%
%TO.P,D240,1,VDD*%
%TO.N,VDD*%
X182599999Y-213949999D03*
%TO.P,D240,2,DOUT*%
%TO.N,Net-(D240-DOUT)*%
X182599999Y-217249999D03*
%TO.P,D240,3,VSS*%
%TO.N,GND*%
X187499999Y-217249999D03*
%TO.P,D240,4,DIN*%
%TO.N,Net-(D239-DOUT)*%
X187499999Y-213949999D03*
%TD*%
%TO.P,D90,1,VDD*%
%TO.N,VDD*%
X157199999Y-188549999D03*
%TO.P,D90,2,DOUT*%
%TO.N,Net-(D90-DOUT)*%
X157199999Y-191849999D03*
%TO.P,D90,3,VSS*%
%TO.N,GND*%
X162099999Y-191849999D03*
%TO.P,D90,4,DIN*%
%TO.N,Net-(D89-DOUT)*%
X162099999Y-188549999D03*
%TD*%
%TO.P,D2,1,VDD*%
%TO.N,VDD*%
X93699999Y-48849999D03*
%TO.P,D2,2,DOUT*%
%TO.N,Net-(D2-DOUT)*%
X93699999Y-52149999D03*
%TO.P,D2,3,VSS*%
%TO.N,GND*%
X98599999Y-52149999D03*
%TO.P,D2,4,DIN*%
%TO.N,Net-(D1-DOUT)*%
X98599999Y-48849999D03*
%TD*%
D14*
%TO.P,J1,1,Pin_1*%
%TO.N,Net-(J1-Pin_1)*%
X45499999Y-116399999D03*
D15*
%TO.P,J1,2,Pin_2*%
%TO.N,Net-(J1-Pin_2)*%
X45499999Y-118939999D03*
%TO.P,J1,3,Pin_3*%
%TO.N,Net-(J1-Pin_3)*%
X45499999Y-121479999D03*
%TO.P,J1,4,Pin_4*%
%TO.N,Net-(J1-Pin_4)*%
X45499999Y-124019999D03*
%TD*%
D10*
%TO.P,D111,1,VDD*%
%TO.N,VDD*%
X93699999Y-213949999D03*
%TO.P,D111,2,DOUT*%
%TO.N,Net-(D111-DOUT)*%
X93699999Y-217249999D03*
%TO.P,D111,3,VSS*%
%TO.N,GND*%
X98599999Y-217249999D03*
%TO.P,D111,4,DIN*%
%TO.N,Net-(D110-DOUT)*%
X98599999Y-213949999D03*
%TD*%
%TO.P,D170,1,VDD*%
%TO.N,VDD*%
X258799999Y-112349999D03*
%TO.P,D170,2,DOUT*%
%TO.N,Net-(D170-DOUT)*%
X258799999Y-115649999D03*
%TO.P,D170,3,VSS*%
%TO.N,GND*%
X263699999Y-115649999D03*
%TO.P,D170,4,DIN*%
%TO.N,Net-(D169-DOUT)*%
X263699999Y-112349999D03*
%TD*%
%TO.P,D39,1,VDD*%
%TO.N,VDD*%
X157199999Y-99649999D03*
%TO.P,D39,2,DOUT*%
%TO.N,Net-(D39-DOUT)*%
X157199999Y-102949999D03*
%TO.P,D39,3,VSS*%
%TO.N,GND*%
X162099999Y-102949999D03*
%TO.P,D39,4,DIN*%
%TO.N,Net-(D38-DOUT)*%
X162099999Y-99649999D03*
%TD*%
%TO.P,D27,1,VDD*%
%TO.N,VDD*%
X144499999Y-86949999D03*
%TO.P,D27,2,DOUT*%
%TO.N,Net-(D27-DOUT)*%
X144499999Y-90249999D03*
%TO.P,D27,3,VSS*%
%TO.N,GND*%
X149399999Y-90249999D03*
%TO.P,D27,4,DIN*%
%TO.N,Net-(D26-DOUT)*%
X149399999Y-86949999D03*
%TD*%
D16*
%TO.P,REF\u002A\u002A,1*%
%TO.N,GND*%
X44000000Y-45000000D03*
%TD*%
D10*
%TO.P,D42,1,VDD*%
%TO.N,VDD*%
X157199999Y-112349999D03*
%TO.P,D42,2,DOUT*%
%TO.N,Net-(D42-DOUT)*%
X157199999Y-115649999D03*
%TO.P,D42,3,VSS*%
%TO.N,GND*%
X162099999Y-115649999D03*
%TO.P,D42,4,DIN*%
%TO.N,Net-(D41-DOUT)*%
X162099999Y-112349999D03*
%TD*%
%TO.P,D75,1,VDD*%
%TO.N,VDD*%
X144499999Y-163149999D03*
%TO.P,D75,2,DOUT*%
%TO.N,Net-(D75-DOUT)*%
X144499999Y-166449999D03*
%TO.P,D75,3,VSS*%
%TO.N,GND*%
X149399999Y-166449999D03*
%TO.P,D75,4,DIN*%
%TO.N,Net-(D74-DOUT)*%
X149399999Y-163149999D03*
%TD*%
%TO.P,D28,1,VDD*%
%TO.N,VDD*%
X131799999Y-86949999D03*
%TO.P,D28,2,DOUT*%
%TO.N,Net-(D28-DOUT)*%
X131799999Y-90249999D03*
%TO.P,D28,3,VSS*%
%TO.N,GND*%
X136699999Y-90249999D03*
%TO.P,D28,4,DIN*%
%TO.N,Net-(D27-DOUT)*%
X136699999Y-86949999D03*
%TD*%
%TO.P,D76,1,VDD*%
%TO.N,VDD*%
X131799999Y-163149999D03*
%TO.P,D76,2,DOUT*%
%TO.N,Net-(D76-DOUT)*%
X131799999Y-166449999D03*
%TO.P,D76,3,VSS*%
%TO.N,GND*%
X136699999Y-166449999D03*
%TO.P,D76,4,DIN*%
%TO.N,Net-(D75-DOUT)*%
X136699999Y-163149999D03*
%TD*%
%TO.P,D123,1,VDD*%
%TO.N,VDD*%
X144499999Y-239349999D03*
%TO.P,D123,2,DOUT*%
%TO.N,Net-(D123-DOUT)*%
X144499999Y-242649999D03*
%TO.P,D123,3,VSS*%
%TO.N,GND*%
X149399999Y-242649999D03*
%TO.P,D123,4,DIN*%
%TO.N,Net-(D122-DOUT)*%
X149399999Y-239349999D03*
%TD*%
D16*
%TO.P,REF\u002A\u002A,1*%
%TO.N,GND*%
X44000000Y-249000000D03*
%TD*%
D10*
%TO.P,D37,1,VDD*%
%TO.N,VDD*%
X131799999Y-99649999D03*
%TO.P,D37,2,DOUT*%
%TO.N,Net-(D37-DOUT)*%
X131799999Y-102949999D03*
%TO.P,D37,3,VSS*%
%TO.N,GND*%
X136699999Y-102949999D03*
%TO.P,D37,4,DIN*%
%TO.N,Net-(D36-DOUT)*%
X136699999Y-99649999D03*
%TD*%
%TO.P,D54,1,VDD*%
%TO.N,VDD*%
X144499999Y-125049999D03*
%TO.P,D54,2,DOUT*%
%TO.N,Net-(D54-DOUT)*%
X144499999Y-128349999D03*
%TO.P,D54,3,VSS*%
%TO.N,GND*%
X149399999Y-128349999D03*
%TO.P,D54,4,DIN*%
%TO.N,Net-(D53-DOUT)*%
X149399999Y-125049999D03*
%TD*%
%TO.P,D78,1,VDD*%
%TO.N,VDD*%
X106399999Y-163149999D03*
%TO.P,D78,2,DOUT*%
%TO.N,Net-(D78-DOUT)*%
X106399999Y-166449999D03*
%TO.P,D78,3,VSS*%
%TO.N,GND*%
X111299999Y-166449999D03*
%TO.P,D78,4,DIN*%
%TO.N,Net-(D77-DOUT)*%
X111299999Y-163149999D03*
%TD*%
%TO.P,D3,1,VDD*%
%TO.N,VDD*%
X106399999Y-48849999D03*
%TO.P,D3,2,DOUT*%
%TO.N,Net-(D3-DOUT)*%
X106399999Y-52149999D03*
%TO.P,D3,3,VSS*%
%TO.N,GND*%
X111299999Y-52149999D03*
%TO.P,D3,4,DIN*%
%TO.N,Net-(D2-DOUT)*%
X111299999Y-48849999D03*
%TD*%
%TO.P,D9,1,VDD*%
%TO.N,VDD*%
X169899999Y-61549999D03*
%TO.P,D9,2,DOUT*%
%TO.N,Net-(D10-DIN)*%
X169899999Y-64849999D03*
%TO.P,D9,3,VSS*%
%TO.N,GND*%
X174799999Y-64849999D03*
%TO.P,D9,4,DIN*%
%TO.N,Net-(D8-DOUT)*%
X174799999Y-61549999D03*
%TD*%
%TO.P,D163,1,VDD*%
%TO.N,VDD*%
X207999999Y-99649999D03*
%TO.P,D163,2,DOUT*%
%TO.N,Net-(D163-DOUT)*%
X207999999Y-102949999D03*
%TO.P,D163,3,VSS*%
%TO.N,GND*%
X212899999Y-102949999D03*
%TO.P,D163,4,DIN*%
%TO.N,Net-(D162-DOUT)*%
X212899999Y-99649999D03*
%TD*%
%TO.P,D183,1,VDD*%
%TO.N,VDD*%
X258799999Y-125049999D03*
%TO.P,D183,2,DOUT*%
%TO.N,Net-(D183-DOUT)*%
X258799999Y-128349999D03*
%TO.P,D183,3,VSS*%
%TO.N,GND*%
X263699999Y-128349999D03*
%TO.P,D183,4,DIN*%
%TO.N,Net-(D182-DOUT)*%
X263699999Y-125049999D03*
%TD*%
%TO.P,D126,1,VDD*%
%TO.N,VDD*%
X106399999Y-239349999D03*
%TO.P,D126,2,DOUT*%
%TO.N,Net-(D126-DOUT)*%
X106399999Y-242649999D03*
%TO.P,D126,3,VSS*%
%TO.N,GND*%
X111299999Y-242649999D03*
%TO.P,D126,4,DIN*%
%TO.N,Net-(D125-DOUT)*%
X111299999Y-239349999D03*
%TD*%
D17*
%TO.P,U1,1,\u002A1OE*%
%TO.N,unconnected-(U1-\u002A1OE-Pad1)*%
X61936199Y-124414999D03*
%TO.P,U1,2,1A*%
%TO.N,Net-(J1-Pin_1)*%
X61936199Y-125684999D03*
%TO.P,U1,3,1Y*%
%TO.N,Net-(D1-DIN)*%
X61936199Y-126954999D03*
%TO.P,U1,4,\u002A2OE*%
%TO.N,unconnected-(U1-\u002A2OE-Pad4)*%
X61936199Y-128224999D03*
%TO.P,U1,5,2A*%
%TO.N,Net-(J1-Pin_2)*%
X61936199Y-129494999D03*
%TO.P,U1,6,2Y*%
%TO.N,Net-(D65-DIN)*%
X61936199Y-130764999D03*
%TO.P,U1,7,GND*%
%TO.N,GND*%
X61936199Y-132034999D03*
%TO.P,U1,8,3Y*%
%TO.N,Net-(D129-DIN)*%
X66863799Y-132034999D03*
%TO.P,U1,9,3A*%
%TO.N,Net-(J1-Pin_3)*%
X66863799Y-130764999D03*
%TO.P,U1,10,\u002A3OE*%
%TO.N,unconnected-(U1-\u002A3OE-Pad10)*%
X66863799Y-129494999D03*
%TO.P,U1,11,4Y*%
%TO.N,Net-(D193-DIN)*%
X66863799Y-128224999D03*
%TO.P,U1,12,4A*%
%TO.N,Net-(J1-Pin_4)*%
X66863799Y-126954999D03*
%TO.P,U1,13,\u002A4OE*%
%TO.N,unconnected-(U1-\u002A4OE-Pad13)*%
X66863799Y-125684999D03*
%TO.P,U1,14,VCC*%
%TO.N,VDD*%
X66863799Y-124414999D03*
%TD*%
D10*
%TO.P,D93,1,VDD*%
%TO.N,VDD*%
X119099999Y-188549999D03*
%TO.P,D93,2,DOUT*%
%TO.N,Net-(D93-DOUT)*%
X119099999Y-191849999D03*
%TO.P,D93,3,VSS*%
%TO.N,GND*%
X123999999Y-191849999D03*
%TO.P,D93,4,DIN*%
%TO.N,Net-(D92-DOUT)*%
X123999999Y-188549999D03*
%TD*%
%TO.P,D198,1,VDD*%
%TO.N,VDD*%
X246099999Y-150449999D03*
%TO.P,D198,2,DOUT*%
%TO.N,Net-(D198-DOUT)*%
X246099999Y-153749999D03*
%TO.P,D198,3,VSS*%
%TO.N,GND*%
X250999999Y-153749999D03*
%TO.P,D198,4,DIN*%
%TO.N,Net-(D197-DOUT)*%
X250999999Y-150449999D03*
%TD*%
%TO.P,D219,1,VDD*%
%TO.N,VDD*%
X246099999Y-188549999D03*
%TO.P,D219,2,DOUT*%
%TO.N,Net-(D219-DOUT)*%
X246099999Y-191849999D03*
%TO.P,D219,3,VSS*%
%TO.N,GND*%
X250999999Y-191849999D03*
%TO.P,D219,4,DIN*%
%TO.N,Net-(D218-DOUT)*%
X250999999Y-188549999D03*
%TD*%
%TO.P,D171,1,VDD*%
%TO.N,VDD*%
X246099999Y-112349999D03*
%TO.P,D171,2,DOUT*%
%TO.N,Net-(D171-DOUT)*%
X246099999Y-115649999D03*
%TO.P,D171,3,VSS*%
%TO.N,GND*%
X250999999Y-115649999D03*
%TO.P,D171,4,DIN*%
%TO.N,Net-(D170-DOUT)*%
X250999999Y-112349999D03*
%TD*%
%TO.P,D103,1,VDD*%
%TO.N,VDD*%
X157199999Y-201249999D03*
%TO.P,D103,2,DOUT*%
%TO.N,Net-(D103-DOUT)*%
X157199999Y-204549999D03*
%TO.P,D103,3,VSS*%
%TO.N,GND*%
X162099999Y-204549999D03*
%TO.P,D103,4,DIN*%
%TO.N,Net-(D102-DOUT)*%
X162099999Y-201249999D03*
%TD*%
%TO.P,D180,1,VDD*%
%TO.N,VDD*%
X220699999Y-125049999D03*
%TO.P,D180,2,DOUT*%
%TO.N,Net-(D180-DOUT)*%
X220699999Y-128349999D03*
%TO.P,D180,3,VSS*%
%TO.N,GND*%
X225599999Y-128349999D03*
%TO.P,D180,4,DIN*%
%TO.N,Net-(D179-DOUT)*%
X225599999Y-125049999D03*
%TD*%
%TO.P,D229,1,VDD*%
%TO.N,VDD*%
X233399999Y-201249999D03*
%TO.P,D229,2,DOUT*%
%TO.N,Net-(D229-DOUT)*%
X233399999Y-204549999D03*
%TO.P,D229,3,VSS*%
%TO.N,GND*%
X238299999Y-204549999D03*
%TO.P,D229,4,DIN*%
%TO.N,Net-(D228-DOUT)*%
X238299999Y-201249999D03*
%TD*%
%TO.P,D79,1,VDD*%
%TO.N,VDD*%
X93699999Y-163149999D03*
%TO.P,D79,2,DOUT*%
%TO.N,Net-(D79-DOUT)*%
X93699999Y-166449999D03*
%TO.P,D79,3,VSS*%
%TO.N,GND*%
X98599999Y-166449999D03*
%TO.P,D79,4,DIN*%
%TO.N,Net-(D78-DOUT)*%
X98599999Y-163149999D03*
%TD*%
%TO.P,D20,1,VDD*%
%TO.N,VDD*%
X119099999Y-74249999D03*
%TO.P,D20,2,DOUT*%
%TO.N,Net-(D20-DOUT)*%
X119099999Y-77549999D03*
%TO.P,D20,3,VSS*%
%TO.N,GND*%
X123999999Y-77549999D03*
%TO.P,D20,4,DIN*%
%TO.N,Net-(D19-DOUT)*%
X123999999Y-74249999D03*
%TD*%
%TO.P,D141,1,VDD*%
%TO.N,VDD*%
X220699999Y-61549999D03*
%TO.P,D141,2,DOUT*%
%TO.N,Net-(D141-DOUT)*%
X220699999Y-64849999D03*
%TO.P,D141,3,VSS*%
%TO.N,GND*%
X225599999Y-64849999D03*
%TO.P,D141,4,DIN*%
%TO.N,Net-(D140-DOUT)*%
X225599999Y-61549999D03*
%TD*%
%TO.P,D186,1,VDD*%
%TO.N,VDD*%
X258799999Y-137749999D03*
%TO.P,D186,2,DOUT*%
%TO.N,Net-(D186-DOUT)*%
X258799999Y-141049999D03*
%TO.P,D186,3,VSS*%
%TO.N,GND*%
X263699999Y-141049999D03*
%TO.P,D186,4,DIN*%
%TO.N,Net-(D185-DOUT)*%
X263699999Y-137749999D03*
%TD*%
%TO.P,D12,1,VDD*%
%TO.N,VDD*%
X131799999Y-61549999D03*
%TO.P,D12,2,DOUT*%
%TO.N,Net-(D12-DOUT)*%
X131799999Y-64849999D03*
%TO.P,D12,3,VSS*%
%TO.N,GND*%
X136699999Y-64849999D03*
%TO.P,D12,4,DIN*%
%TO.N,Net-(D11-DOUT)*%
X136699999Y-61549999D03*
%TD*%
%TO.P,D124,1,VDD*%
%TO.N,VDD*%
X131799999Y-239349999D03*
%TO.P,D124,2,DOUT*%
%TO.N,Net-(D124-DOUT)*%
X131799999Y-242649999D03*
%TO.P,D124,3,VSS*%
%TO.N,GND*%
X136699999Y-242649999D03*
%TO.P,D124,4,DIN*%
%TO.N,Net-(D123-DOUT)*%
X136699999Y-239349999D03*
%TD*%
%TO.P,D218,1,VDD*%
%TO.N,VDD*%
X258799999Y-188549999D03*
%TO.P,D218,2,DOUT*%
%TO.N,Net-(D218-DOUT)*%
X258799999Y-191849999D03*
%TO.P,D218,3,VSS*%
%TO.N,GND*%
X263699999Y-191849999D03*
%TO.P,D218,4,DIN*%
%TO.N,Net-(D217-DOUT)*%
X263699999Y-188549999D03*
%TD*%
%TO.P,D4,1,VDD*%
%TO.N,VDD*%
X119099999Y-48849999D03*
%TO.P,D4,2,DOUT*%
%TO.N,Net-(D4-DOUT)*%
X119099999Y-52149999D03*
%TO.P,D4,3,VSS*%
%TO.N,GND*%
X123999999Y-52149999D03*
%TO.P,D4,4,DIN*%
%TO.N,Net-(D3-DOUT)*%
X123999999Y-48849999D03*
%TD*%
%TO.P,D122,1,VDD*%
%TO.N,VDD*%
X157199999Y-239349999D03*
%TO.P,D122,2,DOUT*%
%TO.N,Net-(D122-DOUT)*%
X157199999Y-242649999D03*
%TO.P,D122,3,VSS*%
%TO.N,GND*%
X162099999Y-242649999D03*
%TO.P,D122,4,DIN*%
%TO.N,Net-(D121-DOUT)*%
X162099999Y-239349999D03*
%TD*%
%TO.P,D222,1,VDD*%
%TO.N,VDD*%
X207999999Y-188549999D03*
%TO.P,D222,2,DOUT*%
%TO.N,Net-(D222-DOUT)*%
X207999999Y-191849999D03*
%TO.P,D222,3,VSS*%
%TO.N,GND*%
X212899999Y-191849999D03*
%TO.P,D222,4,DIN*%
%TO.N,Net-(D221-DOUT)*%
X212899999Y-188549999D03*
%TD*%
%TO.P,D137,1,VDD*%
%TO.N,VDD*%
X271499999Y-61549999D03*
%TO.P,D137,2,DOUT*%
%TO.N,Net-(D137-DOUT)*%
X271499999Y-64849999D03*
%TO.P,D137,3,VSS*%
%TO.N,GND*%
X276399999Y-64849999D03*
%TO.P,D137,4,DIN*%
%TO.N,Net-(D136-DOUT)*%
X276399999Y-61549999D03*
%TD*%
%TO.P,D190,1,VDD*%
%TO.N,VDD*%
X207999999Y-137749999D03*
%TO.P,D190,2,DOUT*%
%TO.N,Net-(D190-DOUT)*%
X207999999Y-141049999D03*
%TO.P,D190,3,VSS*%
%TO.N,GND*%
X212899999Y-141049999D03*
%TO.P,D190,4,DIN*%
%TO.N,Net-(D189-DOUT)*%
X212899999Y-137749999D03*
%TD*%
%TO.P,D234,1,VDD*%
%TO.N,VDD*%
X258799999Y-213949999D03*
%TO.P,D234,2,DOUT*%
%TO.N,Net-(D234-DOUT)*%
X258799999Y-217249999D03*
%TO.P,D234,3,VSS*%
%TO.N,GND*%
X263699999Y-217249999D03*
%TO.P,D234,4,DIN*%
%TO.N,Net-(D233-DOUT)*%
X263699999Y-213949999D03*
%TD*%
%TO.P,D165,1,VDD*%
%TO.N,VDD*%
X233399999Y-99649999D03*
%TO.P,D165,2,DOUT*%
%TO.N,Net-(D165-DOUT)*%
X233399999Y-102949999D03*
%TO.P,D165,3,VSS*%
%TO.N,GND*%
X238299999Y-102949999D03*
%TO.P,D165,4,DIN*%
%TO.N,Net-(D164-DOUT)*%
X238299999Y-99649999D03*
%TD*%
%TO.P,D13,1,VDD*%
%TO.N,VDD*%
X119099999Y-61549999D03*
%TO.P,D13,2,DOUT*%
%TO.N,Net-(D13-DOUT)*%
X119099999Y-64849999D03*
%TO.P,D13,3,VSS*%
%TO.N,GND*%
X123999999Y-64849999D03*
%TO.P,D13,4,DIN*%
%TO.N,Net-(D12-DOUT)*%
X123999999Y-61549999D03*
%TD*%
%TO.P,D117,1,VDD*%
%TO.N,VDD*%
X131799999Y-226649999D03*
%TO.P,D117,2,DOUT*%
%TO.N,Net-(D117-DOUT)*%
X131799999Y-229949999D03*
%TO.P,D117,3,VSS*%
%TO.N,GND*%
X136699999Y-229949999D03*
%TO.P,D117,4,DIN*%
%TO.N,Net-(D116-DOUT)*%
X136699999Y-226649999D03*
%TD*%
%TO.P,D133,1,VDD*%
%TO.N,VDD*%
X233399999Y-48849999D03*
%TO.P,D133,2,DOUT*%
%TO.N,Net-(D133-DOUT)*%
X233399999Y-52149999D03*
%TO.P,D133,3,VSS*%
%TO.N,GND*%
X238299999Y-52149999D03*
%TO.P,D133,4,DIN*%
%TO.N,Net-(D132-DOUT)*%
X238299999Y-48849999D03*
%TD*%
%TO.P,D252,1,VDD*%
%TO.N,VDD*%
X233399999Y-239349999D03*
%TO.P,D252,2,DOUT*%
%TO.N,Net-(D252-DOUT)*%
X233399999Y-242649999D03*
%TO.P,D252,3,VSS*%
%TO.N,GND*%
X238299999Y-242649999D03*
%TO.P,D252,4,DIN*%
%TO.N,Net-(D251-DOUT)*%
X238299999Y-239349999D03*
%TD*%
%TO.P,D144,1,VDD*%
%TO.N,VDD*%
X182599999Y-61549999D03*
%TO.P,D144,2,DOUT*%
%TO.N,Net-(D144-DOUT)*%
X182599999Y-64849999D03*
%TO.P,D144,3,VSS*%
%TO.N,GND*%
X187499999Y-64849999D03*
%TO.P,D144,4,DIN*%
%TO.N,Net-(D143-DOUT)*%
X187499999Y-61549999D03*
%TD*%
%TO.P,D74,1,VDD*%
%TO.N,VDD*%
X157199999Y-163149999D03*
%TO.P,D74,2,DOUT*%
%TO.N,Net-(D74-DOUT)*%
X157199999Y-166449999D03*
%TO.P,D74,3,VSS*%
%TO.N,GND*%
X162099999Y-166449999D03*
%TO.P,D74,4,DIN*%
%TO.N,Net-(D73-DOUT)*%
X162099999Y-163149999D03*
%TD*%
%TO.P,D250,1,VDD*%
%TO.N,VDD*%
X258799999Y-239349999D03*
%TO.P,D250,2,DOUT*%
%TO.N,Net-(D250-DOUT)*%
X258799999Y-242649999D03*
%TO.P,D250,3,VSS*%
%TO.N,GND*%
X263699999Y-242649999D03*
%TO.P,D250,4,DIN*%
%TO.N,Net-(D249-DOUT)*%
X263699999Y-239349999D03*
%TD*%
%TO.P,D67,1,VDD*%
%TO.N,VDD*%
X106399999Y-150449999D03*
%TO.P,D67,2,DOUT*%
%TO.N,Net-(D67-DOUT)*%
X106399999Y-153749999D03*
%TO.P,D67,3,VSS*%
%TO.N,GND*%
X111299999Y-153749999D03*
%TO.P,D67,4,DIN*%
%TO.N,Net-(D66-DOUT)*%
X111299999Y-150449999D03*
%TD*%
%TO.P,D132,1,VDD*%
%TO.N,VDD*%
X220699999Y-48849999D03*
%TO.P,D132,2,DOUT*%
%TO.N,Net-(D132-DOUT)*%
X220699999Y-52149999D03*
%TO.P,D132,3,VSS*%
%TO.N,GND*%
X225599999Y-52149999D03*
%TO.P,D132,4,DIN*%
%TO.N,Net-(D131-DOUT)*%
X225599999Y-48849999D03*
%TD*%
%TO.P,D241,1,VDD*%
%TO.N,VDD*%
X182599999Y-226649999D03*
%TO.P,D241,2,DOUT*%
%TO.N,Net-(D241-DOUT)*%
X182599999Y-229949999D03*
%TO.P,D241,3,VSS*%
%TO.N,GND*%
X187499999Y-229949999D03*
%TO.P,D241,4,DIN*%
%TO.N,Net-(D240-DOUT)*%
X187499999Y-226649999D03*
%TD*%
%TO.P,D210,1,VDD*%
%TO.N,VDD*%
X195299999Y-175849999D03*
%TO.P,D210,2,DOUT*%
%TO.N,Net-(D210-DOUT)*%
X195299999Y-179149999D03*
%TO.P,D210,3,VSS*%
%TO.N,GND*%
X200199999Y-179149999D03*
%TO.P,D210,4,DIN*%
%TO.N,Net-(D209-DOUT)*%
X200199999Y-175849999D03*
%TD*%
%TO.P,D72,1,VDD*%
%TO.N,VDD*%
X169899999Y-150449999D03*
%TO.P,D72,2,DOUT*%
%TO.N,Net-(D72-DOUT)*%
X169899999Y-153749999D03*
%TO.P,D72,3,VSS*%
%TO.N,GND*%
X174799999Y-153749999D03*
%TO.P,D72,4,DIN*%
%TO.N,Net-(D71-DOUT)*%
X174799999Y-150449999D03*
%TD*%
%TO.P,D87,1,VDD*%
%TO.N,VDD*%
X157199999Y-175849999D03*
%TO.P,D87,2,DOUT*%
%TO.N,Net-(D87-DOUT)*%
X157199999Y-179149999D03*
%TO.P,D87,3,VSS*%
%TO.N,GND*%
X162099999Y-179149999D03*
%TO.P,D87,4,DIN*%
%TO.N,Net-(D86-DOUT)*%
X162099999Y-175849999D03*
%TD*%
%TO.P,D41,1,VDD*%
%TO.N,VDD*%
X169899999Y-112349999D03*
%TO.P,D41,2,DOUT*%
%TO.N,Net-(D41-DOUT)*%
X169899999Y-115649999D03*
%TO.P,D41,3,VSS*%
%TO.N,GND*%
X174799999Y-115649999D03*
%TO.P,D41,4,DIN*%
%TO.N,Net-(D40-DOUT)*%
X174799999Y-112349999D03*
%TD*%
%TO.P,D215,1,VDD*%
%TO.N,VDD*%
X258799999Y-175849999D03*
%TO.P,D215,2,DOUT*%
%TO.N,Net-(D215-DOUT)*%
X258799999Y-179149999D03*
%TO.P,D215,3,VSS*%
%TO.N,GND*%
X263699999Y-179149999D03*
%TO.P,D215,4,DIN*%
%TO.N,Net-(D214-DOUT)*%
X263699999Y-175849999D03*
%TD*%
%TO.P,D206,1,VDD*%
%TO.N,VDD*%
X207999999Y-163149999D03*
%TO.P,D206,2,DOUT*%
%TO.N,Net-(D206-DOUT)*%
X207999999Y-166449999D03*
%TO.P,D206,3,VSS*%
%TO.N,GND*%
X212899999Y-166449999D03*
%TO.P,D206,4,DIN*%
%TO.N,Net-(D205-DOUT)*%
X212899999Y-163149999D03*
%TD*%
%TO.P,D83,1,VDD*%
%TO.N,VDD*%
X106399999Y-175849999D03*
%TO.P,D83,2,DOUT*%
%TO.N,Net-(D83-DOUT)*%
X106399999Y-179149999D03*
%TO.P,D83,3,VSS*%
%TO.N,GND*%
X111299999Y-179149999D03*
%TO.P,D83,4,DIN*%
%TO.N,Net-(D82-DOUT)*%
X111299999Y-175849999D03*
%TD*%
%TO.P,D95,1,VDD*%
%TO.N,VDD*%
X93699999Y-188549999D03*
%TO.P,D95,2,DOUT*%
%TO.N,Net-(D95-DOUT)*%
X93699999Y-191849999D03*
%TO.P,D95,3,VSS*%
%TO.N,GND*%
X98599999Y-191849999D03*
%TO.P,D95,4,DIN*%
%TO.N,Net-(D94-DOUT)*%
X98599999Y-188549999D03*
%TD*%
%TO.P,D110,1,VDD*%
%TO.N,VDD*%
X106399999Y-213949999D03*
%TO.P,D110,2,DOUT*%
%TO.N,Net-(D110-DOUT)*%
X106399999Y-217249999D03*
%TO.P,D110,3,VSS*%
%TO.N,GND*%
X111299999Y-217249999D03*
%TO.P,D110,4,DIN*%
%TO.N,Net-(D109-DOUT)*%
X111299999Y-213949999D03*
%TD*%
%TO.P,D157,1,VDD*%
%TO.N,VDD*%
X220699999Y-86949999D03*
%TO.P,D157,2,DOUT*%
%TO.N,Net-(D157-DOUT)*%
X220699999Y-90249999D03*
%TO.P,D157,3,VSS*%
%TO.N,GND*%
X225599999Y-90249999D03*
%TO.P,D157,4,DIN*%
%TO.N,Net-(D156-DOUT)*%
X225599999Y-86949999D03*
%TD*%
%TO.P,D31,1,VDD*%
%TO.N,VDD*%
X93699999Y-86949999D03*
%TO.P,D31,2,DOUT*%
%TO.N,Net-(D31-DOUT)*%
X93699999Y-90249999D03*
%TO.P,D31,3,VSS*%
%TO.N,GND*%
X98599999Y-90249999D03*
%TO.P,D31,4,DIN*%
%TO.N,Net-(D30-DOUT)*%
X98599999Y-86949999D03*
%TD*%
%TO.P,D40,1,VDD*%
%TO.N,VDD*%
X169899999Y-99649999D03*
%TO.P,D40,2,DOUT*%
%TO.N,Net-(D40-DOUT)*%
X169899999Y-102949999D03*
%TO.P,D40,3,VSS*%
%TO.N,GND*%
X174799999Y-102949999D03*
%TO.P,D40,4,DIN*%
%TO.N,Net-(D39-DOUT)*%
X174799999Y-99649999D03*
%TD*%
%TO.P,D194,1,VDD*%
%TO.N,VDD*%
X195299999Y-150449999D03*
%TO.P,D194,2,DOUT*%
%TO.N,Net-(D194-DOUT)*%
X195299999Y-153749999D03*
%TO.P,D194,3,VSS*%
%TO.N,GND*%
X200199999Y-153749999D03*
%TO.P,D194,4,DIN*%
%TO.N,Net-(D193-DOUT)*%
X200199999Y-150449999D03*
%TD*%
%TO.P,D108,1,VDD*%
%TO.N,VDD*%
X131799999Y-213949999D03*
%TO.P,D108,2,DOUT*%
%TO.N,Net-(D108-DOUT)*%
X131799999Y-217249999D03*
%TO.P,D108,3,VSS*%
%TO.N,GND*%
X136699999Y-217249999D03*
%TO.P,D108,4,DIN*%
%TO.N,Net-(D107-DOUT)*%
X136699999Y-213949999D03*
%TD*%
%TO.P,D17,1,VDD*%
%TO.N,VDD*%
X80999999Y-74249999D03*
%TO.P,D17,2,DOUT*%
%TO.N,Net-(D17-DOUT)*%
X80999999Y-77549999D03*
%TO.P,D17,3,VSS*%
%TO.N,GND*%
X85899999Y-77549999D03*
%TO.P,D17,4,DIN*%
%TO.N,Net-(D16-DOUT)*%
X85899999Y-74249999D03*
%TD*%
%TO.P,D175,1,VDD*%
%TO.N,VDD*%
X195299999Y-112349999D03*
%TO.P,D175,2,DOUT*%
%TO.N,Net-(D175-DOUT)*%
X195299999Y-115649999D03*
%TO.P,D175,3,VSS*%
%TO.N,GND*%
X200199999Y-115649999D03*
%TO.P,D175,4,DIN*%
%TO.N,Net-(D174-DOUT)*%
X200199999Y-112349999D03*
%TD*%
%TO.P,D97,1,VDD*%
%TO.N,VDD*%
X80999999Y-201249999D03*
%TO.P,D97,2,DOUT*%
%TO.N,Net-(D97-DOUT)*%
X80999999Y-204549999D03*
%TO.P,D97,3,VSS*%
%TO.N,GND*%
X85899999Y-204549999D03*
%TO.P,D97,4,DIN*%
%TO.N,Net-(D96-DOUT)*%
X85899999Y-201249999D03*
%TD*%
%TO.P,D204,1,VDD*%
%TO.N,VDD*%
X233399999Y-163149999D03*
%TO.P,D204,2,DOUT*%
%TO.N,Net-(D204-DOUT)*%
X233399999Y-166449999D03*
%TO.P,D204,3,VSS*%
%TO.N,GND*%
X238299999Y-166449999D03*
%TO.P,D204,4,DIN*%
%TO.N,Net-(D203-DOUT)*%
X238299999Y-163149999D03*
%TD*%
%TO.P,D99,1,VDD*%
%TO.N,VDD*%
X106399999Y-201249999D03*
%TO.P,D99,2,DOUT*%
%TO.N,Net-(D100-DIN)*%
X106399999Y-204549999D03*
%TO.P,D99,3,VSS*%
%TO.N,GND*%
X111299999Y-204549999D03*
%TO.P,D99,4,DIN*%
%TO.N,Net-(D98-DOUT)*%
X111299999Y-201249999D03*
%TD*%
%TO.P,D92,1,VDD*%
%TO.N,VDD*%
X131799999Y-188549999D03*
%TO.P,D92,2,DOUT*%
%TO.N,Net-(D92-DOUT)*%
X131799999Y-191849999D03*
%TO.P,D92,3,VSS*%
%TO.N,GND*%
X136699999Y-191849999D03*
%TO.P,D92,4,DIN*%
%TO.N,Net-(D91-DOUT)*%
X136699999Y-188549999D03*
%TD*%
%TO.P,D195,1,VDD*%
%TO.N,VDD*%
X207999999Y-150449999D03*
%TO.P,D195,2,DOUT*%
%TO.N,Net-(D195-DOUT)*%
X207999999Y-153749999D03*
%TO.P,D195,3,VSS*%
%TO.N,GND*%
X212899999Y-153749999D03*
%TO.P,D195,4,DIN*%
%TO.N,Net-(D194-DOUT)*%
X212899999Y-150449999D03*
%TD*%
%TO.P,D125,1,VDD*%
%TO.N,VDD*%
X119099999Y-239349999D03*
%TO.P,D125,2,DOUT*%
%TO.N,Net-(D125-DOUT)*%
X119099999Y-242649999D03*
%TO.P,D125,3,VSS*%
%TO.N,GND*%
X123999999Y-242649999D03*
%TO.P,D125,4,DIN*%
%TO.N,Net-(D124-DOUT)*%
X123999999Y-239349999D03*
%TD*%
%TO.P,D7,1,VDD*%
%TO.N,VDD*%
X157199999Y-48849999D03*
%TO.P,D7,2,DOUT*%
%TO.N,Net-(D7-DOUT)*%
X157199999Y-52149999D03*
%TO.P,D7,3,VSS*%
%TO.N,GND*%
X162099999Y-52149999D03*
%TO.P,D7,4,DIN*%
%TO.N,Net-(D6-DOUT)*%
X162099999Y-48849999D03*
%TD*%
%TO.P,D173,1,VDD*%
%TO.N,VDD*%
X220699999Y-112349999D03*
%TO.P,D173,2,DOUT*%
%TO.N,Net-(D173-DOUT)*%
X220699999Y-115649999D03*
%TO.P,D173,3,VSS*%
%TO.N,GND*%
X225599999Y-115649999D03*
%TO.P,D173,4,DIN*%
%TO.N,Net-(D172-DOUT)*%
X225599999Y-112349999D03*
%TD*%
%TO.P,D167,1,VDD*%
%TO.N,VDD*%
X258799999Y-99649999D03*
%TO.P,D167,2,DOUT*%
%TO.N,Net-(D167-DOUT)*%
X258799999Y-102949999D03*
%TO.P,D167,3,VSS*%
%TO.N,GND*%
X263699999Y-102949999D03*
%TO.P,D167,4,DIN*%
%TO.N,Net-(D166-DOUT)*%
X263699999Y-99649999D03*
%TD*%
%TO.P,D48,1,VDD*%
%TO.N,VDD*%
X80999999Y-112349999D03*
%TO.P,D48,2,DOUT*%
%TO.N,Net-(D48-DOUT)*%
X80999999Y-115649999D03*
%TO.P,D48,3,VSS*%
%TO.N,GND*%
X85899999Y-115649999D03*
%TO.P,D48,4,DIN*%
%TO.N,Net-(D47-DOUT)*%
X85899999Y-112349999D03*
%TD*%
%TO.P,D128,1,VDD*%
%TO.N,VDD*%
X80999999Y-239349999D03*
%TO.P,D128,2,DOUT*%
%TO.N,unconnected-(D128-DOUT-Pad2)*%
X80999999Y-242649999D03*
%TO.P,D128,3,VSS*%
%TO.N,GND*%
X85899999Y-242649999D03*
%TO.P,D128,4,DIN*%
%TO.N,Net-(D127-DOUT)*%
X85899999Y-239349999D03*
%TD*%
%TO.P,D214,1,VDD*%
%TO.N,VDD*%
X246099999Y-175849999D03*
%TO.P,D214,2,DOUT*%
%TO.N,Net-(D214-DOUT)*%
X246099999Y-179149999D03*
%TO.P,D214,3,VSS*%
%TO.N,GND*%
X250999999Y-179149999D03*
%TO.P,D214,4,DIN*%
%TO.N,Net-(D213-DOUT)*%
X250999999Y-175849999D03*
%TD*%
%TO.P,D147,1,VDD*%
%TO.N,VDD*%
X207999999Y-74249999D03*
%TO.P,D147,2,DOUT*%
%TO.N,Net-(D147-DOUT)*%
X207999999Y-77549999D03*
%TO.P,D147,3,VSS*%
%TO.N,GND*%
X212899999Y-77549999D03*
%TO.P,D147,4,DIN*%
%TO.N,Net-(D146-DOUT)*%
X212899999Y-74249999D03*
%TD*%
%TO.P,D63,1,VDD*%
%TO.N,VDD*%
X93699999Y-137749999D03*
%TO.P,D63,2,DOUT*%
%TO.N,Net-(D63-DOUT)*%
X93699999Y-141049999D03*
%TO.P,D63,3,VSS*%
%TO.N,GND*%
X98599999Y-141049999D03*
%TO.P,D63,4,DIN*%
%TO.N,Net-(D62-DOUT)*%
X98599999Y-137749999D03*
%TD*%
%TO.P,D166,1,VDD*%
%TO.N,VDD*%
X246099999Y-99649999D03*
%TO.P,D166,2,DOUT*%
%TO.N,Net-(D166-DOUT)*%
X246099999Y-102949999D03*
%TO.P,D166,3,VSS*%
%TO.N,GND*%
X250999999Y-102949999D03*
%TO.P,D166,4,DIN*%
%TO.N,Net-(D165-DOUT)*%
X250999999Y-99649999D03*
%TD*%
%TO.P,D22,1,VDD*%
%TO.N,VDD*%
X144499999Y-74249999D03*
%TO.P,D22,2,DOUT*%
%TO.N,Net-(D22-DOUT)*%
X144499999Y-77549999D03*
%TO.P,D22,3,VSS*%
%TO.N,GND*%
X149399999Y-77549999D03*
%TO.P,D22,4,DIN*%
%TO.N,Net-(D21-DOUT)*%
X149399999Y-74249999D03*
%TD*%
%TO.P,D21,1,VDD*%
%TO.N,VDD*%
X131799999Y-74249999D03*
%TO.P,D21,2,DOUT*%
%TO.N,Net-(D21-DOUT)*%
X131799999Y-77549999D03*
%TO.P,D21,3,VSS*%
%TO.N,GND*%
X136699999Y-77549999D03*
%TO.P,D21,4,DIN*%
%TO.N,Net-(D20-DOUT)*%
X136699999Y-74249999D03*
%TD*%
%TO.P,D131,1,VDD*%
%TO.N,VDD*%
X207999999Y-48849999D03*
%TO.P,D131,2,DOUT*%
%TO.N,Net-(D131-DOUT)*%
X207999999Y-52149999D03*
%TO.P,D131,3,VSS*%
%TO.N,GND*%
X212899999Y-52149999D03*
%TO.P,D131,4,DIN*%
%TO.N,Net-(D130-DOUT)*%
X212899999Y-48849999D03*
%TD*%
%TO.P,D130,1,VDD*%
%TO.N,VDD*%
X195299999Y-48849999D03*
%TO.P,D130,2,DOUT*%
%TO.N,Net-(D130-DOUT)*%
X195299999Y-52149999D03*
%TO.P,D130,3,VSS*%
%TO.N,GND*%
X200199999Y-52149999D03*
%TO.P,D130,4,DIN*%
%TO.N,Net-(D129-DOUT)*%
X200199999Y-48849999D03*
%TD*%
%TO.P,D26,1,VDD*%
%TO.N,VDD*%
X157199999Y-86949999D03*
%TO.P,D26,2,DOUT*%
%TO.N,Net-(D26-DOUT)*%
X157199999Y-90249999D03*
%TO.P,D26,3,VSS*%
%TO.N,GND*%
X162099999Y-90249999D03*
%TO.P,D26,4,DIN*%
%TO.N,Net-(D25-DOUT)*%
X162099999Y-86949999D03*
%TD*%
%TO.P,D164,1,VDD*%
%TO.N,VDD*%
X220699999Y-99649999D03*
%TO.P,D164,2,DOUT*%
%TO.N,Net-(D164-DOUT)*%
X220699999Y-102949999D03*
%TO.P,D164,3,VSS*%
%TO.N,GND*%
X225599999Y-102949999D03*
%TO.P,D164,4,DIN*%
%TO.N,Net-(D163-DOUT)*%
X225599999Y-99649999D03*
%TD*%
%TO.P,D181,1,VDD*%
%TO.N,VDD*%
X233399999Y-125049999D03*
%TO.P,D181,2,DOUT*%
%TO.N,Net-(D181-DOUT)*%
X233399999Y-128349999D03*
%TO.P,D181,3,VSS*%
%TO.N,GND*%
X238299999Y-128349999D03*
%TO.P,D181,4,DIN*%
%TO.N,Net-(D180-DOUT)*%
X238299999Y-125049999D03*
%TD*%
%TO.P,D24,1,VDD*%
%TO.N,VDD*%
X169899999Y-74249999D03*
%TO.P,D24,2,DOUT*%
%TO.N,Net-(D24-DOUT)*%
X169899999Y-77549999D03*
%TO.P,D24,3,VSS*%
%TO.N,GND*%
X174799999Y-77549999D03*
%TO.P,D24,4,DIN*%
%TO.N,Net-(D23-DOUT)*%
X174799999Y-74249999D03*
%TD*%
%TO.P,D70,1,VDD*%
%TO.N,VDD*%
X144499999Y-150449999D03*
%TO.P,D70,2,DOUT*%
%TO.N,Net-(D70-DOUT)*%
X144499999Y-153749999D03*
%TO.P,D70,3,VSS*%
%TO.N,GND*%
X149399999Y-153749999D03*
%TO.P,D70,4,DIN*%
%TO.N,Net-(D69-DOUT)*%
X149399999Y-150449999D03*
%TD*%
%TO.P,D148,1,VDD*%
%TO.N,VDD*%
X220699999Y-74249999D03*
%TO.P,D148,2,DOUT*%
%TO.N,Net-(D148-DOUT)*%
X220699999Y-77549999D03*
%TO.P,D148,3,VSS*%
%TO.N,GND*%
X225599999Y-77549999D03*
%TO.P,D148,4,DIN*%
%TO.N,Net-(D147-DOUT)*%
X225599999Y-74249999D03*
%TD*%
%TO.P,D221,1,VDD*%
%TO.N,VDD*%
X220699999Y-188549999D03*
%TO.P,D221,2,DOUT*%
%TO.N,Net-(D221-DOUT)*%
X220699999Y-191849999D03*
%TO.P,D221,3,VSS*%
%TO.N,GND*%
X225599999Y-191849999D03*
%TO.P,D221,4,DIN*%
%TO.N,Net-(D220-DOUT)*%
X225599999Y-188549999D03*
%TD*%
%TO.P,D52,1,VDD*%
%TO.N,VDD*%
X119099999Y-125049999D03*
%TO.P,D52,2,DOUT*%
%TO.N,Net-(D52-DOUT)*%
X119099999Y-128349999D03*
%TO.P,D52,3,VSS*%
%TO.N,GND*%
X123999999Y-128349999D03*
%TO.P,D52,4,DIN*%
%TO.N,Net-(D51-DOUT)*%
X123999999Y-125049999D03*
%TD*%
%TO.P,D191,1,VDD*%
%TO.N,VDD*%
X195299999Y-137749999D03*
%TO.P,D191,2,DOUT*%
%TO.N,Net-(D191-DOUT)*%
X195299999Y-141049999D03*
%TO.P,D191,3,VSS*%
%TO.N,GND*%
X200199999Y-141049999D03*
%TO.P,D191,4,DIN*%
%TO.N,Net-(D190-DOUT)*%
X200199999Y-137749999D03*
%TD*%
%TO.P,D106,1,VDD*%
%TO.N,VDD*%
X157199999Y-213949999D03*
%TO.P,D106,2,DOUT*%
%TO.N,Net-(D106-DOUT)*%
X157199999Y-217249999D03*
%TO.P,D106,3,VSS*%
%TO.N,GND*%
X162099999Y-217249999D03*
%TO.P,D106,4,DIN*%
%TO.N,Net-(D105-DOUT)*%
X162099999Y-213949999D03*
%TD*%
%TO.P,D89,1,VDD*%
%TO.N,VDD*%
X169899999Y-188549999D03*
%TO.P,D89,2,DOUT*%
%TO.N,Net-(D89-DOUT)*%
X169899999Y-191849999D03*
%TO.P,D89,3,VSS*%
%TO.N,GND*%
X174799999Y-191849999D03*
%TO.P,D89,4,DIN*%
%TO.N,Net-(D88-DOUT)*%
X174799999Y-188549999D03*
%TD*%
%TO.P,D129,1,VDD*%
%TO.N,VDD*%
X182599999Y-48849999D03*
%TO.P,D129,2,DOUT*%
%TO.N,Net-(D129-DOUT)*%
X182599999Y-52149999D03*
%TO.P,D129,3,VSS*%
%TO.N,GND*%
X187499999Y-52149999D03*
%TO.P,D129,4,DIN*%
%TO.N,Net-(D129-DIN)*%
X187499999Y-48849999D03*
%TD*%
%TO.P,D182,1,VDD*%
%TO.N,VDD*%
X246099999Y-125049999D03*
%TO.P,D182,2,DOUT*%
%TO.N,Net-(D182-DOUT)*%
X246099999Y-128349999D03*
%TO.P,D182,3,VSS*%
%TO.N,GND*%
X250999999Y-128349999D03*
%TO.P,D182,4,DIN*%
%TO.N,Net-(D181-DOUT)*%
X250999999Y-125049999D03*
%TD*%
%TO.P,D58,1,VDD*%
%TO.N,VDD*%
X157199999Y-137749999D03*
%TO.P,D58,2,DOUT*%
%TO.N,Net-(D58-DOUT)*%
X157199999Y-141049999D03*
%TO.P,D58,3,VSS*%
%TO.N,GND*%
X162099999Y-141049999D03*
%TO.P,D58,4,DIN*%
%TO.N,Net-(D57-DOUT)*%
X162099999Y-137749999D03*
%TD*%
%TO.P,D109,1,VDD*%
%TO.N,VDD*%
X119099999Y-213949999D03*
%TO.P,D109,2,DOUT*%
%TO.N,Net-(D109-DOUT)*%
X119099999Y-217249999D03*
%TO.P,D109,3,VSS*%
%TO.N,GND*%
X123999999Y-217249999D03*
%TO.P,D109,4,DIN*%
%TO.N,Net-(D108-DOUT)*%
X123999999Y-213949999D03*
%TD*%
%TO.P,D193,1,VDD*%
%TO.N,VDD*%
X182599999Y-150449999D03*
%TO.P,D193,2,DOUT*%
%TO.N,Net-(D193-DOUT)*%
X182599999Y-153749999D03*
%TO.P,D193,3,VSS*%
%TO.N,GND*%
X187499999Y-153749999D03*
%TO.P,D193,4,DIN*%
%TO.N,Net-(D193-DIN)*%
X187499999Y-150449999D03*
%TD*%
%TO.P,D169,1,VDD*%
%TO.N,VDD*%
X271499999Y-112349999D03*
%TO.P,D169,2,DOUT*%
%TO.N,Net-(D169-DOUT)*%
X271499999Y-115649999D03*
%TO.P,D169,3,VSS*%
%TO.N,GND*%
X276399999Y-115649999D03*
%TO.P,D169,4,DIN*%
%TO.N,Net-(D168-DOUT)*%
X276399999Y-112349999D03*
%TD*%
%TO.P,D19,1,VDD*%
%TO.N,VDD*%
X106399999Y-74249999D03*
%TO.P,D19,2,DOUT*%
%TO.N,Net-(D19-DOUT)*%
X106399999Y-77549999D03*
%TO.P,D19,3,VSS*%
%TO.N,GND*%
X111299999Y-77549999D03*
%TO.P,D19,4,DIN*%
%TO.N,Net-(D18-DOUT)*%
X111299999Y-74249999D03*
%TD*%
%TO.P,D47,1,VDD*%
%TO.N,VDD*%
X93699999Y-112349999D03*
%TO.P,D47,2,DOUT*%
%TO.N,Net-(D47-DOUT)*%
X93699999Y-115649999D03*
%TO.P,D47,3,VSS*%
%TO.N,GND*%
X98599999Y-115649999D03*
%TO.P,D47,4,DIN*%
%TO.N,Net-(D46-DOUT)*%
X98599999Y-112349999D03*
%TD*%
%TO.P,D61,1,VDD*%
%TO.N,VDD*%
X119099999Y-137749999D03*
%TO.P,D61,2,DOUT*%
%TO.N,Net-(D61-DOUT)*%
X119099999Y-141049999D03*
%TO.P,D61,3,VSS*%
%TO.N,GND*%
X123999999Y-141049999D03*
%TO.P,D61,4,DIN*%
%TO.N,Net-(D60-DOUT)*%
X123999999Y-137749999D03*
%TD*%
%TO.P,D127,1,VDD*%
%TO.N,VDD*%
X93699999Y-239349999D03*
%TO.P,D127,2,DOUT*%
%TO.N,Net-(D127-DOUT)*%
X93699999Y-242649999D03*
%TO.P,D127,3,VSS*%
%TO.N,GND*%
X98599999Y-242649999D03*
%TO.P,D127,4,DIN*%
%TO.N,Net-(D126-DOUT)*%
X98599999Y-239349999D03*
%TD*%
%TO.P,D102,1,VDD*%
%TO.N,VDD*%
X144499999Y-201249999D03*
%TO.P,D102,2,DOUT*%
%TO.N,Net-(D102-DOUT)*%
X144499999Y-204549999D03*
%TO.P,D102,3,VSS*%
%TO.N,GND*%
X149399999Y-204549999D03*
%TO.P,D102,4,DIN*%
%TO.N,Net-(D101-DOUT)*%
X149399999Y-201249999D03*
%TD*%
%TO.P,D155,1,VDD*%
%TO.N,VDD*%
X246099999Y-86949999D03*
%TO.P,D155,2,DOUT*%
%TO.N,Net-(D155-DOUT)*%
X246099999Y-90249999D03*
%TO.P,D155,3,VSS*%
%TO.N,GND*%
X250999999Y-90249999D03*
%TO.P,D155,4,DIN*%
%TO.N,Net-(D154-DOUT)*%
X250999999Y-86949999D03*
%TD*%
%TO.P,D255,1,VDD*%
%TO.N,VDD*%
X195299999Y-239349999D03*
%TO.P,D255,2,DOUT*%
%TO.N,Net-(D255-DOUT)*%
X195299999Y-242649999D03*
%TO.P,D255,3,VSS*%
%TO.N,GND*%
X200199999Y-242649999D03*
%TO.P,D255,4,DIN*%
%TO.N,Net-(D254-DOUT)*%
X200199999Y-239349999D03*
%TD*%
%TO.P,D119,1,VDD*%
%TO.N,VDD*%
X157199999Y-226649999D03*
%TO.P,D119,2,DOUT*%
%TO.N,Net-(D119-DOUT)*%
X157199999Y-229949999D03*
%TO.P,D119,3,VSS*%
%TO.N,GND*%
X162099999Y-229949999D03*
%TO.P,D119,4,DIN*%
%TO.N,Net-(D118-DOUT)*%
X162099999Y-226649999D03*
%TD*%
%TO.P,D158,1,VDD*%
%TO.N,VDD*%
X207999999Y-86949999D03*
%TO.P,D158,2,DOUT*%
%TO.N,Net-(D158-DOUT)*%
X207999999Y-90249999D03*
%TO.P,D158,3,VSS*%
%TO.N,GND*%
X212899999Y-90249999D03*
%TO.P,D158,4,DIN*%
%TO.N,Net-(D157-DOUT)*%
X212899999Y-86949999D03*
%TD*%
%TO.P,D185,1,VDD*%
%TO.N,VDD*%
X271499999Y-137749999D03*
%TO.P,D185,2,DOUT*%
%TO.N,Net-(D185-DOUT)*%
X271499999Y-141049999D03*
%TO.P,D185,3,VSS*%
%TO.N,GND*%
X276399999Y-141049999D03*
%TO.P,D185,4,DIN*%
%TO.N,Net-(D184-DOUT)*%
X276399999Y-137749999D03*
%TD*%
%TO.P,D46,1,VDD*%
%TO.N,VDD*%
X106399999Y-112349999D03*
%TO.P,D46,2,DOUT*%
%TO.N,Net-(D46-DOUT)*%
X106399999Y-115649999D03*
%TO.P,D46,3,VSS*%
%TO.N,GND*%
X111299999Y-115649999D03*
%TO.P,D46,4,DIN*%
%TO.N,Net-(D45-DOUT)*%
X111299999Y-112349999D03*
%TD*%
%TO.P,D187,1,VDD*%
%TO.N,VDD*%
X246099999Y-137749999D03*
%TO.P,D187,2,DOUT*%
%TO.N,Net-(D187-DOUT)*%
X246099999Y-141049999D03*
%TO.P,D187,3,VSS*%
%TO.N,GND*%
X250999999Y-141049999D03*
%TO.P,D187,4,DIN*%
%TO.N,Net-(D186-DOUT)*%
X250999999Y-137749999D03*
%TD*%
%TO.P,D188,1,VDD*%
%TO.N,VDD*%
X233399999Y-137749999D03*
%TO.P,D188,2,DOUT*%
%TO.N,Net-(D188-DOUT)*%
X233399999Y-141049999D03*
%TO.P,D188,3,VSS*%
%TO.N,GND*%
X238299999Y-141049999D03*
%TO.P,D188,4,DIN*%
%TO.N,Net-(D187-DOUT)*%
X238299999Y-137749999D03*
%TD*%
%TO.P,D44,1,VDD*%
%TO.N,VDD*%
X131799999Y-112349999D03*
%TO.P,D44,2,DOUT*%
%TO.N,Net-(D44-DOUT)*%
X131799999Y-115649999D03*
%TO.P,D44,3,VSS*%
%TO.N,GND*%
X136699999Y-115649999D03*
%TO.P,D44,4,DIN*%
%TO.N,Net-(D43-DOUT)*%
X136699999Y-112349999D03*
%TD*%
%TO.P,D161,1,VDD*%
%TO.N,VDD*%
X182599999Y-99649999D03*
%TO.P,D161,2,DOUT*%
%TO.N,Net-(D161-DOUT)*%
X182599999Y-102949999D03*
%TO.P,D161,3,VSS*%
%TO.N,GND*%
X187499999Y-102949999D03*
%TO.P,D161,4,DIN*%
%TO.N,Net-(D160-DOUT)*%
X187499999Y-99649999D03*
%TD*%
%TO.P,D69,1,VDD*%
%TO.N,VDD*%
X131799999Y-150449999D03*
%TO.P,D69,2,DOUT*%
%TO.N,Net-(D69-DOUT)*%
X131799999Y-153749999D03*
%TO.P,D69,3,VSS*%
%TO.N,GND*%
X136699999Y-153749999D03*
%TO.P,D69,4,DIN*%
%TO.N,Net-(D68-DOUT)*%
X136699999Y-150449999D03*
%TD*%
%TO.P,D202,1,VDD*%
%TO.N,VDD*%
X258799999Y-163149999D03*
%TO.P,D202,2,DOUT*%
%TO.N,Net-(D202-DOUT)*%
X258799999Y-166449999D03*
%TO.P,D202,3,VSS*%
%TO.N,GND*%
X263699999Y-166449999D03*
%TO.P,D202,4,DIN*%
%TO.N,Net-(D201-DOUT)*%
X263699999Y-163149999D03*
%TD*%
%TO.P,D209,1,VDD*%
%TO.N,VDD*%
X182599999Y-175849999D03*
%TO.P,D209,2,DOUT*%
%TO.N,Net-(D209-DOUT)*%
X182599999Y-179149999D03*
%TO.P,D209,3,VSS*%
%TO.N,GND*%
X187499999Y-179149999D03*
%TO.P,D209,4,DIN*%
%TO.N,Net-(D208-DOUT)*%
X187499999Y-175849999D03*
%TD*%
%TO.P,D62,1,VDD*%
%TO.N,VDD*%
X106399999Y-137749999D03*
%TO.P,D62,2,DOUT*%
%TO.N,Net-(D62-DOUT)*%
X106399999Y-141049999D03*
%TO.P,D62,3,VSS*%
%TO.N,GND*%
X111299999Y-141049999D03*
%TO.P,D62,4,DIN*%
%TO.N,Net-(D61-DOUT)*%
X111299999Y-137749999D03*
%TD*%
%TO.P,D11,1,VDD*%
%TO.N,VDD*%
X144499999Y-61549999D03*
%TO.P,D11,2,DOUT*%
%TO.N,Net-(D11-DOUT)*%
X144499999Y-64849999D03*
%TO.P,D11,3,VSS*%
%TO.N,GND*%
X149399999Y-64849999D03*
%TO.P,D11,4,DIN*%
%TO.N,Net-(D10-DOUT)*%
X149399999Y-61549999D03*
%TD*%
%TO.P,D88,1,VDD*%
%TO.N,VDD*%
X169899999Y-175849999D03*
%TO.P,D88,2,DOUT*%
%TO.N,Net-(D88-DOUT)*%
X169899999Y-179149999D03*
%TO.P,D88,3,VSS*%
%TO.N,GND*%
X174799999Y-179149999D03*
%TO.P,D88,4,DIN*%
%TO.N,Net-(D87-DOUT)*%
X174799999Y-175849999D03*
%TD*%
%TO.P,D177,1,VDD*%
%TO.N,VDD*%
X182599999Y-125049999D03*
%TO.P,D177,2,DOUT*%
%TO.N,Net-(D177-DOUT)*%
X182599999Y-128349999D03*
%TO.P,D177,3,VSS*%
%TO.N,GND*%
X187499999Y-128349999D03*
%TO.P,D177,4,DIN*%
%TO.N,Net-(D176-DOUT)*%
X187499999Y-125049999D03*
%TD*%
%TO.P,D107,1,VDD*%
%TO.N,VDD*%
X144499999Y-213949999D03*
%TO.P,D107,2,DOUT*%
%TO.N,Net-(D107-DOUT)*%
X144499999Y-217249999D03*
%TO.P,D107,3,VSS*%
%TO.N,GND*%
X149399999Y-217249999D03*
%TO.P,D107,4,DIN*%
%TO.N,Net-(D106-DOUT)*%
X149399999Y-213949999D03*
%TD*%
%TO.P,D168,1,VDD*%
%TO.N,VDD*%
X271499999Y-99649999D03*
%TO.P,D168,2,DOUT*%
%TO.N,Net-(D168-DOUT)*%
X271499999Y-102949999D03*
%TO.P,D168,3,VSS*%
%TO.N,GND*%
X276399999Y-102949999D03*
%TO.P,D168,4,DIN*%
%TO.N,Net-(D167-DOUT)*%
X276399999Y-99649999D03*
%TD*%
%TO.P,D149,1,VDD*%
%TO.N,VDD*%
X233399999Y-74249999D03*
%TO.P,D149,2,DOUT*%
%TO.N,Net-(D149-DOUT)*%
X233399999Y-77549999D03*
%TO.P,D149,3,VSS*%
%TO.N,GND*%
X238299999Y-77549999D03*
%TO.P,D149,4,DIN*%
%TO.N,Net-(D148-DOUT)*%
X238299999Y-74249999D03*
%TD*%
%TO.P,D153,1,VDD*%
%TO.N,VDD*%
X271499999Y-86949999D03*
%TO.P,D153,2,DOUT*%
%TO.N,Net-(D153-DOUT)*%
X271499999Y-90249999D03*
%TO.P,D153,3,VSS*%
%TO.N,GND*%
X276399999Y-90249999D03*
%TO.P,D153,4,DIN*%
%TO.N,Net-(D152-DOUT)*%
X276399999Y-86949999D03*
%TD*%
%TO.P,D203,1,VDD*%
%TO.N,VDD*%
X246099999Y-163149999D03*
%TO.P,D203,2,DOUT*%
%TO.N,Net-(D203-DOUT)*%
X246099999Y-166449999D03*
%TO.P,D203,3,VSS*%
%TO.N,GND*%
X250999999Y-166449999D03*
%TO.P,D203,4,DIN*%
%TO.N,Net-(D202-DOUT)*%
X250999999Y-163149999D03*
%TD*%
%TO.P,D16,1,VDD*%
%TO.N,VDD*%
X80999999Y-61549999D03*
%TO.P,D16,2,DOUT*%
%TO.N,Net-(D16-DOUT)*%
X80999999Y-64849999D03*
%TO.P,D16,3,VSS*%
%TO.N,GND*%
X85899999Y-64849999D03*
%TO.P,D16,4,DIN*%
%TO.N,Net-(D15-DOUT)*%
X85899999Y-61549999D03*
%TD*%
%TO.P,D1,1,VDD*%
%TO.N,VDD*%
X80999999Y-48849999D03*
%TO.P,D1,2,DOUT*%
%TO.N,Net-(D1-DOUT)*%
X80999999Y-52149999D03*
%TO.P,D1,3,VSS*%
%TO.N,GND*%
X85899999Y-52149999D03*
%TO.P,D1,4,DIN*%
%TO.N,Net-(D1-DIN)*%
X85899999Y-48849999D03*
%TD*%
%TO.P,D118,1,VDD*%
%TO.N,VDD*%
X144499999Y-226649999D03*
%TO.P,D118,2,DOUT*%
%TO.N,Net-(D118-DOUT)*%
X144499999Y-229949999D03*
%TO.P,D118,3,VSS*%
%TO.N,GND*%
X149399999Y-229949999D03*
%TO.P,D118,4,DIN*%
%TO.N,Net-(D117-DOUT)*%
X149399999Y-226649999D03*
%TD*%
%TO.P,D162,1,VDD*%
%TO.N,VDD*%
X195299999Y-99649999D03*
%TO.P,D162,2,DOUT*%
%TO.N,Net-(D162-DOUT)*%
X195299999Y-102949999D03*
%TO.P,D162,3,VSS*%
%TO.N,GND*%
X200199999Y-102949999D03*
%TO.P,D162,4,DIN*%
%TO.N,Net-(D161-DOUT)*%
X200199999Y-99649999D03*
%TD*%
%TO.P,D142,1,VDD*%
%TO.N,VDD*%
X207999999Y-61549999D03*
%TO.P,D142,2,DOUT*%
%TO.N,Net-(D142-DOUT)*%
X207999999Y-64849999D03*
%TO.P,D142,3,VSS*%
%TO.N,GND*%
X212899999Y-64849999D03*
%TO.P,D142,4,DIN*%
%TO.N,Net-(D141-DOUT)*%
X212899999Y-61549999D03*
%TD*%
%TO.P,D68,1,VDD*%
%TO.N,VDD*%
X119099999Y-150449999D03*
%TO.P,D68,2,DOUT*%
%TO.N,Net-(D68-DOUT)*%
X119099999Y-153749999D03*
%TO.P,D68,3,VSS*%
%TO.N,GND*%
X123999999Y-153749999D03*
%TO.P,D68,4,DIN*%
%TO.N,Net-(D67-DOUT)*%
X123999999Y-150449999D03*
%TD*%
%TO.P,D213,1,VDD*%
%TO.N,VDD*%
X233399999Y-175849999D03*
%TO.P,D213,2,DOUT*%
%TO.N,Net-(D213-DOUT)*%
X233399999Y-179149999D03*
%TO.P,D213,3,VSS*%
%TO.N,GND*%
X238299999Y-179149999D03*
%TO.P,D213,4,DIN*%
%TO.N,Net-(D212-DOUT)*%
X238299999Y-175849999D03*
%TD*%
%TO.P,D53,1,VDD*%
%TO.N,VDD*%
X131799999Y-125049999D03*
%TO.P,D53,2,DOUT*%
%TO.N,Net-(D53-DOUT)*%
X131799999Y-128349999D03*
%TO.P,D53,3,VSS*%
%TO.N,GND*%
X136699999Y-128349999D03*
%TO.P,D53,4,DIN*%
%TO.N,Net-(D52-DOUT)*%
X136699999Y-125049999D03*
%TD*%
%TO.P,D5,1,VDD*%
%TO.N,VDD*%
X131799999Y-48849999D03*
%TO.P,D5,2,DOUT*%
%TO.N,Net-(D5-DOUT)*%
X131799999Y-52149999D03*
%TO.P,D5,3,VSS*%
%TO.N,GND*%
X136699999Y-52149999D03*
%TO.P,D5,4,DIN*%
%TO.N,Net-(D4-DOUT)*%
X136699999Y-48849999D03*
%TD*%
%TO.P,D231,1,VDD*%
%TO.N,VDD*%
X258799999Y-201249999D03*
%TO.P,D231,2,DOUT*%
%TO.N,Net-(D231-DOUT)*%
X258799999Y-204549999D03*
%TO.P,D231,3,VSS*%
%TO.N,GND*%
X263699999Y-204549999D03*
%TO.P,D231,4,DIN*%
%TO.N,Net-(D230-DOUT)*%
X263699999Y-201249999D03*
%TD*%
%TO.P,D217,1,VDD*%
%TO.N,VDD*%
X271499999Y-188549999D03*
%TO.P,D217,2,DOUT*%
%TO.N,Net-(D217-DOUT)*%
X271499999Y-191849999D03*
%TO.P,D217,3,VSS*%
%TO.N,GND*%
X276399999Y-191849999D03*
%TO.P,D217,4,DIN*%
%TO.N,Net-(D216-DOUT)*%
X276399999Y-188549999D03*
%TD*%
%TO.P,D232,1,VDD*%
%TO.N,VDD*%
X271499999Y-201249999D03*
%TO.P,D232,2,DOUT*%
%TO.N,Net-(D232-DOUT)*%
X271499999Y-204549999D03*
%TO.P,D232,3,VSS*%
%TO.N,GND*%
X276399999Y-204549999D03*
%TO.P,D232,4,DIN*%
%TO.N,Net-(D231-DOUT)*%
X276399999Y-201249999D03*
%TD*%
%TO.P,D212,1,VDD*%
%TO.N,VDD*%
X220699999Y-175849999D03*
%TO.P,D212,2,DOUT*%
%TO.N,Net-(D212-DOUT)*%
X220699999Y-179149999D03*
%TO.P,D212,3,VSS*%
%TO.N,GND*%
X225599999Y-179149999D03*
%TO.P,D212,4,DIN*%
%TO.N,Net-(D211-DOUT)*%
X225599999Y-175849999D03*
%TD*%
%TO.P,D59,1,VDD*%
%TO.N,VDD*%
X144499999Y-137749999D03*
%TO.P,D59,2,DOUT*%
%TO.N,Net-(D59-DOUT)*%
X144499999Y-141049999D03*
%TO.P,D59,3,VSS*%
%TO.N,GND*%
X149399999Y-141049999D03*
%TO.P,D59,4,DIN*%
%TO.N,Net-(D58-DOUT)*%
X149399999Y-137749999D03*
%TD*%
%TO.P,D251,1,VDD*%
%TO.N,VDD*%
X246099999Y-239349999D03*
%TO.P,D251,2,DOUT*%
%TO.N,Net-(D251-DOUT)*%
X246099999Y-242649999D03*
%TO.P,D251,3,VSS*%
%TO.N,GND*%
X250999999Y-242649999D03*
%TO.P,D251,4,DIN*%
%TO.N,Net-(D250-DOUT)*%
X250999999Y-239349999D03*
%TD*%
%TO.P,D159,1,VDD*%
%TO.N,VDD*%
X195299999Y-86949999D03*
%TO.P,D159,2,DOUT*%
%TO.N,Net-(D159-DOUT)*%
X195299999Y-90249999D03*
%TO.P,D159,3,VSS*%
%TO.N,GND*%
X200199999Y-90249999D03*
%TO.P,D159,4,DIN*%
%TO.N,Net-(D158-DOUT)*%
X200199999Y-86949999D03*
%TD*%
%TO.P,D223,1,VDD*%
%TO.N,VDD*%
X195299999Y-188549999D03*
%TO.P,D223,2,DOUT*%
%TO.N,Net-(D223-DOUT)*%
X195299999Y-191849999D03*
%TO.P,D223,3,VSS*%
%TO.N,GND*%
X200199999Y-191849999D03*
%TO.P,D223,4,DIN*%
%TO.N,Net-(D222-DOUT)*%
X200199999Y-188549999D03*
%TD*%
%TO.P,D211,1,VDD*%
%TO.N,VDD*%
X207999999Y-175849999D03*
%TO.P,D211,2,DOUT*%
%TO.N,Net-(D211-DOUT)*%
X207999999Y-179149999D03*
%TO.P,D211,3,VSS*%
%TO.N,GND*%
X212899999Y-179149999D03*
%TO.P,D211,4,DIN*%
%TO.N,Net-(D210-DOUT)*%
X212899999Y-175849999D03*
%TD*%
%TO.P,D104,1,VDD*%
%TO.N,VDD*%
X169899999Y-201249999D03*
%TO.P,D104,2,DOUT*%
%TO.N,Net-(D104-DOUT)*%
X169899999Y-204549999D03*
%TO.P,D104,3,VSS*%
%TO.N,GND*%
X174799999Y-204549999D03*
%TO.P,D104,4,DIN*%
%TO.N,Net-(D103-DOUT)*%
X174799999Y-201249999D03*
%TD*%
%TO.P,D197,1,VDD*%
%TO.N,VDD*%
X233399999Y-150449999D03*
%TO.P,D197,2,DOUT*%
%TO.N,Net-(D197-DOUT)*%
X233399999Y-153749999D03*
%TO.P,D197,3,VSS*%
%TO.N,GND*%
X238299999Y-153749999D03*
%TO.P,D197,4,DIN*%
%TO.N,Net-(D196-DOUT)*%
X238299999Y-150449999D03*
%TD*%
%TO.P,D10,1,VDD*%
%TO.N,VDD*%
X157199999Y-61549999D03*
%TO.P,D10,2,DOUT*%
%TO.N,Net-(D10-DOUT)*%
X157199999Y-64849999D03*
%TO.P,D10,3,VSS*%
%TO.N,GND*%
X162099999Y-64849999D03*
%TO.P,D10,4,DIN*%
%TO.N,Net-(D10-DIN)*%
X162099999Y-61549999D03*
%TD*%
%TO.P,D152,1,VDD*%
%TO.N,VDD*%
X271499999Y-74249999D03*
%TO.P,D152,2,DOUT*%
%TO.N,Net-(D152-DOUT)*%
X271499999Y-77549999D03*
%TO.P,D152,3,VSS*%
%TO.N,GND*%
X276399999Y-77549999D03*
%TO.P,D152,4,DIN*%
%TO.N,Net-(D151-DOUT)*%
X276399999Y-74249999D03*
%TD*%
%TO.P,D242,1,VDD*%
%TO.N,VDD*%
X195299999Y-226649999D03*
%TO.P,D242,2,DOUT*%
%TO.N,Net-(D242-DOUT)*%
X195299999Y-229949999D03*
%TO.P,D242,3,VSS*%
%TO.N,GND*%
X200199999Y-229949999D03*
%TO.P,D242,4,DIN*%
%TO.N,Net-(D241-DOUT)*%
X200199999Y-226649999D03*
%TD*%
%TO.P,D243,1,VDD*%
%TO.N,VDD*%
X207999999Y-226649999D03*
%TO.P,D243,2,DOUT*%
%TO.N,Net-(D243-DOUT)*%
X207999999Y-229949999D03*
%TO.P,D243,3,VSS*%
%TO.N,GND*%
X212899999Y-229949999D03*
%TO.P,D243,4,DIN*%
%TO.N,Net-(D242-DOUT)*%
X212899999Y-226649999D03*
%TD*%
%TO.P,D253,1,VDD*%
%TO.N,VDD*%
X220699999Y-239349999D03*
%TO.P,D253,2,DOUT*%
%TO.N,Net-(D253-DOUT)*%
X220699999Y-242649999D03*
%TO.P,D253,3,VSS*%
%TO.N,GND*%
X225599999Y-242649999D03*
%TO.P,D253,4,DIN*%
%TO.N,Net-(D252-DOUT)*%
X225599999Y-239349999D03*
%TD*%
%TO.P,D60,1,VDD*%
%TO.N,VDD*%
X131799999Y-137749999D03*
%TO.P,D60,2,DOUT*%
%TO.N,Net-(D60-DOUT)*%
X131799999Y-141049999D03*
%TO.P,D60,3,VSS*%
%TO.N,GND*%
X136699999Y-141049999D03*
%TO.P,D60,4,DIN*%
%TO.N,Net-(D59-DOUT)*%
X136699999Y-137749999D03*
%TD*%
%TO.P,D65,1,VDD*%
%TO.N,VDD*%
X80999999Y-150449999D03*
%TO.P,D65,2,DOUT*%
%TO.N,Net-(D65-DOUT)*%
X80999999Y-153749999D03*
%TO.P,D65,3,VSS*%
%TO.N,GND*%
X85899999Y-153749999D03*
%TO.P,D65,4,DIN*%
%TO.N,Net-(D65-DIN)*%
X85899999Y-150449999D03*
%TD*%
%TO.P,D238,1,VDD*%
%TO.N,VDD*%
X207999999Y-213949999D03*
%TO.P,D238,2,DOUT*%
%TO.N,Net-(D238-DOUT)*%
X207999999Y-217249999D03*
%TO.P,D238,3,VSS*%
%TO.N,GND*%
X212899999Y-217249999D03*
%TO.P,D238,4,DIN*%
%TO.N,Net-(D237-DOUT)*%
X212899999Y-213949999D03*
%TD*%
%TO.P,D91,1,VDD*%
%TO.N,VDD*%
X144499999Y-188549999D03*
%TO.P,D91,2,DOUT*%
%TO.N,Net-(D91-DOUT)*%
X144499999Y-191849999D03*
%TO.P,D91,3,VSS*%
%TO.N,GND*%
X149399999Y-191849999D03*
%TO.P,D91,4,DIN*%
%TO.N,Net-(D90-DOUT)*%
X149399999Y-188549999D03*
%TD*%
%TO.P,D228,1,VDD*%
%TO.N,VDD*%
X220699999Y-201249999D03*
%TO.P,D228,2,DOUT*%
%TO.N,Net-(D228-DOUT)*%
X220699999Y-204549999D03*
%TO.P,D228,3,VSS*%
%TO.N,GND*%
X225599999Y-204549999D03*
%TO.P,D228,4,DIN*%
%TO.N,Net-(D227-DOUT)*%
X225599999Y-201249999D03*
%TD*%
%TO.P,D14,1,VDD*%
%TO.N,VDD*%
X106399999Y-61549999D03*
%TO.P,D14,2,DOUT*%
%TO.N,Net-(D14-DOUT)*%
X106399999Y-64849999D03*
%TO.P,D14,3,VSS*%
%TO.N,GND*%
X111299999Y-64849999D03*
%TO.P,D14,4,DIN*%
%TO.N,Net-(D13-DOUT)*%
X111299999Y-61549999D03*
%TD*%
%TO.P,D200,1,VDD*%
%TO.N,VDD*%
X271499999Y-150449999D03*
%TO.P,D200,2,DOUT*%
%TO.N,Net-(D200-DOUT)*%
X271499999Y-153749999D03*
%TO.P,D200,3,VSS*%
%TO.N,GND*%
X276399999Y-153749999D03*
%TO.P,D200,4,DIN*%
%TO.N,Net-(D199-DOUT)*%
X276399999Y-150449999D03*
%TD*%
%TO.P,D136,1,VDD*%
%TO.N,VDD*%
X271499999Y-48849999D03*
%TO.P,D136,2,DOUT*%
%TO.N,Net-(D136-DOUT)*%
X271499999Y-52149999D03*
%TO.P,D136,3,VSS*%
%TO.N,GND*%
X276399999Y-52149999D03*
%TO.P,D136,4,DIN*%
%TO.N,Net-(D135-DOUT)*%
X276399999Y-48849999D03*
%TD*%
%TO.P,D254,1,VDD*%
%TO.N,VDD*%
X207999999Y-239349999D03*
%TO.P,D254,2,DOUT*%
%TO.N,Net-(D254-DOUT)*%
X207999999Y-242649999D03*
%TO.P,D254,3,VSS*%
%TO.N,GND*%
X212899999Y-242649999D03*
%TO.P,D254,4,DIN*%
%TO.N,Net-(D253-DOUT)*%
X212899999Y-239349999D03*
%TD*%
%TO.P,D73,1,VDD*%
%TO.N,VDD*%
X169899999Y-163149999D03*
%TO.P,D73,2,DOUT*%
%TO.N,Net-(D73-DOUT)*%
X169899999Y-166449999D03*
%TO.P,D73,3,VSS*%
%TO.N,GND*%
X174799999Y-166449999D03*
%TO.P,D73,4,DIN*%
%TO.N,Net-(D72-DOUT)*%
X174799999Y-163149999D03*
%TD*%
%TO.P,D112,1,VDD*%
%TO.N,VDD*%
X80999999Y-213949999D03*
%TO.P,D112,2,DOUT*%
%TO.N,Net-(D112-DOUT)*%
X80999999Y-217249999D03*
%TO.P,D112,3,VSS*%
%TO.N,GND*%
X85899999Y-217249999D03*
%TO.P,D112,4,DIN*%
%TO.N,Net-(D111-DOUT)*%
X85899999Y-213949999D03*
%TD*%
%TO.P,D8,1,VDD*%
%TO.N,VDD*%
X169899999Y-48849999D03*
%TO.P,D8,2,DOUT*%
%TO.N,Net-(D8-DOUT)*%
X169899999Y-52149999D03*
%TO.P,D8,3,VSS*%
%TO.N,GND*%
X174799999Y-52149999D03*
%TO.P,D8,4,DIN*%
%TO.N,Net-(D7-DOUT)*%
X174799999Y-48849999D03*
%TD*%
%TO.P,D34,1,VDD*%
%TO.N,VDD*%
X93699999Y-99649999D03*
%TO.P,D34,2,DOUT*%
%TO.N,Net-(D34-DOUT)*%
X93699999Y-102949999D03*
%TO.P,D34,3,VSS*%
%TO.N,GND*%
X98599999Y-102949999D03*
%TO.P,D34,4,DIN*%
%TO.N,Net-(D33-DOUT)*%
X98599999Y-99649999D03*
%TD*%
%TO.P,D121,1,VDD*%
%TO.N,VDD*%
X169899999Y-239349999D03*
%TO.P,D121,2,DOUT*%
%TO.N,Net-(D121-DOUT)*%
X169899999Y-242649999D03*
%TO.P,D121,3,VSS*%
%TO.N,GND*%
X174799999Y-242649999D03*
%TO.P,D121,4,DIN*%
%TO.N,Net-(D120-DOUT)*%
X174799999Y-239349999D03*
%TD*%
%TO.P,D226,1,VDD*%
%TO.N,VDD*%
X195299999Y-201249999D03*
%TO.P,D226,2,DOUT*%
%TO.N,Net-(D226-DOUT)*%
X195299999Y-204549999D03*
%TO.P,D226,3,VSS*%
%TO.N,GND*%
X200199999Y-204549999D03*
%TO.P,D226,4,DIN*%
%TO.N,Net-(D225-DOUT)*%
X200199999Y-201249999D03*
%TD*%
%TO.P,D150,1,VDD*%
%TO.N,VDD*%
X246099999Y-74249999D03*
%TO.P,D150,2,DOUT*%
%TO.N,Net-(D150-DOUT)*%
X246099999Y-77549999D03*
%TO.P,D150,3,VSS*%
%TO.N,GND*%
X250999999Y-77549999D03*
%TO.P,D150,4,DIN*%
%TO.N,Net-(D149-DOUT)*%
X250999999Y-74249999D03*
%TD*%
%TO.P,D224,1,VDD*%
%TO.N,VDD*%
X182599999Y-188549999D03*
%TO.P,D224,2,DOUT*%
%TO.N,Net-(D224-DOUT)*%
X182599999Y-191849999D03*
%TO.P,D224,3,VSS*%
%TO.N,GND*%
X187499999Y-191849999D03*
%TO.P,D224,4,DIN*%
%TO.N,Net-(D223-DOUT)*%
X187499999Y-188549999D03*
%TD*%
%TO.P,D156,1,VDD*%
%TO.N,VDD*%
X233399999Y-86949999D03*
%TO.P,D156,2,DOUT*%
%TO.N,Net-(D156-DOUT)*%
X233399999Y-90249999D03*
%TO.P,D156,3,VSS*%
%TO.N,GND*%
X238299999Y-90249999D03*
%TO.P,D156,4,DIN*%
%TO.N,Net-(D155-DOUT)*%
X238299999Y-86949999D03*
%TD*%
%TO.P,D154,1,VDD*%
%TO.N,VDD*%
X258799999Y-86949999D03*
%TO.P,D154,2,DOUT*%
%TO.N,Net-(D154-DOUT)*%
X258799999Y-90249999D03*
%TO.P,D154,3,VSS*%
%TO.N,GND*%
X263699999Y-90249999D03*
%TO.P,D154,4,DIN*%
%TO.N,Net-(D153-DOUT)*%
X263699999Y-86949999D03*
%TD*%
%TO.P,D55,1,VDD*%
%TO.N,VDD*%
X157199999Y-125049999D03*
%TO.P,D55,2,DOUT*%
%TO.N,Net-(D55-DOUT)*%
X157199999Y-128349999D03*
%TO.P,D55,3,VSS*%
%TO.N,GND*%
X162099999Y-128349999D03*
%TO.P,D55,4,DIN*%
%TO.N,Net-(D54-DOUT)*%
X162099999Y-125049999D03*
%TD*%
%TO.P,D64,1,VDD*%
%TO.N,VDD*%
X80999999Y-137749999D03*
%TO.P,D64,2,DOUT*%
%TO.N,unconnected-(D64-DOUT-Pad2)*%
X80999999Y-141049999D03*
%TO.P,D64,3,VSS*%
%TO.N,GND*%
X85899999Y-141049999D03*
%TO.P,D64,4,DIN*%
%TO.N,Net-(D63-DOUT)*%
X85899999Y-137749999D03*
%TD*%
D16*
%TO.P,REF\u002A\u002A,1*%
%TO.N,GND*%
X281000000Y-45000000D03*
%TD*%
D10*
%TO.P,D120,1,VDD*%
%TO.N,VDD*%
X169899999Y-226649999D03*
%TO.P,D120,2,DOUT*%
%TO.N,Net-(D120-DOUT)*%
X169899999Y-229949999D03*
%TO.P,D120,3,VSS*%
%TO.N,GND*%
X174799999Y-229949999D03*
%TO.P,D120,4,DIN*%
%TO.N,Net-(D119-DOUT)*%
X174799999Y-226649999D03*
%TD*%
%TO.P,D201,1,VDD*%
%TO.N,VDD*%
X271499999Y-163149999D03*
%TO.P,D201,2,DOUT*%
%TO.N,Net-(D201-DOUT)*%
X271499999Y-166449999D03*
%TO.P,D201,3,VSS*%
%TO.N,GND*%
X276399999Y-166449999D03*
%TO.P,D201,4,DIN*%
%TO.N,Net-(D200-DOUT)*%
X276399999Y-163149999D03*
%TD*%
%TO.P,D51,1,VDD*%
%TO.N,VDD*%
X106399999Y-125049999D03*
%TO.P,D51,2,DOUT*%
%TO.N,Net-(D51-DOUT)*%
X106399999Y-128349999D03*
%TO.P,D51,3,VSS*%
%TO.N,GND*%
X111299999Y-128349999D03*
%TO.P,D51,4,DIN*%
%TO.N,Net-(D50-DOUT)*%
X111299999Y-125049999D03*
%TD*%
%TO.P,D230,1,VDD*%
%TO.N,VDD*%
X246099999Y-201249999D03*
%TO.P,D230,2,DOUT*%
%TO.N,Net-(D230-DOUT)*%
X246099999Y-204549999D03*
%TO.P,D230,3,VSS*%
%TO.N,GND*%
X250999999Y-204549999D03*
%TO.P,D230,4,DIN*%
%TO.N,Net-(D229-DOUT)*%
X250999999Y-201249999D03*
%TD*%
%TO.P,D139,1,VDD*%
%TO.N,VDD*%
X246099999Y-61549999D03*
%TO.P,D139,2,DOUT*%
%TO.N,Net-(D139-DOUT)*%
X246099999Y-64849999D03*
%TO.P,D139,3,VSS*%
%TO.N,GND*%
X250999999Y-64849999D03*
%TO.P,D139,4,DIN*%
%TO.N,Net-(D138-DOUT)*%
X250999999Y-61549999D03*
%TD*%
%TO.P,D143,1,VDD*%
%TO.N,VDD*%
X195299999Y-61549999D03*
%TO.P,D143,2,DOUT*%
%TO.N,Net-(D143-DOUT)*%
X195299999Y-64849999D03*
%TO.P,D143,3,VSS*%
%TO.N,GND*%
X200199999Y-64849999D03*
%TO.P,D143,4,DIN*%
%TO.N,Net-(D142-DOUT)*%
X200199999Y-61549999D03*
%TD*%
%TO.P,D113,1,VDD*%
%TO.N,VDD*%
X80999999Y-226649999D03*
%TO.P,D113,2,DOUT*%
%TO.N,Net-(D113-DOUT)*%
X80999999Y-229949999D03*
%TO.P,D113,3,VSS*%
%TO.N,GND*%
X85899999Y-229949999D03*
%TO.P,D113,4,DIN*%
%TO.N,Net-(D112-DOUT)*%
X85899999Y-226649999D03*
%TD*%
%TO.P,D100,1,VDD*%
%TO.N,VDD*%
X119099999Y-201249999D03*
%TO.P,D100,2,DOUT*%
%TO.N,Net-(D100-DOUT)*%
X119099999Y-204549999D03*
%TO.P,D100,3,VSS*%
%TO.N,GND*%
X123999999Y-204549999D03*
%TO.P,D100,4,DIN*%
%TO.N,Net-(D100-DIN)*%
X123999999Y-201249999D03*
%TD*%
%TO.P,D192,1,VDD*%
%TO.N,VDD*%
X182599999Y-137749999D03*
%TO.P,D192,2,DOUT*%
%TO.N,unconnected-(D192-DOUT-Pad2)*%
X182599999Y-141049999D03*
%TO.P,D192,3,VSS*%
%TO.N,GND*%
X187499999Y-141049999D03*
%TO.P,D192,4,DIN*%
%TO.N,Net-(D191-DOUT)*%
X187499999Y-137749999D03*
%TD*%
D16*
%TO.P,REF\u002A\u002A,1*%
%TO.N,GND*%
X281000000Y-249000000D03*
%TD*%
D10*
%TO.P,D15,1,VDD*%
%TO.N,VDD*%
X93699999Y-61549999D03*
%TO.P,D15,2,DOUT*%
%TO.N,Net-(D15-DOUT)*%
X93699999Y-64849999D03*
%TO.P,D15,3,VSS*%
%TO.N,GND*%
X98599999Y-64849999D03*
%TO.P,D15,4,DIN*%
%TO.N,Net-(D14-DOUT)*%
X98599999Y-61549999D03*
%TD*%
%TO.P,D176,1,VDD*%
%TO.N,VDD*%
X182599999Y-112349999D03*
%TO.P,D176,2,DOUT*%
%TO.N,Net-(D176-DOUT)*%
X182599999Y-115649999D03*
%TO.P,D176,3,VSS*%
%TO.N,GND*%
X187499999Y-115649999D03*
%TO.P,D176,4,DIN*%
%TO.N,Net-(D175-DOUT)*%
X187499999Y-112349999D03*
%TD*%
%TO.P,D57,1,VDD*%
%TO.N,VDD*%
X169899999Y-137749999D03*
%TO.P,D57,2,DOUT*%
%TO.N,Net-(D57-DOUT)*%
X169899999Y-141049999D03*
%TO.P,D57,3,VSS*%
%TO.N,GND*%
X174799999Y-141049999D03*
%TO.P,D57,4,DIN*%
%TO.N,Net-(D56-DOUT)*%
X174799999Y-137749999D03*
%TD*%
%TO.P,D248,1,VDD*%
%TO.N,VDD*%
X271499999Y-226649999D03*
%TO.P,D248,2,DOUT*%
%TO.N,Net-(D248-DOUT)*%
X271499999Y-229949999D03*
%TO.P,D248,3,VSS*%
%TO.N,GND*%
X276399999Y-229949999D03*
%TO.P,D248,4,DIN*%
%TO.N,Net-(D247-DOUT)*%
X276399999Y-226649999D03*
%TD*%
%TO.P,D236,1,VDD*%
%TO.N,VDD*%
X233399999Y-213949999D03*
%TO.P,D236,2,DOUT*%
%TO.N,Net-(D236-DOUT)*%
X233399999Y-217249999D03*
%TO.P,D236,3,VSS*%
%TO.N,GND*%
X238299999Y-217249999D03*
%TO.P,D236,4,DIN*%
%TO.N,Net-(D235-DOUT)*%
X238299999Y-213949999D03*
%TD*%
%TO.P,D245,1,VDD*%
%TO.N,VDD*%
X233399999Y-226649999D03*
%TO.P,D245,2,DOUT*%
%TO.N,Net-(D245-DOUT)*%
X233399999Y-229949999D03*
%TO.P,D245,3,VSS*%
%TO.N,GND*%
X238299999Y-229949999D03*
%TO.P,D245,4,DIN*%
%TO.N,Net-(D244-DOUT)*%
X238299999Y-226649999D03*
%TD*%
%TO.P,D233,1,VDD*%
%TO.N,VDD*%
X271499999Y-213949999D03*
%TO.P,D233,2,DOUT*%
%TO.N,Net-(D233-DOUT)*%
X271499999Y-217249999D03*
%TO.P,D233,3,VSS*%
%TO.N,GND*%
X276399999Y-217249999D03*
%TO.P,D233,4,DIN*%
%TO.N,Net-(D232-DOUT)*%
X276399999Y-213949999D03*
%TD*%
%TO.P,D178,1,VDD*%
%TO.N,VDD*%
X195299999Y-125049999D03*
%TO.P,D178,2,DOUT*%
%TO.N,Net-(D178-DOUT)*%
X195299999Y-128349999D03*
%TO.P,D178,3,VSS*%
%TO.N,GND*%
X200199999Y-128349999D03*
%TO.P,D178,4,DIN*%
%TO.N,Net-(D177-DOUT)*%
X200199999Y-125049999D03*
%TD*%
%TO.P,D145,1,VDD*%
%TO.N,VDD*%
X182599999Y-74249999D03*
%TO.P,D145,2,DOUT*%
%TO.N,Net-(D145-DOUT)*%
X182599999Y-77549999D03*
%TO.P,D145,3,VSS*%
%TO.N,GND*%
X187499999Y-77549999D03*
%TO.P,D145,4,DIN*%
%TO.N,Net-(D144-DOUT)*%
X187499999Y-74249999D03*
%TD*%
%TO.P,D84,1,VDD*%
%TO.N,VDD*%
X119099999Y-175849999D03*
%TO.P,D84,2,DOUT*%
%TO.N,Net-(D84-DOUT)*%
X119099999Y-179149999D03*
%TO.P,D84,3,VSS*%
%TO.N,GND*%
X123999999Y-179149999D03*
%TO.P,D84,4,DIN*%
%TO.N,Net-(D83-DOUT)*%
X123999999Y-175849999D03*
%TD*%
%TO.P,D32,1,VDD*%
%TO.N,VDD*%
X80999999Y-86949999D03*
%TO.P,D32,2,DOUT*%
%TO.N,Net-(D32-DOUT)*%
X80999999Y-90249999D03*
%TO.P,D32,3,VSS*%
%TO.N,GND*%
X85899999Y-90249999D03*
%TO.P,D32,4,DIN*%
%TO.N,Net-(D31-DOUT)*%
X85899999Y-86949999D03*
%TD*%
%TO.P,D86,1,VDD*%
%TO.N,VDD*%
X144499999Y-175849999D03*
%TO.P,D86,2,DOUT*%
%TO.N,Net-(D86-DOUT)*%
X144499999Y-179149999D03*
%TO.P,D86,3,VSS*%
%TO.N,GND*%
X149399999Y-179149999D03*
%TO.P,D86,4,DIN*%
%TO.N,Net-(D85-DOUT)*%
X149399999Y-175849999D03*
%TD*%
%TO.P,D49,1,VDD*%
%TO.N,VDD*%
X80999999Y-125049999D03*
%TO.P,D49,2,DOUT*%
%TO.N,Net-(D49-DOUT)*%
X80999999Y-128349999D03*
%TO.P,D49,3,VSS*%
%TO.N,GND*%
X85899999Y-128349999D03*
%TO.P,D49,4,DIN*%
%TO.N,Net-(D48-DOUT)*%
X85899999Y-125049999D03*
%TD*%
%TO.P,D225,1,VDD*%
%TO.N,VDD*%
X182599999Y-201249999D03*
%TO.P,D225,2,DOUT*%
%TO.N,Net-(D225-DOUT)*%
X182599999Y-204549999D03*
%TO.P,D225,3,VSS*%
%TO.N,GND*%
X187499999Y-204549999D03*
%TO.P,D225,4,DIN*%
%TO.N,Net-(D224-DOUT)*%
X187499999Y-201249999D03*
%TD*%
%TO.P,D179,1,VDD*%
%TO.N,VDD*%
X207999999Y-125049999D03*
%TO.P,D179,2,DOUT*%
%TO.N,Net-(D179-DOUT)*%
X207999999Y-128349999D03*
%TO.P,D179,3,VSS*%
%TO.N,GND*%
X212899999Y-128349999D03*
%TO.P,D179,4,DIN*%
%TO.N,Net-(D178-DOUT)*%
X212899999Y-125049999D03*
%TD*%
%TO.P,D6,1,VDD*%
%TO.N,VDD*%
X144499999Y-48849999D03*
%TO.P,D6,2,DOUT*%
%TO.N,Net-(D6-DOUT)*%
X144499999Y-52149999D03*
%TO.P,D6,3,VSS*%
%TO.N,GND*%
X149399999Y-52149999D03*
%TO.P,D6,4,DIN*%
%TO.N,Net-(D5-DOUT)*%
X149399999Y-48849999D03*
%TD*%
%TO.P,D77,1,VDD*%
%TO.N,VDD*%
X119099999Y-163149999D03*
%TO.P,D77,2,DOUT*%
%TO.N,Net-(D77-DOUT)*%
X119099999Y-166449999D03*
%TO.P,D77,3,VSS*%
%TO.N,GND*%
X123999999Y-166449999D03*
%TO.P,D77,4,DIN*%
%TO.N,Net-(D76-DOUT)*%
X123999999Y-163149999D03*
%TD*%
%TO.P,D237,1,VDD*%
%TO.N,VDD*%
X220699999Y-213949999D03*
%TO.P,D237,2,DOUT*%
%TO.N,Net-(D237-DOUT)*%
X220699999Y-217249999D03*
%TO.P,D237,3,VSS*%
%TO.N,GND*%
X225599999Y-217249999D03*
%TO.P,D237,4,DIN*%
%TO.N,Net-(D236-DOUT)*%
X225599999Y-213949999D03*
%TD*%
%TO.P,D81,1,VDD*%
%TO.N,VDD*%
X80999999Y-175849999D03*
%TO.P,D81,2,DOUT*%
%TO.N,Net-(D81-DOUT)*%
X80999999Y-179149999D03*
%TO.P,D81,3,VSS*%
%TO.N,GND*%
X85899999Y-179149999D03*
%TO.P,D81,4,DIN*%
%TO.N,Net-(D80-DOUT)*%
X85899999Y-175849999D03*
%TD*%
%TO.P,D23,1,VDD*%
%TO.N,VDD*%
X157199999Y-74249999D03*
%TO.P,D23,2,DOUT*%
%TO.N,Net-(D23-DOUT)*%
X157199999Y-77549999D03*
%TO.P,D23,3,VSS*%
%TO.N,GND*%
X162099999Y-77549999D03*
%TO.P,D23,4,DIN*%
%TO.N,Net-(D22-DOUT)*%
X162099999Y-74249999D03*
%TD*%
%TO.P,D50,1,VDD*%
%TO.N,VDD*%
X93699999Y-125049999D03*
%TO.P,D50,2,DOUT*%
%TO.N,Net-(D50-DOUT)*%
X93699999Y-128349999D03*
%TO.P,D50,3,VSS*%
%TO.N,GND*%
X98599999Y-128349999D03*
%TO.P,D50,4,DIN*%
%TO.N,Net-(D49-DOUT)*%
X98599999Y-125049999D03*
%TD*%
%TO.P,D66,1,VDD*%
%TO.N,VDD*%
X93699999Y-150449999D03*
%TO.P,D66,2,DOUT*%
%TO.N,Net-(D66-DOUT)*%
X93699999Y-153749999D03*
%TO.P,D66,3,VSS*%
%TO.N,GND*%
X98599999Y-153749999D03*
%TO.P,D66,4,DIN*%
%TO.N,Net-(D65-DOUT)*%
X98599999Y-150449999D03*
%TD*%
%TO.P,D247,1,VDD*%
%TO.N,VDD*%
X258799999Y-226649999D03*
%TO.P,D247,2,DOUT*%
%TO.N,Net-(D247-DOUT)*%
X258799999Y-229949999D03*
%TO.P,D247,3,VSS*%
%TO.N,GND*%
X263699999Y-229949999D03*
%TO.P,D247,4,DIN*%
%TO.N,Net-(D246-DOUT)*%
X263699999Y-226649999D03*
%TD*%
%TO.P,D105,1,VDD*%
%TO.N,VDD*%
X169899999Y-213949999D03*
%TO.P,D105,2,DOUT*%
%TO.N,Net-(D105-DOUT)*%
X169899999Y-217249999D03*
%TO.P,D105,3,VSS*%
%TO.N,GND*%
X174799999Y-217249999D03*
%TO.P,D105,4,DIN*%
%TO.N,Net-(D104-DOUT)*%
X174799999Y-213949999D03*
%TD*%
%TO.P,D115,1,VDD*%
%TO.N,VDD*%
X106399999Y-226649999D03*
%TO.P,D115,2,DOUT*%
%TO.N,Net-(D115-DOUT)*%
X106399999Y-229949999D03*
%TO.P,D115,3,VSS*%
%TO.N,GND*%
X111299999Y-229949999D03*
%TO.P,D115,4,DIN*%
%TO.N,Net-(D114-DOUT)*%
X111299999Y-226649999D03*
%TD*%
%TO.P,D205,1,VDD*%
%TO.N,VDD*%
X220699999Y-163149999D03*
%TO.P,D205,2,DOUT*%
%TO.N,Net-(D205-DOUT)*%
X220699999Y-166449999D03*
%TO.P,D205,3,VSS*%
%TO.N,GND*%
X225599999Y-166449999D03*
%TO.P,D205,4,DIN*%
%TO.N,Net-(D204-DOUT)*%
X225599999Y-163149999D03*
%TD*%
%TO.P,D114,1,VDD*%
%TO.N,VDD*%
X93699999Y-226649999D03*
%TO.P,D114,2,DOUT*%
%TO.N,Net-(D114-DOUT)*%
X93699999Y-229949999D03*
%TO.P,D114,3,VSS*%
%TO.N,GND*%
X98599999Y-229949999D03*
%TO.P,D114,4,DIN*%
%TO.N,Net-(D113-DOUT)*%
X98599999Y-226649999D03*
%TD*%
%TO.P,D29,1,VDD*%
%TO.N,VDD*%
X119099999Y-86949999D03*
%TO.P,D29,2,DOUT*%
%TO.N,Net-(D29-DOUT)*%
X119099999Y-90249999D03*
%TO.P,D29,3,VSS*%
%TO.N,GND*%
X123999999Y-90249999D03*
%TO.P,D29,4,DIN*%
%TO.N,Net-(D28-DOUT)*%
X123999999Y-86949999D03*
%TD*%
%TO.P,D160,1,VDD*%
%TO.N,VDD*%
X182599999Y-86949999D03*
%TO.P,D160,2,DOUT*%
%TO.N,Net-(D160-DOUT)*%
X182599999Y-90249999D03*
%TO.P,D160,3,VSS*%
%TO.N,GND*%
X187499999Y-90249999D03*
%TO.P,D160,4,DIN*%
%TO.N,Net-(D159-DOUT)*%
X187499999Y-86949999D03*
%TD*%
%TO.P,D38,1,VDD*%
%TO.N,VDD*%
X144499999Y-99649999D03*
%TO.P,D38,2,DOUT*%
%TO.N,Net-(D38-DOUT)*%
X144499999Y-102949999D03*
%TO.P,D38,3,VSS*%
%TO.N,GND*%
X149399999Y-102949999D03*
%TO.P,D38,4,DIN*%
%TO.N,Net-(D37-DOUT)*%
X149399999Y-99649999D03*
%TD*%
%TO.P,D246,1,VDD*%
%TO.N,VDD*%
X246099999Y-226649999D03*
%TO.P,D246,2,DOUT*%
%TO.N,Net-(D246-DOUT)*%
X246099999Y-229949999D03*
%TO.P,D246,3,VSS*%
%TO.N,GND*%
X250999999Y-229949999D03*
%TO.P,D246,4,DIN*%
%TO.N,Net-(D245-DOUT)*%
X250999999Y-226649999D03*
%TD*%
%TO.P,D184,1,VDD*%
%TO.N,VDD*%
X271499999Y-125049999D03*
%TO.P,D184,2,DOUT*%
%TO.N,Net-(D184-DOUT)*%
X271499999Y-128349999D03*
%TO.P,D184,3,VSS*%
%TO.N,GND*%
X276399999Y-128349999D03*
%TO.P,D184,4,DIN*%
%TO.N,Net-(D183-DOUT)*%
X276399999Y-125049999D03*
%TD*%
D18*
%TO.P,BT1,N*%
%TO.N,GND*%
X51700000Y-105600000D03*
%TO.P,BT1,P*%
%TO.N,Net-(PS1-+VIN)*%
X64400000Y-105600000D03*
%TD*%
D19*
%TO.N,VDD*%
X271500000Y-163150000D03*
X131800000Y-150450000D03*
X81000000Y-74250000D03*
X81000000Y-137750000D03*
X106400000Y-201250000D03*
X258800000Y-74250000D03*
X233400000Y-74250000D03*
X131800000Y-163150000D03*
X119100000Y-61550000D03*
X93700000Y-137750000D03*
X157200000Y-213950000D03*
X144500000Y-201250000D03*
X81000000Y-112350000D03*
X220700000Y-239350000D03*
X119100000Y-188550000D03*
X144500000Y-163150000D03*
X131800000Y-86950000D03*
X271500000Y-125050000D03*
X195300000Y-125050000D03*
X246100000Y-175850000D03*
X157200000Y-125050000D03*
X157200000Y-201250000D03*
X195300000Y-74250000D03*
X208000000Y-201250000D03*
X195300000Y-163150000D03*
X119100000Y-213950000D03*
X208000000Y-48850000D03*
X271500000Y-99650000D03*
X93700000Y-226650000D03*
X258800000Y-48850000D03*
X233400000Y-125050000D03*
X220700000Y-150450000D03*
X195300000Y-112350000D03*
X220700000Y-213950000D03*
X169900000Y-48850000D03*
X157200000Y-99650000D03*
X93700000Y-239350000D03*
X169900000Y-137750000D03*
X195300000Y-99650000D03*
X157200000Y-74250000D03*
X182600000Y-74250000D03*
X195300000Y-86950000D03*
X233400000Y-226650000D03*
X93700000Y-61550000D03*
X271500000Y-226650000D03*
X169900000Y-125050000D03*
X169900000Y-99650000D03*
X258800000Y-239350000D03*
X271500000Y-188550000D03*
X182600000Y-99650000D03*
X81000000Y-163150000D03*
X195300000Y-239350000D03*
X246100000Y-99650000D03*
X106400000Y-188550000D03*
X258800000Y-201250000D03*
X144500000Y-99650000D03*
X182600000Y-226650000D03*
X157200000Y-150450000D03*
X119100000Y-74250000D03*
X169900000Y-188550000D03*
X271500000Y-137750000D03*
X233400000Y-163150000D03*
X93700000Y-99650000D03*
X131800000Y-99650000D03*
X106400000Y-150450000D03*
X169900000Y-112350000D03*
X258800000Y-175850000D03*
X106400000Y-48850000D03*
X195300000Y-137750000D03*
X246100000Y-61550000D03*
X144500000Y-175850000D03*
X258800000Y-163150000D03*
X220700000Y-137750000D03*
X119100000Y-112350000D03*
X106400000Y-213950000D03*
X208000000Y-188550000D03*
X106400000Y-99650000D03*
X246100000Y-239350000D03*
X233400000Y-213950000D03*
X119100000Y-125050000D03*
X258800000Y-125050000D03*
X246100000Y-137750000D03*
X144500000Y-213950000D03*
X106400000Y-137750000D03*
X106400000Y-125050000D03*
X233400000Y-112350000D03*
X246100000Y-188550000D03*
X220700000Y-226650000D03*
X106400000Y-163150000D03*
X169900000Y-226650000D03*
X208000000Y-99650000D03*
X258800000Y-226650000D03*
X93700000Y-48850000D03*
X144500000Y-150450000D03*
X182600000Y-61550000D03*
X131800000Y-239350000D03*
X182600000Y-150450000D03*
X144500000Y-188550000D03*
X195300000Y-226650000D03*
X258800000Y-112350000D03*
X169900000Y-175850000D03*
X220700000Y-175850000D03*
X233400000Y-239350000D03*
X246100000Y-112350000D03*
X258800000Y-137750000D03*
X233400000Y-150450000D03*
X271500000Y-48850000D03*
X119100000Y-163150000D03*
X208000000Y-137750000D03*
X271500000Y-201250000D03*
X195300000Y-201250000D03*
X246100000Y-163150000D03*
X131800000Y-188550000D03*
X233400000Y-137750000D03*
X208000000Y-150450000D03*
X157200000Y-86950000D03*
X144500000Y-61550000D03*
X208000000Y-175850000D03*
X93700000Y-74250000D03*
X131800000Y-201250000D03*
X157200000Y-226650000D03*
X182600000Y-213950000D03*
X271500000Y-175850000D03*
X220700000Y-201250000D03*
X131800000Y-226650000D03*
X144500000Y-137750000D03*
X271500000Y-213950000D03*
X81000000Y-226650000D03*
X106400000Y-112350000D03*
X119100000Y-201250000D03*
X182600000Y-239350000D03*
X106400000Y-226650000D03*
X157200000Y-163150000D03*
X93700000Y-150450000D03*
X233400000Y-188550000D03*
X157200000Y-48850000D03*
X119100000Y-99650000D03*
X271500000Y-150450000D03*
X157200000Y-112350000D03*
X195300000Y-48850000D03*
X106400000Y-86950000D03*
X271500000Y-112350000D03*
X182600000Y-112350000D03*
X81000000Y-175850000D03*
X81000000Y-125050000D03*
X233400000Y-99650000D03*
X106400000Y-61550000D03*
X246100000Y-213950000D03*
X258800000Y-86950000D03*
X144500000Y-125050000D03*
X246100000Y-74250000D03*
X144500000Y-112350000D03*
X131800000Y-112350000D03*
X81000000Y-61550000D03*
X182600000Y-125050000D03*
X144500000Y-74250000D03*
X93700000Y-188550000D03*
X271500000Y-86950000D03*
X208000000Y-125050000D03*
X119100000Y-175850000D03*
X258800000Y-99650000D03*
X81000000Y-48850000D03*
X246100000Y-201250000D03*
X169900000Y-86950000D03*
X233400000Y-201250000D03*
X246100000Y-226650000D03*
X81000000Y-213950000D03*
X195300000Y-61550000D03*
X220700000Y-48850000D03*
X119100000Y-137750000D03*
X220700000Y-61550000D03*
X81000000Y-239350000D03*
X157200000Y-137750000D03*
X182600000Y-48850000D03*
X169900000Y-239350000D03*
X119100000Y-226650000D03*
X195300000Y-150450000D03*
X131800000Y-213950000D03*
X271500000Y-61550000D03*
X246100000Y-150450000D03*
X258800000Y-61550000D03*
X93700000Y-86950000D03*
X208000000Y-74250000D03*
X93700000Y-201250000D03*
X208000000Y-213950000D03*
X157200000Y-188550000D03*
X246100000Y-48850000D03*
X233400000Y-48850000D03*
X93700000Y-163150000D03*
X144500000Y-48850000D03*
X246100000Y-86950000D03*
X258800000Y-188550000D03*
X182600000Y-188550000D03*
X195300000Y-188550000D03*
X157200000Y-239350000D03*
X119100000Y-86950000D03*
X182600000Y-86950000D03*
X208000000Y-239350000D03*
X93700000Y-125050000D03*
X93700000Y-175850000D03*
X119100000Y-150450000D03*
X258800000Y-213950000D03*
X182600000Y-137750000D03*
X233400000Y-175850000D03*
X106400000Y-74250000D03*
X208000000Y-112350000D03*
X131800000Y-125050000D03*
X220700000Y-125050000D03*
X220700000Y-188550000D03*
X233400000Y-61550000D03*
X195300000Y-175850000D03*
X131800000Y-175850000D03*
X220700000Y-163150000D03*
X66863800Y-124415000D03*
X182600000Y-175850000D03*
X208000000Y-226650000D03*
X169900000Y-150450000D03*
X93700000Y-112350000D03*
X182600000Y-163150000D03*
X208000000Y-86950000D03*
X169900000Y-74250000D03*
X157200000Y-61550000D03*
X195300000Y-213950000D03*
X93700000Y-213950000D03*
X208000000Y-163150000D03*
X106400000Y-175850000D03*
X144500000Y-86950000D03*
X131800000Y-61550000D03*
X119100000Y-48850000D03*
X233400000Y-86950000D03*
X81000000Y-188550000D03*
X271500000Y-74250000D03*
X169900000Y-163150000D03*
X220700000Y-112350000D03*
X131800000Y-48850000D03*
X220700000Y-86950000D03*
X169900000Y-213950000D03*
X81000000Y-99650000D03*
X144500000Y-239350000D03*
X182600000Y-201250000D03*
X258800000Y-150450000D03*
X157200000Y-175850000D03*
X271500000Y-239350000D03*
X81000000Y-150450000D03*
X81000000Y-201250000D03*
X220700000Y-74250000D03*
X208000000Y-61550000D03*
X169900000Y-201250000D03*
X106400000Y-239350000D03*
X169900000Y-61550000D03*
X220700000Y-99650000D03*
X131800000Y-137750000D03*
X81000000Y-86950000D03*
X119100000Y-239350000D03*
X246100000Y-125050000D03*
X131800000Y-74250000D03*
X144500000Y-226650000D03*
X84400000Y-183800000D03*
X97100000Y-94900000D03*
X160600000Y-145700000D03*
X198700000Y-94900000D03*
X135200000Y-56800000D03*
X84400000Y-196500000D03*
X147900000Y-56800000D03*
X173300000Y-221900000D03*
X160600000Y-158400000D03*
X236800000Y-183800000D03*
X147900000Y-69500000D03*
X274900000Y-82200000D03*
X236800000Y-69500000D03*
X224100000Y-145700000D03*
X186000000Y-69500000D03*
X109800000Y-221900000D03*
X173300000Y-133000000D03*
X198700000Y-196500000D03*
X198700000Y-120300000D03*
X97100000Y-196500000D03*
X224100000Y-133000000D03*
X160600000Y-183800000D03*
X274900000Y-107600000D03*
X186000000Y-82200000D03*
X135200000Y-107600000D03*
X84400000Y-158400000D03*
X135200000Y-120300000D03*
X224100000Y-120300000D03*
X224100000Y-196500000D03*
X109800000Y-171100000D03*
X186000000Y-221900000D03*
X97100000Y-209200000D03*
X211400000Y-107600000D03*
X186000000Y-171100000D03*
X135200000Y-133000000D03*
X262200000Y-107600000D03*
X84400000Y-133000000D03*
X109800000Y-247300000D03*
X173300000Y-94900000D03*
X84400000Y-94900000D03*
X211400000Y-209200000D03*
X186000000Y-209200000D03*
X262200000Y-69500000D03*
X173300000Y-183800000D03*
X249500000Y-234600000D03*
X224100000Y-158400000D03*
X186000000Y-145700000D03*
X147900000Y-183800000D03*
X135200000Y-171100000D03*
X97100000Y-69500000D03*
X262200000Y-196500000D03*
X160600000Y-196500000D03*
X224100000Y-69500000D03*
X236800000Y-209200000D03*
X186000000Y-196500000D03*
X224100000Y-234600000D03*
X262200000Y-56800000D03*
X109800000Y-145700000D03*
X224100000Y-94900000D03*
X262200000Y-234600000D03*
X249500000Y-94900000D03*
X135200000Y-221900000D03*
X160600000Y-221900000D03*
X122500000Y-158400000D03*
X186000000Y-234600000D03*
X274900000Y-171100000D03*
X173300000Y-82200000D03*
X173300000Y-145700000D03*
X84400000Y-107600000D03*
X147900000Y-209200000D03*
X211400000Y-56800000D03*
X186000000Y-158400000D03*
X160600000Y-69500000D03*
X262200000Y-82200000D03*
X211400000Y-196500000D03*
X198700000Y-171100000D03*
X274900000Y-234600000D03*
X122500000Y-145700000D03*
X262200000Y-221900000D03*
X109800000Y-107600000D03*
X122500000Y-120300000D03*
X249500000Y-133000000D03*
X274900000Y-183800000D03*
X97100000Y-171100000D03*
X198700000Y-69500000D03*
X173300000Y-120300000D03*
X249500000Y-221900000D03*
X147900000Y-158400000D03*
X97100000Y-133000000D03*
X274900000Y-133000000D03*
X262200000Y-183800000D03*
X198700000Y-145700000D03*
X109800000Y-234600000D03*
X224100000Y-221900000D03*
X97100000Y-234600000D03*
X173300000Y-196500000D03*
X211400000Y-221900000D03*
X236800000Y-171100000D03*
X84400000Y-234600000D03*
X236800000Y-94900000D03*
X224100000Y-56800000D03*
X135200000Y-145700000D03*
X249500000Y-209200000D03*
X147900000Y-120300000D03*
X198700000Y-234600000D03*
X173300000Y-158400000D03*
X186000000Y-120300000D03*
X198700000Y-133000000D03*
X173300000Y-171100000D03*
X109800000Y-69500000D03*
X224100000Y-209200000D03*
X236800000Y-234600000D03*
X236800000Y-221900000D03*
X147900000Y-196500000D03*
X249500000Y-171100000D03*
X198700000Y-107600000D03*
X135200000Y-82200000D03*
X173300000Y-107600000D03*
X84400000Y-221900000D03*
X122500000Y-133000000D03*
X236800000Y-133000000D03*
X198700000Y-158400000D03*
X122500000Y-82200000D03*
X160600000Y-94900000D03*
X274900000Y-247300000D03*
X97100000Y-107600000D03*
X97100000Y-158400000D03*
X262200000Y-158400000D03*
X224100000Y-82200000D03*
X211400000Y-133000000D03*
X122500000Y-107600000D03*
X122500000Y-171100000D03*
X186000000Y-56800000D03*
X122500000Y-183800000D03*
X249500000Y-69500000D03*
X236800000Y-247300000D03*
X236800000Y-107600000D03*
X211400000Y-94900000D03*
X97100000Y-247300000D03*
X109800000Y-158400000D03*
X109800000Y-196500000D03*
X186000000Y-133000000D03*
X97100000Y-120300000D03*
X262200000Y-145700000D03*
X274900000Y-120300000D03*
X262200000Y-120300000D03*
X109800000Y-120300000D03*
X160600000Y-171100000D03*
X236800000Y-158400000D03*
X211400000Y-183800000D03*
X262200000Y-247300000D03*
X249500000Y-247300000D03*
X135200000Y-158400000D03*
X173300000Y-56800000D03*
X84400000Y-120300000D03*
X147900000Y-107600000D03*
X84400000Y-145700000D03*
X186000000Y-107600000D03*
X147900000Y-234600000D03*
X274900000Y-158400000D03*
X186000000Y-183800000D03*
X198700000Y-247300000D03*
X97100000Y-56800000D03*
X160600000Y-56800000D03*
X122500000Y-196500000D03*
X84400000Y-56800000D03*
X274900000Y-196500000D03*
X122500000Y-56800000D03*
X97100000Y-183800000D03*
X249500000Y-158400000D03*
X274900000Y-94900000D03*
X236800000Y-82200000D03*
X211400000Y-69500000D03*
X262200000Y-133000000D03*
X236800000Y-145700000D03*
X198700000Y-56800000D03*
X274900000Y-221900000D03*
X211400000Y-145700000D03*
X211400000Y-158400000D03*
X249500000Y-56800000D03*
X236800000Y-196500000D03*
X262200000Y-209200000D03*
X147900000Y-171100000D03*
X135200000Y-247300000D03*
X147900000Y-82200000D03*
X211400000Y-234600000D03*
X122500000Y-247300000D03*
X122500000Y-94900000D03*
X224100000Y-171100000D03*
X198700000Y-221900000D03*
X236800000Y-56800000D03*
X122500000Y-234600000D03*
X274900000Y-56800000D03*
X122500000Y-221900000D03*
X135200000Y-94900000D03*
X198700000Y-183800000D03*
X211400000Y-247300000D03*
X198700000Y-82200000D03*
X147900000Y-145700000D03*
X97100000Y-82200000D03*
X224100000Y-107600000D03*
X224100000Y-183800000D03*
X109800000Y-82200000D03*
X160600000Y-133000000D03*
X173300000Y-69500000D03*
X186000000Y-94900000D03*
X109800000Y-56800000D03*
X135200000Y-209200000D03*
X160600000Y-82200000D03*
X249500000Y-183800000D03*
X211400000Y-171100000D03*
X122500000Y-209200000D03*
X109800000Y-133000000D03*
X173300000Y-247300000D03*
X173300000Y-209200000D03*
X135200000Y-196500000D03*
X147900000Y-221900000D03*
X262200000Y-94900000D03*
X109800000Y-94900000D03*
X274900000Y-209200000D03*
X249500000Y-107600000D03*
X274900000Y-69500000D03*
X173300000Y-234600000D03*
X135200000Y-234600000D03*
X249500000Y-82200000D03*
X147900000Y-133000000D03*
X97100000Y-221900000D03*
X249500000Y-145700000D03*
X160600000Y-234600000D03*
X198700000Y-209200000D03*
X160600000Y-107600000D03*
X236800000Y-120300000D03*
X224100000Y-247300000D03*
X274900000Y-145700000D03*
X249500000Y-120300000D03*
X122500000Y-69500000D03*
X160600000Y-120300000D03*
X186000000Y-247300000D03*
X109800000Y-183800000D03*
X135200000Y-69500000D03*
X160600000Y-247300000D03*
X84400000Y-171100000D03*
X84400000Y-247300000D03*
X109800000Y-209200000D03*
X211400000Y-82200000D03*
X84400000Y-82200000D03*
X84400000Y-69500000D03*
X211400000Y-120300000D03*
X84400000Y-209200000D03*
X160600000Y-209200000D03*
X147900000Y-247300000D03*
X135200000Y-183800000D03*
X262200000Y-171100000D03*
X147900000Y-94900000D03*
X97100000Y-145700000D03*
X249500000Y-196500000D03*
%TO.N,GND*%
X174800000Y-64850000D03*
X63900000Y-132775500D03*
X149400000Y-179150000D03*
X276400000Y-64850000D03*
X162100000Y-90300000D03*
X98600000Y-115650000D03*
X111300000Y-102900000D03*
X85900000Y-64850000D03*
X251000000Y-115650000D03*
X263700000Y-77550000D03*
X85900000Y-115650000D03*
X212900000Y-191850000D03*
X187500000Y-77550000D03*
X149400000Y-153750000D03*
X136700000Y-115650000D03*
X276400000Y-153750000D03*
X111300000Y-153750000D03*
X124000000Y-128350000D03*
X98600000Y-204550000D03*
X251000000Y-204550000D03*
X263700000Y-229950000D03*
X251000000Y-64850000D03*
X162100000Y-242650000D03*
X124000000Y-90300000D03*
X187500000Y-52150000D03*
X238300000Y-102950000D03*
X111300000Y-166450000D03*
X98600000Y-191850000D03*
X251000000Y-128350000D03*
X149400000Y-102900000D03*
X162100000Y-102900000D03*
X98600000Y-64850000D03*
X263700000Y-217250000D03*
X124000000Y-102900000D03*
X212900000Y-204550000D03*
X187500000Y-204550000D03*
X85900000Y-166450000D03*
X149400000Y-217250000D03*
X85900000Y-128350000D03*
X251000000Y-229950000D03*
X111300000Y-90300000D03*
X263700000Y-52150000D03*
X263700000Y-128350000D03*
X212900000Y-115650000D03*
X174800000Y-153750000D03*
X136700000Y-204550000D03*
X200200000Y-191850000D03*
X200200000Y-64850000D03*
X212900000Y-141050000D03*
X251000000Y-141050000D03*
X263700000Y-141050000D03*
X98600000Y-242650000D03*
X225600000Y-229950000D03*
X162100000Y-115650000D03*
X212900000Y-52150000D03*
X200200000Y-52150000D03*
X187500000Y-217250000D03*
X238300000Y-166450000D03*
X98600000Y-102900000D03*
X251000000Y-77550000D03*
X187500000Y-64850000D03*
X174800000Y-204550000D03*
X276400000Y-128350000D03*
X225600000Y-204550000D03*
X162100000Y-64850000D03*
X85900000Y-229950000D03*
X124000000Y-153750000D03*
X124000000Y-166450000D03*
X124000000Y-77600000D03*
X98600000Y-141050000D03*
X238300000Y-77550000D03*
X200200000Y-204550000D03*
X187500000Y-128350000D03*
X124000000Y-64850000D03*
X251000000Y-90250000D03*
X225600000Y-128350000D03*
X98600000Y-229950000D03*
X149400000Y-90300000D03*
X162100000Y-191850000D03*
X225600000Y-64850000D03*
X124000000Y-217250000D03*
X263700000Y-102950000D03*
X149400000Y-242650000D03*
X174800000Y-77600000D03*
X136700000Y-64850000D03*
X212900000Y-153750000D03*
X98600000Y-179150000D03*
X85900000Y-90300000D03*
X98600000Y-77600000D03*
X136700000Y-141050000D03*
X149400000Y-166450000D03*
X162100000Y-128350000D03*
X225600000Y-102950000D03*
X136700000Y-77600000D03*
X124000000Y-141050000D03*
X174800000Y-191850000D03*
X187500000Y-166450000D03*
X200200000Y-166450000D03*
X200200000Y-90250000D03*
X200200000Y-242650000D03*
X276400000Y-115650000D03*
X174800000Y-52150000D03*
X162100000Y-77600000D03*
X200200000Y-179150000D03*
X276400000Y-102950000D03*
X174800000Y-242650000D03*
X85900000Y-102900000D03*
X238300000Y-115650000D03*
X111300000Y-141050000D03*
X111300000Y-242650000D03*
X98600000Y-153750000D03*
X276400000Y-77550000D03*
X276400000Y-52150000D03*
X263700000Y-166450000D03*
X162100000Y-153750000D03*
X225600000Y-141050000D03*
X149400000Y-115650000D03*
X85900000Y-179150000D03*
X225600000Y-90250000D03*
X85900000Y-191850000D03*
X276400000Y-141050000D03*
X162100000Y-179150000D03*
X187500000Y-153750000D03*
X174800000Y-217250000D03*
X111300000Y-229950000D03*
X276400000Y-166450000D03*
X149400000Y-77600000D03*
X162100000Y-204550000D03*
X251000000Y-242650000D03*
X187500000Y-229950000D03*
X263700000Y-115650000D03*
X238300000Y-242650000D03*
X85900000Y-52150000D03*
X212900000Y-128350000D03*
X225600000Y-153750000D03*
X276400000Y-90250000D03*
X98600000Y-217250000D03*
X200200000Y-128350000D03*
X225600000Y-242650000D03*
X200200000Y-102950000D03*
X212900000Y-102950000D03*
X174800000Y-102900000D03*
X251000000Y-102950000D03*
X225600000Y-166450000D03*
X111300000Y-204550000D03*
X174800000Y-128350000D03*
X225600000Y-191850000D03*
X98600000Y-52150000D03*
X111300000Y-217250000D03*
X98600000Y-166450000D03*
X238300000Y-229950000D03*
X225600000Y-179150000D03*
X111300000Y-128350000D03*
X187500000Y-242650000D03*
X85900000Y-204550000D03*
X200200000Y-115650000D03*
X111300000Y-115650000D03*
X263700000Y-90250000D03*
X276400000Y-179150000D03*
X149400000Y-204550000D03*
X187500000Y-191850000D03*
X111300000Y-179150000D03*
X174800000Y-166450000D03*
X111300000Y-191850000D03*
X124000000Y-115650000D03*
X238300000Y-141050000D03*
X136700000Y-128350000D03*
X251000000Y-217250000D03*
X136700000Y-179150000D03*
X276400000Y-229950000D03*
X225600000Y-77550000D03*
X149400000Y-229950000D03*
X251000000Y-166450000D03*
X276400000Y-217250000D03*
X263700000Y-242650000D03*
X212900000Y-77550000D03*
X85900000Y-141050000D03*
X200200000Y-153750000D03*
X63487500Y-122125000D03*
X85900000Y-153750000D03*
X85900000Y-242650000D03*
X187500000Y-90250000D03*
X187500000Y-141050000D03*
X238300000Y-153750000D03*
X136700000Y-102900000D03*
X124000000Y-204550000D03*
X174800000Y-229950000D03*
X212900000Y-179150000D03*
X136700000Y-166450000D03*
X238300000Y-128350000D03*
X251000000Y-52150000D03*
X276400000Y-242650000D03*
X251000000Y-191850000D03*
X85900000Y-77600000D03*
X149400000Y-52150000D03*
X263700000Y-64850000D03*
X162100000Y-141050000D03*
X136700000Y-90300000D03*
X124000000Y-191850000D03*
X174800000Y-179150000D03*
X187500000Y-102950000D03*
X276400000Y-191850000D03*
X276400000Y-204550000D03*
X136700000Y-191850000D03*
X162100000Y-217250000D03*
X212900000Y-229950000D03*
X124000000Y-52150000D03*
X200200000Y-229950000D03*
X225600000Y-115650000D03*
X212900000Y-242650000D03*
X162100000Y-52150000D03*
X162100000Y-229950000D03*
X225600000Y-217250000D03*
X136700000Y-242650000D03*
X263700000Y-179150000D03*
X238300000Y-204550000D03*
X251000000Y-179150000D03*
X111300000Y-77600000D03*
X225600000Y-52150000D03*
X212900000Y-217250000D03*
X263700000Y-204550000D03*
X212900000Y-64850000D03*
X238300000Y-52150000D03*
X238300000Y-217250000D03*
X124000000Y-179150000D03*
X111300000Y-52150000D03*
X162100000Y-166450000D03*
X200200000Y-77550000D03*
X149400000Y-141050000D03*
X263700000Y-191850000D03*
X124000000Y-229950000D03*
X174800000Y-115650000D03*
X174800000Y-90300000D03*
X98600000Y-128350000D03*
X238300000Y-64850000D03*
X136700000Y-229950000D03*
X212900000Y-90250000D03*
X200200000Y-141050000D03*
X238300000Y-90250000D03*
X200200000Y-217250000D03*
X111300000Y-64850000D03*
X136700000Y-153750000D03*
X238300000Y-179150000D03*
X212900000Y-166450000D03*
X187500000Y-115650000D03*
X149400000Y-128350000D03*
X98600000Y-90300000D03*
X174800000Y-141050000D03*
X149400000Y-64850000D03*
X251000000Y-153750000D03*
X85900000Y-217250000D03*
X263700000Y-153750000D03*
X238300000Y-191850000D03*
X149400000Y-191850000D03*
X124000000Y-242650000D03*
X136700000Y-217250000D03*
X136700000Y-52150000D03*
X187500000Y-179150000D03*
X260300000Y-234600000D03*
X82500000Y-145700000D03*
X171400000Y-183800000D03*
X260300000Y-145700000D03*
X184100000Y-56800000D03*
X234900000Y-120300000D03*
X133300000Y-158400000D03*
X196800000Y-221900000D03*
X107900000Y-120300000D03*
X196800000Y-145700000D03*
X133300000Y-234600000D03*
X107900000Y-145700000D03*
X247600000Y-56800000D03*
X196800000Y-82200000D03*
X133300000Y-56800000D03*
X120600000Y-82200000D03*
X120600000Y-145700000D03*
X260300000Y-209200000D03*
X247600000Y-69500000D03*
X184100000Y-107600000D03*
X146000000Y-145700000D03*
X196800000Y-209200000D03*
X133300000Y-183800000D03*
X171400000Y-196500000D03*
X260300000Y-247300000D03*
X82500000Y-171100000D03*
X133300000Y-69500000D03*
X171400000Y-120300000D03*
X107900000Y-133000000D03*
X273000000Y-209200000D03*
X82500000Y-107600000D03*
X171400000Y-171100000D03*
X95200000Y-56800000D03*
X82500000Y-94900000D03*
X196800000Y-234600000D03*
X82500000Y-183800000D03*
X222200000Y-221900000D03*
X273000000Y-183800000D03*
X184100000Y-183800000D03*
X209500000Y-82200000D03*
X260300000Y-171100000D03*
X273000000Y-145700000D03*
X209500000Y-107600000D03*
X222200000Y-107600000D03*
X146000000Y-234600000D03*
X196800000Y-158400000D03*
X196800000Y-107600000D03*
X82500000Y-120300000D03*
X107900000Y-107600000D03*
X209500000Y-234600000D03*
X273000000Y-158400000D03*
X158700000Y-158400000D03*
X146000000Y-209200000D03*
X158700000Y-133000000D03*
X247600000Y-171100000D03*
X247600000Y-133000000D03*
X82500000Y-56800000D03*
X133300000Y-107600000D03*
X107900000Y-82200000D03*
X260300000Y-158400000D03*
X273000000Y-56800000D03*
X222200000Y-69500000D03*
X196800000Y-183800000D03*
X120600000Y-158400000D03*
X171400000Y-69500000D03*
X146000000Y-69500000D03*
X95200000Y-107600000D03*
X107900000Y-94900000D03*
X95200000Y-158400000D03*
X260300000Y-221900000D03*
X133300000Y-145700000D03*
X158700000Y-120300000D03*
X184100000Y-82200000D03*
X222200000Y-82200000D03*
X146000000Y-158400000D03*
X82500000Y-133000000D03*
X95200000Y-234600000D03*
X120600000Y-69500000D03*
X234900000Y-133000000D03*
X196800000Y-94900000D03*
X95200000Y-247300000D03*
X82500000Y-158400000D03*
X260300000Y-107600000D03*
X196800000Y-133000000D03*
X95200000Y-183800000D03*
X120600000Y-183800000D03*
X247600000Y-158400000D03*
X273000000Y-247300000D03*
X209500000Y-221900000D03*
X82500000Y-82200000D03*
X234900000Y-158400000D03*
X234900000Y-94900000D03*
X196800000Y-120300000D03*
X158700000Y-171100000D03*
X184100000Y-171100000D03*
X273000000Y-196500000D03*
X146000000Y-56800000D03*
X133300000Y-120300000D03*
X82500000Y-221900000D03*
X234900000Y-209200000D03*
X146000000Y-133000000D03*
X146000000Y-107600000D03*
X146000000Y-183800000D03*
X234900000Y-82200000D03*
X273000000Y-69500000D03*
X273000000Y-234600000D03*
X120600000Y-196500000D03*
X184100000Y-120300000D03*
X234900000Y-69500000D03*
X273000000Y-133000000D03*
X95200000Y-120300000D03*
X209500000Y-171100000D03*
X184100000Y-133000000D03*
X82500000Y-234600000D03*
X158700000Y-94900000D03*
X158700000Y-196500000D03*
X95200000Y-145700000D03*
X184100000Y-94900000D03*
X247600000Y-120300000D03*
X222200000Y-247300000D03*
X222200000Y-209200000D03*
X107900000Y-171100000D03*
X120600000Y-234600000D03*
X184100000Y-69500000D03*
X209500000Y-196500000D03*
X222200000Y-171100000D03*
X82500000Y-247300000D03*
X247600000Y-247300000D03*
X158700000Y-221900000D03*
X247600000Y-209200000D03*
X107900000Y-234600000D03*
X209500000Y-183800000D03*
X133300000Y-209200000D03*
X222200000Y-183800000D03*
X158700000Y-209200000D03*
X247600000Y-82200000D03*
X171400000Y-247300000D03*
X107900000Y-209200000D03*
X273000000Y-107600000D03*
X184100000Y-234600000D03*
X234900000Y-145700000D03*
X222200000Y-120300000D03*
X184100000Y-196500000D03*
X120600000Y-56800000D03*
X146000000Y-221900000D03*
X158700000Y-183800000D03*
X234900000Y-221900000D03*
X247600000Y-183800000D03*
X184100000Y-221900000D03*
X209500000Y-94900000D03*
X222200000Y-234600000D03*
X120600000Y-247300000D03*
X107900000Y-221900000D03*
X95200000Y-221900000D03*
X171400000Y-234600000D03*
X107900000Y-56800000D03*
X247600000Y-196500000D03*
X95200000Y-196500000D03*
X222200000Y-196500000D03*
X146000000Y-171100000D03*
X120600000Y-171100000D03*
X133300000Y-133000000D03*
X209500000Y-56800000D03*
X260300000Y-183800000D03*
X260300000Y-120300000D03*
X158700000Y-107600000D03*
X196800000Y-171100000D03*
X234900000Y-234600000D03*
X107900000Y-158400000D03*
X260300000Y-56800000D03*
X158700000Y-145700000D03*
X184100000Y-145700000D03*
X95200000Y-94900000D03*
X120600000Y-94900000D03*
X222200000Y-133000000D03*
X133300000Y-94900000D03*
X171400000Y-209200000D03*
X133300000Y-221900000D03*
X146000000Y-120300000D03*
X95200000Y-82200000D03*
X247600000Y-221900000D03*
X247600000Y-234600000D03*
X184100000Y-247300000D03*
X158700000Y-234600000D03*
X196800000Y-69500000D03*
X260300000Y-196500000D03*
X260300000Y-69500000D03*
X82500000Y-209200000D03*
X209500000Y-120300000D03*
X196800000Y-196500000D03*
X260300000Y-82200000D03*
X247600000Y-145700000D03*
X222200000Y-56800000D03*
X222200000Y-145700000D03*
X273000000Y-120300000D03*
X120600000Y-120300000D03*
X133300000Y-171100000D03*
X209500000Y-247300000D03*
X260300000Y-133000000D03*
X247600000Y-94900000D03*
X158700000Y-82200000D03*
X133300000Y-82200000D03*
X158700000Y-69500000D03*
X107900000Y-196500000D03*
X133300000Y-247300000D03*
X120600000Y-209200000D03*
X120600000Y-221900000D03*
X146000000Y-82200000D03*
X171400000Y-145700000D03*
X82500000Y-196500000D03*
X107900000Y-69500000D03*
X273000000Y-94900000D03*
X95200000Y-171100000D03*
X234900000Y-107600000D03*
X146000000Y-247300000D03*
X171400000Y-94900000D03*
X209500000Y-69500000D03*
X171400000Y-158400000D03*
X222200000Y-94900000D03*
X95200000Y-69500000D03*
X146000000Y-94900000D03*
X158700000Y-56800000D03*
X209500000Y-145700000D03*
X247600000Y-107600000D03*
X234900000Y-196500000D03*
X234900000Y-171100000D03*
X273000000Y-82200000D03*
X234900000Y-247300000D03*
X120600000Y-107600000D03*
X171400000Y-107600000D03*
X222200000Y-158400000D03*
X82500000Y-69500000D03*
X95200000Y-133000000D03*
X171400000Y-221900000D03*
X171400000Y-56800000D03*
X107900000Y-247300000D03*
X209500000Y-133000000D03*
X171400000Y-133000000D03*
X133300000Y-196500000D03*
X209500000Y-209200000D03*
X209500000Y-158400000D03*
X260300000Y-94900000D03*
X171400000Y-82200000D03*
X234900000Y-56800000D03*
X184100000Y-158400000D03*
X196800000Y-247300000D03*
X273000000Y-221900000D03*
X196800000Y-56800000D03*
X234900000Y-183800000D03*
X146000000Y-196500000D03*
X158700000Y-247300000D03*
X120600000Y-133000000D03*
X95200000Y-209200000D03*
X107900000Y-183800000D03*
X273000000Y-171100000D03*
X184100000Y-209200000D03*
%TO.N,Net-(D1-DIN)*%
X85900000Y-48850000D03*
X61936200Y-126955000D03*
%TO.N,Net-(D65-DIN)*%
X61936200Y-130644900D03*
X85900000Y-150450000D03*
%TO.N,Net-(D129-DIN)*%
X187500000Y-48850000D03*
X66863800Y-132035000D03*
%TO.N,Net-(D193-DIN)*%
X76800000Y-126700000D03*
X187500000Y-150450000D03*
%TD*%
D20*
%TO.N,Net-(D87-DOUT)*%
X159986396Y-177500000D02*
X158336396Y-179150000D01*
X172450000Y-177500000D02*
X159986396Y-177500000D01*
X174100000Y-175850000D02*
X172450000Y-177500000D01*
X174800000Y-175850000D02*
X174100000Y-175850000D01*
X158336396Y-179150000D02*
X157200000Y-179150000D01*
%TO.N,Net-(D116-DOUT)*%
X122050000Y-228200000D02*
X120300000Y-229950000D01*
X120300000Y-229950000D02*
X119100000Y-229950000D01*
X133850000Y-228200000D02*
X122050000Y-228200000D01*
X136700000Y-226650000D02*
X135400000Y-226650000D01*
X135400000Y-226650000D02*
X133850000Y-228200000D01*
%TO.N,Net-(D214-DOUT)*%
X262600000Y-175850000D02*
X263700000Y-175850000D01*
X261050000Y-177400000D02*
X262600000Y-175850000D01*
X249150000Y-177400000D02*
X261050000Y-177400000D01*
X247400000Y-179150000D02*
X249150000Y-177400000D01*
X246100000Y-179150000D02*
X247400000Y-179150000D01*
%TO.N,Net-(D161-DOUT)*%
X199000000Y-99650000D02*
X200200000Y-99650000D01*
X197350000Y-101300000D02*
X199000000Y-99650000D01*
X184250000Y-101300000D02*
X197350000Y-101300000D01*
X182600000Y-102950000D02*
X184250000Y-101300000D01*
%TO.N,Net-(PS1-+VIN)*%
X62700000Y-107300000D02*
X62700000Y-115525000D01*
X64400000Y-105600000D02*
X62700000Y-107300000D01*
%TO.N,Net-(J1-Pin_4)*%
X67575000Y-126955000D02*
X66863800Y-126955000D01*
X68179400Y-127559400D02*
X67575000Y-126955000D01*
X68179400Y-132820600D02*
X68179400Y-127559400D01*
X66300000Y-134700000D02*
X68179400Y-132820600D01*
X45500000Y-124020000D02*
X56180000Y-134700000D01*
X56180000Y-134700000D02*
X66300000Y-134700000D01*
%TO.N,GND*%
X63159500Y-132035000D02*
X63900000Y-132775500D01*
X61936200Y-132035000D02*
X63159500Y-132035000D01*
%TO.N,Net-(D1-DOUT)*%
X82650000Y-50500000D02*
X81000000Y-52150000D01*
X97800000Y-48850000D02*
X96150000Y-50500000D01*
X96150000Y-50500000D02*
X82650000Y-50500000D01*
X98600000Y-48850000D02*
X97800000Y-48850000D01*
%TO.N,Net-(D2-DOUT)*%
X95136396Y-52150000D02*
X96786396Y-50500000D01*
X96786396Y-50500000D02*
X108850000Y-50500000D01*
X93700000Y-52150000D02*
X95136396Y-52150000D01*
X108850000Y-50500000D02*
X110500000Y-48850000D01*
X110500000Y-48850000D02*
X111300000Y-48850000D01*
%TO.N,Net-(D3-DOUT)*%
X123200000Y-48850000D02*
X124000000Y-48850000D01*
X121550000Y-50500000D02*
X123200000Y-48850000D01*
X109486396Y-50500000D02*
X121550000Y-50500000D01*
X106400000Y-52150000D02*
X107836396Y-52150000D01*
X107836396Y-52150000D02*
X109486396Y-50500000D01*
%TO.N,Net-(D4-DOUT)*%
X120600000Y-52150000D02*
X122250000Y-50500000D01*
X119100000Y-52150000D02*
X120600000Y-52150000D01*
X122250000Y-50500000D02*
X134250000Y-50500000D01*
X134250000Y-50500000D02*
X135900000Y-48850000D01*
X135900000Y-48850000D02*
X136700000Y-48850000D01*
%TO.N,Net-(D5-DOUT)*%
X134886396Y-50500000D02*
X146950000Y-50500000D01*
X148600000Y-48850000D02*
X149400000Y-48850000D01*
X133236396Y-52150000D02*
X134886396Y-50500000D01*
X131800000Y-52150000D02*
X133236396Y-52150000D01*
X146950000Y-50500000D02*
X148600000Y-48850000D01*
%TO.N,Net-(D6-DOUT)*%
X147586396Y-50500000D02*
X159650000Y-50500000D01*
X145936396Y-52150000D02*
X147586396Y-50500000D01*
X159650000Y-50500000D02*
X161300000Y-48850000D01*
X161300000Y-48850000D02*
X162100000Y-48850000D01*
X144500000Y-52150000D02*
X145936396Y-52150000D01*
%TO.N,Net-(D7-DOUT)*%
X160286396Y-50500000D02*
X172350000Y-50500000D01*
X157200000Y-52150000D02*
X158636396Y-52150000D01*
X172350000Y-50500000D02*
X174000000Y-48850000D01*
X174000000Y-48850000D02*
X174800000Y-48850000D01*
X158636396Y-52150000D02*
X160286396Y-50500000D01*
%TO.N,Net-(D8-DOUT)*%
X169900000Y-56650000D02*
X174800000Y-61550000D01*
X169900000Y-52150000D02*
X169900000Y-56650000D01*
%TO.N,Net-(D10-DIN)*%
X166600000Y-61550000D02*
X162100000Y-61550000D01*
X169900000Y-64850000D02*
X166600000Y-61550000D01*
%TO.N,Net-(D10-DOUT)*%
X157200000Y-64850000D02*
X153900000Y-61550000D01*
X153900000Y-61550000D02*
X149400000Y-61550000D01*
%TO.N,Net-(D11-DOUT)*%
X144500000Y-64850000D02*
X141200000Y-61550000D01*
X141200000Y-61550000D02*
X136700000Y-61550000D01*
%TO.N,Net-(D12-DOUT)*%
X128500000Y-61550000D02*
X124000000Y-61550000D01*
X131800000Y-64850000D02*
X128500000Y-61550000D01*
%TO.N,Net-(D13-DOUT)*%
X115800000Y-61550000D02*
X119100000Y-64850000D01*
X111300000Y-61550000D02*
X115800000Y-61550000D01*
%TO.N,Net-(D14-DOUT)*%
X98600000Y-61550000D02*
X103100000Y-61550000D01*
X103100000Y-61550000D02*
X106400000Y-64850000D01*
%TO.N,Net-(D15-DOUT)*%
X85900000Y-61550000D02*
X90400000Y-61550000D01*
X90400000Y-61550000D02*
X93700000Y-64850000D01*
%TO.N,Net-(D16-DOUT)*%
X81000000Y-64850000D02*
X81000000Y-69350000D01*
X81000000Y-69350000D02*
X85900000Y-74250000D01*
%TO.N,Net-(D17-DOUT)*%
X81000000Y-77550000D02*
X82750000Y-75800000D01*
X96150000Y-75800000D02*
X97700000Y-74250000D01*
X97700000Y-74250000D02*
X98600000Y-74250000D01*
X82750000Y-75800000D02*
X96150000Y-75800000D01*
%TO.N,Net-(D18-DOUT)*%
X108850000Y-75800000D02*
X110400000Y-74250000D01*
X110400000Y-74250000D02*
X111300000Y-74250000D01*
X95100000Y-77550000D02*
X96850000Y-75800000D01*
X96850000Y-75800000D02*
X108850000Y-75800000D01*
X93700000Y-77550000D02*
X95100000Y-77550000D01*
%TO.N,Net-(D19-DOUT)*%
X109486396Y-75800000D02*
X121550000Y-75800000D01*
X106400000Y-77550000D02*
X107736396Y-77550000D01*
X123100000Y-74250000D02*
X124000000Y-74250000D01*
X107736396Y-77550000D02*
X109486396Y-75800000D01*
X121550000Y-75800000D02*
X123100000Y-74250000D01*
%TO.N,Net-(D20-DOUT)*%
X119100000Y-77550000D02*
X120436396Y-77550000D01*
X134250000Y-75800000D02*
X135800000Y-74250000D01*
X120436396Y-77550000D02*
X122186396Y-75800000D01*
X135800000Y-74250000D02*
X136700000Y-74250000D01*
X122186396Y-75800000D02*
X134250000Y-75800000D01*
%TO.N,Net-(D21-DOUT)*%
X131800000Y-77550000D02*
X133200000Y-77550000D01*
X146950000Y-75900000D02*
X148600000Y-74250000D01*
X133200000Y-77550000D02*
X134850000Y-75900000D01*
X134850000Y-75900000D02*
X146950000Y-75900000D01*
X148600000Y-74250000D02*
X149400000Y-74250000D01*
%TO.N,Net-(D22-DOUT)*%
X161200000Y-74250000D02*
X162100000Y-74250000D01*
X159550000Y-75900000D02*
X161200000Y-74250000D01*
X144500000Y-77550000D02*
X146000000Y-77550000D01*
X146000000Y-77550000D02*
X147650000Y-75900000D01*
X147650000Y-75900000D02*
X159550000Y-75900000D01*
%TO.N,Net-(D23-DOUT)*%
X158536396Y-77550000D02*
X160286396Y-75800000D01*
X173900000Y-74250000D02*
X174800000Y-74250000D01*
X157200000Y-77550000D02*
X158536396Y-77550000D01*
X160286396Y-75800000D02*
X172350000Y-75800000D01*
X172350000Y-75800000D02*
X173900000Y-74250000D01*
%TO.N,Net-(D24-DOUT)*%
X169900000Y-77550000D02*
X169900000Y-82050000D01*
X169900000Y-82050000D02*
X174800000Y-86950000D01*
%TO.N,Net-(D25-DOUT)*%
X166600000Y-86950000D02*
X169900000Y-90250000D01*
X162100000Y-86950000D02*
X166600000Y-86950000D01*
%TO.N,Net-(D26-DOUT)*%
X153900000Y-86950000D02*
X157200000Y-90250000D01*
X149400000Y-86950000D02*
X153900000Y-86950000D01*
%TO.N,Net-(D27-DOUT)*%
X141200000Y-86950000D02*
X144500000Y-90250000D01*
X136700000Y-86950000D02*
X141200000Y-86950000D01*
%TO.N,Net-(D28-DOUT)*%
X128500000Y-86950000D02*
X131800000Y-90250000D01*
X124000000Y-86950000D02*
X128500000Y-86950000D01*
%TO.N,Net-(D29-DOUT)*%
X115800000Y-86950000D02*
X119100000Y-90250000D01*
X111300000Y-86950000D02*
X115800000Y-86950000D01*
%TO.N,Net-(D30-DOUT)*%
X103100000Y-86950000D02*
X106400000Y-90250000D01*
X98600000Y-86950000D02*
X103100000Y-86950000D01*
%TO.N,Net-(D31-DOUT)*%
X85900000Y-86950000D02*
X90400000Y-86950000D01*
X90400000Y-86950000D02*
X93700000Y-90250000D01*
%TO.N,Net-(D32-DOUT)*%
X81000000Y-90250000D02*
X81000000Y-94750000D01*
X81000000Y-94750000D02*
X85900000Y-99650000D01*
%TO.N,Net-(D33-DOUT)*%
X97700000Y-99650000D02*
X98600000Y-99650000D01*
X82750000Y-101200000D02*
X96150000Y-101200000D01*
X96150000Y-101200000D02*
X97700000Y-99650000D01*
X81000000Y-102950000D02*
X82750000Y-101200000D01*
%TO.N,Net-(D34-DOUT)*%
X95036396Y-102950000D02*
X96686396Y-101300000D01*
X108850000Y-101300000D02*
X110500000Y-99650000D01*
X96686396Y-101300000D02*
X108850000Y-101300000D01*
X110500000Y-99650000D02*
X111300000Y-99650000D01*
X93700000Y-102950000D02*
X95036396Y-102950000D01*
%TO.N,Net-(D35-DOUT)*%
X121550000Y-101300000D02*
X123200000Y-99650000D01*
X123200000Y-99650000D02*
X124000000Y-99650000D01*
X109486396Y-101300000D02*
X121550000Y-101300000D01*
X106400000Y-102950000D02*
X107836396Y-102950000D01*
X107836396Y-102950000D02*
X109486396Y-101300000D01*
%TO.N,Net-(D36-DOUT)*%
X120536396Y-102950000D02*
X122186396Y-101300000D01*
X122186396Y-101300000D02*
X134250000Y-101300000D01*
X134250000Y-101300000D02*
X135900000Y-99650000D01*
X119100000Y-102950000D02*
X120536396Y-102950000D01*
X135900000Y-99650000D02*
X136700000Y-99650000D01*
%TO.N,Net-(D37-DOUT)*%
X133236396Y-102950000D02*
X134768198Y-101418198D01*
X134768198Y-101418198D02*
X146831802Y-101418198D01*
X146831802Y-101418198D02*
X148600000Y-99650000D01*
X148600000Y-99650000D02*
X149400000Y-99650000D01*
X131800000Y-102950000D02*
X133236396Y-102950000D01*
%TO.N,Net-(D38-DOUT)*%
X144500000Y-102950000D02*
X145936396Y-102950000D01*
X145936396Y-102950000D02*
X147586396Y-101300000D01*
X161300000Y-99650000D02*
X162100000Y-99650000D01*
X147586396Y-101300000D02*
X159650000Y-101300000D01*
X159650000Y-101300000D02*
X161300000Y-99650000D01*
%TO.N,Net-(D39-DOUT)*%
X157200000Y-102950000D02*
X158636396Y-102950000D01*
X158636396Y-102950000D02*
X160286396Y-101300000D01*
X173800000Y-99650000D02*
X174800000Y-99650000D01*
X172150000Y-101300000D02*
X173800000Y-99650000D01*
X160286396Y-101300000D02*
X172150000Y-101300000D01*
%TO.N,Net-(D40-DOUT)*%
X169900000Y-107450000D02*
X174800000Y-112350000D01*
X169900000Y-102950000D02*
X169900000Y-107450000D01*
%TO.N,Net-(D41-DOUT)*%
X162100000Y-112350000D02*
X166600000Y-112350000D01*
X166600000Y-112350000D02*
X169900000Y-115650000D01*
%TO.N,Net-(D42-DOUT)*%
X149400000Y-112350000D02*
X153900000Y-112350000D01*
X153900000Y-112350000D02*
X157200000Y-115650000D01*
%TO.N,Net-(D43-DOUT)*%
X136700000Y-112350000D02*
X141200000Y-112350000D01*
X141200000Y-112350000D02*
X144500000Y-115650000D01*
%TO.N,Net-(D44-DOUT)*%
X124000000Y-112350000D02*
X128500000Y-112350000D01*
X128500000Y-112350000D02*
X131800000Y-115650000D01*
%TO.N,Net-(D45-DOUT)*%
X111300000Y-112350000D02*
X115800000Y-112350000D01*
X115800000Y-112350000D02*
X119100000Y-115650000D01*
%TO.N,Net-(D46-DOUT)*%
X103100000Y-112350000D02*
X106400000Y-115650000D01*
X98600000Y-112350000D02*
X103100000Y-112350000D01*
%TO.N,Net-(D47-DOUT)*%
X85900000Y-112350000D02*
X90400000Y-112350000D01*
X90400000Y-112350000D02*
X93700000Y-115650000D01*
%TO.N,Net-(D48-DOUT)*%
X81000000Y-115650000D02*
X81000000Y-120150000D01*
X81000000Y-120150000D02*
X85900000Y-125050000D01*
%TO.N,Net-(D49-DOUT)*%
X97800000Y-125050000D02*
X98600000Y-125050000D01*
X82650000Y-126700000D02*
X96150000Y-126700000D01*
X81000000Y-128350000D02*
X82650000Y-126700000D01*
X96150000Y-126700000D02*
X97800000Y-125050000D01*
%TO.N,Net-(D50-DOUT)*%
X95136396Y-128350000D02*
X96786396Y-126700000D01*
X93700000Y-128350000D02*
X95136396Y-128350000D01*
X108850000Y-126700000D02*
X110500000Y-125050000D01*
X96786396Y-126700000D02*
X108850000Y-126700000D01*
X110500000Y-125050000D02*
X111300000Y-125050000D01*
%TO.N,Net-(D51-DOUT)*%
X121550000Y-126700000D02*
X123200000Y-125050000D01*
X106400000Y-128350000D02*
X107836396Y-128350000D01*
X123200000Y-125050000D02*
X124000000Y-125050000D01*
X109486396Y-126700000D02*
X121550000Y-126700000D01*
X107836396Y-128350000D02*
X109486396Y-126700000D01*
%TO.N,Net-(D52-DOUT)*%
X135900000Y-125050000D02*
X136700000Y-125050000D01*
X120536396Y-128350000D02*
X122186396Y-126700000D01*
X122186396Y-126700000D02*
X134250000Y-126700000D01*
X134250000Y-126700000D02*
X135900000Y-125050000D01*
X119100000Y-128350000D02*
X120536396Y-128350000D01*
%TO.N,Net-(D53-DOUT)*%
X133236396Y-128350000D02*
X134886396Y-126700000D01*
X131800000Y-128350000D02*
X133236396Y-128350000D01*
X148600000Y-125050000D02*
X149400000Y-125050000D01*
X134886396Y-126700000D02*
X146950000Y-126700000D01*
X146950000Y-126700000D02*
X148600000Y-125050000D01*
%TO.N,Net-(D54-DOUT)*%
X161300000Y-125050000D02*
X162100000Y-125050000D01*
X147586396Y-126700000D02*
X159650000Y-126700000D01*
X144500000Y-128350000D02*
X145936396Y-128350000D01*
X145936396Y-128350000D02*
X147586396Y-126700000D01*
X159650000Y-126700000D02*
X161300000Y-125050000D01*
%TO.N,Net-(D55-DOUT)*%
X172350000Y-126600000D02*
X173900000Y-125050000D01*
X160386396Y-126600000D02*
X172350000Y-126600000D01*
X157200000Y-128350000D02*
X158636396Y-128350000D01*
X173900000Y-125050000D02*
X174800000Y-125050000D01*
X158636396Y-128350000D02*
X160386396Y-126600000D01*
%TO.N,Net-(D56-DOUT)*%
X169900000Y-132850000D02*
X174800000Y-137750000D01*
X169900000Y-128350000D02*
X169900000Y-132850000D01*
%TO.N,Net-(D57-DOUT)*%
X162100000Y-137750000D02*
X166600000Y-137750000D01*
X166600000Y-137750000D02*
X169900000Y-141050000D01*
%TO.N,Net-(D58-DOUT)*%
X153900000Y-137750000D02*
X157200000Y-141050000D01*
X149400000Y-137750000D02*
X153900000Y-137750000D01*
%TO.N,Net-(D59-DOUT)*%
X136700000Y-137750000D02*
X141200000Y-137750000D01*
X141200000Y-137750000D02*
X144500000Y-141050000D01*
%TO.N,Net-(D60-DOUT)*%
X128500000Y-137750000D02*
X131800000Y-141050000D01*
X124000000Y-137750000D02*
X128500000Y-137750000D01*
%TO.N,Net-(D61-DOUT)*%
X111300000Y-137750000D02*
X115800000Y-137750000D01*
X115800000Y-137750000D02*
X119100000Y-141050000D01*
%TO.N,Net-(D62-DOUT)*%
X98600000Y-137750000D02*
X103100000Y-137750000D01*
X103100000Y-137750000D02*
X106400000Y-141050000D01*
%TO.N,Net-(D63-DOUT)*%
X90400000Y-137750000D02*
X93700000Y-141050000D01*
X85900000Y-137750000D02*
X90400000Y-137750000D01*
%TO.N,Net-(D65-DOUT)*%
X97600000Y-150450000D02*
X98600000Y-150450000D01*
X82750000Y-152000000D02*
X96050000Y-152000000D01*
X96050000Y-152000000D02*
X97600000Y-150450000D01*
X81000000Y-153750000D02*
X82750000Y-152000000D01*
%TO.N,Net-(D65-DIN)*%
X61936200Y-130644900D02*
X61936200Y-130765000D01*
%TO.N,Net-(D66-DOUT)*%
X95000000Y-153750000D02*
X96750000Y-152000000D01*
X110300000Y-150450000D02*
X111300000Y-150450000D01*
X93700000Y-153750000D02*
X95000000Y-153750000D01*
X108750000Y-152000000D02*
X110300000Y-150450000D01*
X96750000Y-152000000D02*
X108750000Y-152000000D01*
%TO.N,Net-(D67-DOUT)*%
X121550000Y-152000000D02*
X123100000Y-150450000D01*
X106400000Y-153750000D02*
X107700000Y-153750000D01*
X109450000Y-152000000D02*
X121550000Y-152000000D01*
X123100000Y-150450000D02*
X124000000Y-150450000D01*
X107700000Y-153750000D02*
X109450000Y-152000000D01*
%TO.N,Net-(D68-DOUT)*%
X134150000Y-152000000D02*
X135700000Y-150450000D01*
X119100000Y-153750000D02*
X120500000Y-153750000D01*
X122250000Y-152000000D02*
X134150000Y-152000000D01*
X135700000Y-150450000D02*
X136700000Y-150450000D01*
X120500000Y-153750000D02*
X122250000Y-152000000D01*
%TO.N,Net-(D69-DOUT)*%
X146850000Y-152000000D02*
X148400000Y-150450000D01*
X134850000Y-152000000D02*
X146850000Y-152000000D01*
X148400000Y-150450000D02*
X149400000Y-150450000D01*
X131800000Y-153750000D02*
X133100000Y-153750000D01*
X133100000Y-153750000D02*
X134850000Y-152000000D01*
%TO.N,Net-(D70-DOUT)*%
X161000000Y-150450000D02*
X162100000Y-150450000D01*
X147486396Y-152000000D02*
X159450000Y-152000000D01*
X145736396Y-153750000D02*
X147486396Y-152000000D01*
X159450000Y-152000000D02*
X161000000Y-150450000D01*
X144500000Y-153750000D02*
X145736396Y-153750000D01*
%TO.N,Net-(D71-DOUT)*%
X157200000Y-153750000D02*
X158400000Y-153750000D01*
X158400000Y-153750000D02*
X160150000Y-152000000D01*
X172350000Y-152000000D02*
X173900000Y-150450000D01*
X173900000Y-150450000D02*
X174800000Y-150450000D01*
X160150000Y-152000000D02*
X172350000Y-152000000D01*
%TO.N,Net-(D72-DOUT)*%
X169900000Y-158250000D02*
X174800000Y-163150000D01*
X169900000Y-153750000D02*
X169900000Y-158250000D01*
%TO.N,Net-(D73-DOUT)*%
X166600000Y-163150000D02*
X169900000Y-166450000D01*
X162100000Y-163150000D02*
X166600000Y-163150000D01*
%TO.N,Net-(D74-DOUT)*%
X153900000Y-163150000D02*
X157200000Y-166450000D01*
X149400000Y-163150000D02*
X153900000Y-163150000D01*
%TO.N,Net-(D75-DOUT)*%
X141200000Y-163150000D02*
X144500000Y-166450000D01*
X136700000Y-163150000D02*
X141200000Y-163150000D01*
%TO.N,Net-(D76-DOUT)*%
X124000000Y-163150000D02*
X128500000Y-163150000D01*
X128500000Y-163150000D02*
X131800000Y-166450000D01*
%TO.N,Net-(D77-DOUT)*%
X115800000Y-163150000D02*
X119100000Y-166450000D01*
X111300000Y-163150000D02*
X115800000Y-163150000D01*
%TO.N,Net-(D78-DOUT)*%
X98600000Y-163150000D02*
X103100000Y-163150000D01*
X103100000Y-163150000D02*
X106400000Y-166450000D01*
%TO.N,Net-(D79-DOUT)*%
X90400000Y-163150000D02*
X93700000Y-166450000D01*
X85900000Y-163150000D02*
X90400000Y-163150000D01*
%TO.N,Net-(D80-DOUT)*%
X81000000Y-166450000D02*
X81000000Y-170950000D01*
X81000000Y-170950000D02*
X85900000Y-175850000D01*
%TO.N,Net-(D81-DOUT)*%
X81000000Y-179150000D02*
X82650000Y-177500000D01*
X95750000Y-177500000D02*
X97400000Y-175850000D01*
X97400000Y-175850000D02*
X98600000Y-175850000D01*
X82650000Y-177500000D02*
X95750000Y-177500000D01*
%TO.N,Net-(D82-DOUT)*%
X110300000Y-175850000D02*
X111300000Y-175850000D01*
X93700000Y-179150000D02*
X95100000Y-179150000D01*
X96750000Y-177500000D02*
X108650000Y-177500000D01*
X95100000Y-179150000D02*
X96750000Y-177500000D01*
X108650000Y-177500000D02*
X110300000Y-175850000D01*
%TO.N,Net-(D83-DOUT)*%
X121350000Y-177400000D02*
X122900000Y-175850000D01*
X106400000Y-179150000D02*
X107636396Y-179150000D01*
X109386396Y-177400000D02*
X121350000Y-177400000D01*
X122900000Y-175850000D02*
X124000000Y-175850000D01*
X107636396Y-179150000D02*
X109386396Y-177400000D01*
%TO.N,Net-(D84-DOUT)*%
X135500000Y-175850000D02*
X136700000Y-175850000D01*
X122050000Y-177400000D02*
X133950000Y-177400000D01*
X120300000Y-179150000D02*
X122050000Y-177400000D01*
X119100000Y-179150000D02*
X120300000Y-179150000D01*
X133950000Y-177400000D02*
X135500000Y-175850000D01*
%TO.N,Net-(D85-DOUT)*%
X146850000Y-177300000D02*
X148300000Y-175850000D01*
X132836396Y-179150000D02*
X134686396Y-177300000D01*
X148300000Y-175850000D02*
X149400000Y-175850000D01*
X131800000Y-179150000D02*
X132836396Y-179150000D01*
X134686396Y-177300000D02*
X146850000Y-177300000D01*
%TO.N,Net-(D86-DOUT)*%
X159450000Y-177400000D02*
X161000000Y-175850000D01*
X147550000Y-177400000D02*
X159450000Y-177400000D01*
X144500000Y-179150000D02*
X145800000Y-179150000D01*
X161000000Y-175850000D02*
X162100000Y-175850000D01*
X145800000Y-179150000D02*
X147550000Y-177400000D01*
%TO.N,Net-(D88-DOUT)*%
X169900000Y-179150000D02*
X169900000Y-183650000D01*
X169900000Y-183650000D02*
X174800000Y-188550000D01*
%TO.N,Net-(D89-DOUT)*%
X166600000Y-188550000D02*
X169900000Y-191850000D01*
X162100000Y-188550000D02*
X166600000Y-188550000D01*
%TO.N,Net-(D90-DOUT)*%
X149400000Y-188550000D02*
X153900000Y-188550000D01*
X153900000Y-188550000D02*
X157200000Y-191850000D01*
%TO.N,Net-(D91-DOUT)*%
X136700000Y-188550000D02*
X141200000Y-188550000D01*
X141200000Y-188550000D02*
X144500000Y-191850000D01*
%TO.N,Net-(D92-DOUT)*%
X124000000Y-188550000D02*
X128500000Y-188550000D01*
X128500000Y-188550000D02*
X131800000Y-191850000D01*
%TO.N,Net-(D93-DOUT)*%
X115800000Y-188550000D02*
X119100000Y-191850000D01*
X111300000Y-188550000D02*
X115800000Y-188550000D01*
%TO.N,Net-(D94-DOUT)*%
X103100000Y-188550000D02*
X106400000Y-191850000D01*
X98600000Y-188550000D02*
X103100000Y-188550000D01*
%TO.N,Net-(D95-DOUT)*%
X90400000Y-188550000D02*
X93700000Y-191850000D01*
X85900000Y-188550000D02*
X90400000Y-188550000D01*
%TO.N,Net-(D96-DOUT)*%
X81000000Y-196350000D02*
X85900000Y-201250000D01*
X81000000Y-191850000D02*
X81000000Y-196350000D01*
%TO.N,Net-(D97-DOUT)*%
X95850000Y-202800000D02*
X97400000Y-201250000D01*
X97400000Y-201250000D02*
X98600000Y-201250000D01*
X82750000Y-202800000D02*
X95850000Y-202800000D01*
X81000000Y-204550000D02*
X82750000Y-202800000D01*
%TO.N,Net-(D98-DOUT)*%
X96750000Y-202800000D02*
X108550000Y-202800000D01*
X93700000Y-204550000D02*
X95000000Y-204550000D01*
X110100000Y-201250000D02*
X111300000Y-201250000D01*
X108550000Y-202800000D02*
X110100000Y-201250000D01*
X95000000Y-204550000D02*
X96750000Y-202800000D01*
%TO.N,Net-(D100-DIN)*%
X121250000Y-202800000D02*
X122800000Y-201250000D01*
X122800000Y-201250000D02*
X124000000Y-201250000D01*
X109250000Y-202800000D02*
X121250000Y-202800000D01*
X107500000Y-204550000D02*
X109250000Y-202800000D01*
X106400000Y-204550000D02*
X107500000Y-204550000D01*
%TO.N,Net-(D100-DOUT)*%
X121950000Y-202800000D02*
X133950000Y-202800000D01*
X135500000Y-201250000D02*
X136700000Y-201250000D01*
X120200000Y-204550000D02*
X121950000Y-202800000D01*
X133950000Y-202800000D02*
X135500000Y-201250000D01*
X119100000Y-204550000D02*
X120200000Y-204550000D01*
%TO.N,Net-(D101-DOUT)*%
X148200000Y-201250000D02*
X149400000Y-201250000D01*
X134750000Y-202800000D02*
X146650000Y-202800000D01*
X146650000Y-202800000D02*
X148200000Y-201250000D01*
X131800000Y-204550000D02*
X133000000Y-204550000D01*
X133000000Y-204550000D02*
X134750000Y-202800000D01*
%TO.N,Net-(D102-DOUT)*%
X144500000Y-204550000D02*
X145700000Y-204550000D01*
X147450000Y-202800000D02*
X159150000Y-202800000D01*
X160700000Y-201250000D02*
X162100000Y-201250000D01*
X145700000Y-204550000D02*
X147450000Y-202800000D01*
X159150000Y-202800000D02*
X160700000Y-201250000D01*
%TO.N,Net-(D103-DOUT)*%
X172050000Y-202800000D02*
X173600000Y-201250000D01*
X159950000Y-202800000D02*
X172050000Y-202800000D01*
X173600000Y-201250000D02*
X174800000Y-201250000D01*
X157200000Y-204550000D02*
X158200000Y-204550000D01*
X158200000Y-204550000D02*
X159950000Y-202800000D01*
%TO.N,Net-(D104-DOUT)*%
X169900000Y-204550000D02*
X169900000Y-209050000D01*
X169900000Y-209050000D02*
X174800000Y-213950000D01*
%TO.N,Net-(D105-DOUT)*%
X166600000Y-213950000D02*
X169900000Y-217250000D01*
X162100000Y-213950000D02*
X166600000Y-213950000D01*
%TO.N,Net-(D106-DOUT)*%
X149400000Y-213950000D02*
X153900000Y-213950000D01*
X153900000Y-213950000D02*
X157200000Y-217250000D01*
%TO.N,Net-(D107-DOUT)*%
X141200000Y-213950000D02*
X144500000Y-217250000D01*
X136700000Y-213950000D02*
X141200000Y-213950000D01*
%TO.N,Net-(D108-DOUT)*%
X128500000Y-213950000D02*
X131800000Y-217250000D01*
X124000000Y-213950000D02*
X128500000Y-213950000D01*
%TO.N,Net-(D109-DOUT)*%
X111300000Y-213950000D02*
X115800000Y-213950000D01*
X115800000Y-213950000D02*
X119100000Y-217250000D01*
%TO.N,Net-(D110-DOUT)*%
X98600000Y-213950000D02*
X103100000Y-213950000D01*
X103100000Y-213950000D02*
X106400000Y-217250000D01*
%TO.N,Net-(D111-DOUT)*%
X90400000Y-213950000D02*
X93700000Y-217250000D01*
X85900000Y-213950000D02*
X90400000Y-213950000D01*
%TO.N,Net-(D112-DOUT)*%
X81000000Y-221750000D02*
X85900000Y-226650000D01*
X81000000Y-217250000D02*
X81000000Y-221750000D01*
%TO.N,Net-(D113-DOUT)*%
X82750000Y-228200000D02*
X95650000Y-228200000D01*
X95650000Y-228200000D02*
X97200000Y-226650000D01*
X97200000Y-226650000D02*
X98600000Y-226650000D01*
X81000000Y-229950000D02*
X82750000Y-228200000D01*
%TO.N,Net-(D114-DOUT)*%
X93700000Y-229950000D02*
X94700000Y-229950000D01*
X108750000Y-228200000D02*
X110300000Y-226650000D01*
X110300000Y-226650000D02*
X111300000Y-226650000D01*
X94700000Y-229950000D02*
X96450000Y-228200000D01*
X96450000Y-228200000D02*
X108750000Y-228200000D01*
%TO.N,Net-(D115-DOUT)*%
X121350000Y-228200000D02*
X122900000Y-226650000D01*
X109386396Y-228200000D02*
X121350000Y-228200000D01*
X122900000Y-226650000D02*
X124000000Y-226650000D01*
X107636396Y-229950000D02*
X109386396Y-228200000D01*
X106400000Y-229950000D02*
X107636396Y-229950000D01*
%TO.N,Net-(D117-DOUT)*%
X148100000Y-226650000D02*
X149400000Y-226650000D01*
X131800000Y-229950000D02*
X132936396Y-229950000D01*
X146550000Y-228200000D02*
X148100000Y-226650000D01*
X134686396Y-228200000D02*
X146550000Y-228200000D01*
X132936396Y-229950000D02*
X134686396Y-228200000D01*
%TO.N,Net-(D118-DOUT)*%
X147250000Y-228200000D02*
X159150000Y-228200000D01*
X145500000Y-229950000D02*
X147250000Y-228200000D01*
X160700000Y-226650000D02*
X162100000Y-226650000D01*
X159150000Y-228200000D02*
X160700000Y-226650000D01*
X144500000Y-229950000D02*
X145500000Y-229950000D01*
%TO.N,Net-(D119-DOUT)*%
X159950000Y-228200000D02*
X171950000Y-228200000D01*
X157200000Y-229950000D02*
X158200000Y-229950000D01*
X173500000Y-226650000D02*
X174800000Y-226650000D01*
X171950000Y-228200000D02*
X173500000Y-226650000D01*
X158200000Y-229950000D02*
X159950000Y-228200000D01*
%TO.N,Net-(D120-DOUT)*%
X169900000Y-234450000D02*
X174800000Y-239350000D01*
X169900000Y-229950000D02*
X169900000Y-234450000D01*
%TO.N,Net-(D121-DOUT)*%
X166600000Y-239350000D02*
X169900000Y-242650000D01*
X162100000Y-239350000D02*
X166600000Y-239350000D01*
%TO.N,Net-(D122-DOUT)*%
X153900000Y-239350000D02*
X157200000Y-242650000D01*
X149400000Y-239350000D02*
X153900000Y-239350000D01*
%TO.N,Net-(D123-DOUT)*%
X141200000Y-239350000D02*
X144500000Y-242650000D01*
X136700000Y-239350000D02*
X141200000Y-239350000D01*
%TO.N,Net-(D124-DOUT)*%
X128500000Y-239350000D02*
X131800000Y-242650000D01*
X124000000Y-239350000D02*
X128500000Y-239350000D01*
%TO.N,Net-(D125-DOUT)*%
X111300000Y-239350000D02*
X115800000Y-239350000D01*
X115800000Y-239350000D02*
X119100000Y-242650000D01*
%TO.N,Net-(D126-DOUT)*%
X98600000Y-239350000D02*
X103100000Y-239350000D01*
X103100000Y-239350000D02*
X106400000Y-242650000D01*
%TO.N,Net-(D127-DOUT)*%
X90400000Y-239350000D02*
X93700000Y-242650000D01*
X85900000Y-239350000D02*
X90400000Y-239350000D01*
%TO.N,Net-(D129-DOUT)*%
X184350000Y-50400000D02*
X197450000Y-50400000D01*
X199000000Y-48850000D02*
X200200000Y-48850000D01*
X182600000Y-52150000D02*
X184350000Y-50400000D01*
X197450000Y-50400000D02*
X199000000Y-48850000D01*
%TO.N,Net-(D130-DOUT)*%
X198086396Y-50400000D02*
X210250000Y-50400000D01*
X196336396Y-52150000D02*
X198086396Y-50400000D01*
X195300000Y-52150000D02*
X196336396Y-52150000D01*
X210250000Y-50400000D02*
X211800000Y-48850000D01*
X211800000Y-48850000D02*
X212900000Y-48850000D01*
%TO.N,Net-(D131-DOUT)*%
X209136396Y-52150000D02*
X210886396Y-50400000D01*
X210886396Y-50400000D02*
X222850000Y-50400000D01*
X222850000Y-50400000D02*
X224400000Y-48850000D01*
X208000000Y-52150000D02*
X209136396Y-52150000D01*
X224400000Y-48850000D02*
X225600000Y-48850000D01*
%TO.N,Net-(D132-DOUT)*%
X237000000Y-48850000D02*
X238300000Y-48850000D01*
X223650000Y-50400000D02*
X235450000Y-50400000D01*
X235450000Y-50400000D02*
X237000000Y-48850000D01*
X221900000Y-52150000D02*
X223650000Y-50400000D01*
X220700000Y-52150000D02*
X221900000Y-52150000D01*
%TO.N,Net-(D133-DOUT)*%
X236050000Y-50500000D02*
X248250000Y-50500000D01*
X249900000Y-48850000D02*
X251000000Y-48850000D01*
X233400000Y-52150000D02*
X234400000Y-52150000D01*
X248250000Y-50500000D02*
X249900000Y-48850000D01*
X234400000Y-52150000D02*
X236050000Y-50500000D01*
%TO.N,Net-(D134-DOUT)*%
X262700000Y-48850000D02*
X263700000Y-48850000D01*
X247236396Y-52150000D02*
X248886396Y-50500000D01*
X261050000Y-50500000D02*
X262700000Y-48850000D01*
X246100000Y-52150000D02*
X247236396Y-52150000D01*
X248886396Y-50500000D02*
X261050000Y-50500000D01*
%TO.N,Net-(D135-DOUT)*%
X275400000Y-48850000D02*
X276400000Y-48850000D01*
X260036396Y-52150000D02*
X261686396Y-50500000D01*
X261686396Y-50500000D02*
X273750000Y-50500000D01*
X258800000Y-52150000D02*
X260036396Y-52150000D01*
X273750000Y-50500000D02*
X275400000Y-48850000D01*
%TO.N,Net-(D136-DOUT)*%
X271500000Y-56650000D02*
X276400000Y-61550000D01*
X271500000Y-52150000D02*
X271500000Y-56650000D01*
%TO.N,Net-(D137-DOUT)*%
X268200000Y-61550000D02*
X271500000Y-64850000D01*
X263700000Y-61550000D02*
X268200000Y-61550000D01*
%TO.N,Net-(D138-DOUT)*%
X251000000Y-61550000D02*
X255500000Y-61550000D01*
X255500000Y-61550000D02*
X258800000Y-64850000D01*
%TO.N,Net-(D139-DOUT)*%
X238300000Y-61550000D02*
X242800000Y-61550000D01*
X242800000Y-61550000D02*
X246100000Y-64850000D01*
%TO.N,Net-(D140-DOUT)*%
X225600000Y-61550000D02*
X230100000Y-61550000D01*
X230100000Y-61550000D02*
X233400000Y-64850000D01*
%TO.N,Net-(D141-DOUT)*%
X217400000Y-61550000D02*
X220700000Y-64850000D01*
X212900000Y-61550000D02*
X217400000Y-61550000D01*
%TO.N,Net-(D142-DOUT)*%
X200200000Y-61550000D02*
X204700000Y-61550000D01*
X204700000Y-61550000D02*
X208000000Y-64850000D01*
%TO.N,Net-(D143-DOUT)*%
X187500000Y-61550000D02*
X192000000Y-61550000D01*
X192000000Y-61550000D02*
X195300000Y-64850000D01*
%TO.N,Net-(D144-DOUT)*%
X182600000Y-69350000D02*
X187500000Y-74250000D01*
X182600000Y-64850000D02*
X182600000Y-69350000D01*
%TO.N,Net-(D145-DOUT)*%
X199100000Y-74250000D02*
X200200000Y-74250000D01*
X197450000Y-75900000D02*
X199100000Y-74250000D01*
X184250000Y-75900000D02*
X197450000Y-75900000D01*
X182600000Y-77550000D02*
X184250000Y-75900000D01*
%TO.N,Net-(D146-DOUT)*%
X198086396Y-75900000D02*
X210250000Y-75900000D01*
X196436396Y-77550000D02*
X198086396Y-75900000D01*
X211900000Y-74250000D02*
X212900000Y-74250000D01*
X210250000Y-75900000D02*
X211900000Y-74250000D01*
X195300000Y-77550000D02*
X196436396Y-77550000D01*
%TO.N,Net-(D147-DOUT)*%
X222850000Y-75900000D02*
X224500000Y-74250000D01*
X210886396Y-75900000D02*
X222850000Y-75900000D01*
X224500000Y-74250000D02*
X225600000Y-74250000D01*
X209236396Y-77550000D02*
X210886396Y-75900000D01*
X208000000Y-77550000D02*
X209236396Y-77550000D01*
%TO.N,Net-(D148-DOUT)*%
X221836396Y-77550000D02*
X223486396Y-75900000D01*
X237200000Y-74250000D02*
X238300000Y-74250000D01*
X235550000Y-75900000D02*
X237200000Y-74250000D01*
X223486396Y-75900000D02*
X235550000Y-75900000D01*
X220700000Y-77550000D02*
X221836396Y-77550000D01*
%TO.N,Net-(D149-DOUT)*%
X234700000Y-77550000D02*
X236250000Y-76000000D01*
X249900000Y-74250000D02*
X251000000Y-74250000D01*
X233400000Y-77550000D02*
X234700000Y-77550000D01*
X248150000Y-76000000D02*
X249900000Y-74250000D01*
X236250000Y-76000000D02*
X248150000Y-76000000D01*
%TO.N,Net-(D150-DOUT)*%
X246100000Y-77550000D02*
X247400000Y-77550000D01*
X260750000Y-76000000D02*
X262500000Y-74250000D01*
X248950000Y-76000000D02*
X260750000Y-76000000D01*
X262500000Y-74250000D02*
X263700000Y-74250000D01*
X247400000Y-77550000D02*
X248950000Y-76000000D01*
%TO.N,Net-(D151-DOUT)*%
X259900000Y-77550000D02*
X261450000Y-76000000D01*
X275300000Y-74250000D02*
X276400000Y-74250000D01*
X261450000Y-76000000D02*
X273550000Y-76000000D01*
X258800000Y-77550000D02*
X259900000Y-77550000D01*
X273550000Y-76000000D02*
X275300000Y-74250000D01*
%TO.N,Net-(D152-DOUT)*%
X271500000Y-77550000D02*
X271500000Y-82050000D01*
X271500000Y-82050000D02*
X276400000Y-86950000D01*
%TO.N,Net-(D153-DOUT)*%
X263700000Y-86950000D02*
X268200000Y-86950000D01*
X268200000Y-86950000D02*
X271500000Y-90250000D01*
%TO.N,Net-(D154-DOUT)*%
X251000000Y-86950000D02*
X255500000Y-86950000D01*
X255500000Y-86950000D02*
X258800000Y-90250000D01*
%TO.N,Net-(D155-DOUT)*%
X242800000Y-86950000D02*
X246100000Y-90250000D01*
X238300000Y-86950000D02*
X242800000Y-86950000D01*
%TO.N,Net-(D156-DOUT)*%
X225600000Y-86950000D02*
X230100000Y-86950000D01*
X230100000Y-86950000D02*
X233400000Y-90250000D01*
%TO.N,Net-(D157-DOUT)*%
X217400000Y-86950000D02*
X220700000Y-90250000D01*
X212900000Y-86950000D02*
X217400000Y-86950000D01*
%TO.N,Net-(D158-DOUT)*%
X204700000Y-86950000D02*
X208000000Y-90250000D01*
X200200000Y-86950000D02*
X204700000Y-86950000D01*
%TO.N,Net-(D159-DOUT)*%
X187500000Y-86950000D02*
X192000000Y-86950000D01*
X192000000Y-86950000D02*
X195300000Y-90250000D01*
%TO.N,Net-(D160-DOUT)*%
X182600000Y-90250000D02*
X182600000Y-94750000D01*
X182600000Y-94750000D02*
X187500000Y-99650000D01*
%TO.N,Net-(D162-DOUT)*%
X210150000Y-101300000D02*
X211800000Y-99650000D01*
X197986396Y-101300000D02*
X210150000Y-101300000D01*
X196336396Y-102950000D02*
X197986396Y-101300000D01*
X211800000Y-99650000D02*
X212900000Y-99650000D01*
X195300000Y-102950000D02*
X196336396Y-102950000D01*
%TO.N,Net-(D163-DOUT)*%
X222850000Y-101200000D02*
X224400000Y-99650000D01*
X224400000Y-99650000D02*
X225600000Y-99650000D01*
X208000000Y-102950000D02*
X209300000Y-102950000D01*
X211050000Y-101200000D02*
X222850000Y-101200000D01*
X209300000Y-102950000D02*
X211050000Y-101200000D01*
%TO.N,Net-(D164-DOUT)*%
X221900000Y-102950000D02*
X223550000Y-101300000D01*
X223550000Y-101300000D02*
X235450000Y-101300000D01*
X235450000Y-101300000D02*
X237100000Y-99650000D01*
X220700000Y-102950000D02*
X221900000Y-102950000D01*
X237100000Y-99650000D02*
X238300000Y-99650000D01*
%TO.N,Net-(D165-DOUT)*%
X234500000Y-102950000D02*
X236150000Y-101300000D01*
X236150000Y-101300000D02*
X248150000Y-101300000D01*
X249800000Y-99650000D02*
X251000000Y-99650000D01*
X233400000Y-102950000D02*
X234500000Y-102950000D01*
X248150000Y-101300000D02*
X249800000Y-99650000D01*
%TO.N,Net-(D166-DOUT)*%
X248950000Y-101300000D02*
X261050000Y-101300000D01*
X262700000Y-99650000D02*
X263700000Y-99650000D01*
X261050000Y-101300000D02*
X262700000Y-99650000D01*
X247300000Y-102950000D02*
X248950000Y-101300000D01*
X246100000Y-102950000D02*
X247300000Y-102950000D01*
%TO.N,Net-(D167-DOUT)*%
X273550000Y-101300000D02*
X275200000Y-99650000D01*
X260036396Y-102950000D02*
X261686396Y-101300000D01*
X261686396Y-101300000D02*
X273550000Y-101300000D01*
X258800000Y-102950000D02*
X260036396Y-102950000D01*
X275200000Y-99650000D02*
X276400000Y-99650000D01*
%TO.N,Net-(D168-DOUT)*%
X271500000Y-102950000D02*
X271500000Y-107450000D01*
X271500000Y-107450000D02*
X276400000Y-112350000D01*
%TO.N,Net-(D169-DOUT)*%
X268200000Y-112350000D02*
X271500000Y-115650000D01*
X263700000Y-112350000D02*
X268200000Y-112350000D01*
%TO.N,Net-(D170-DOUT)*%
X255500000Y-112350000D02*
X258800000Y-115650000D01*
X251000000Y-112350000D02*
X255500000Y-112350000D01*
%TO.N,Net-(D171-DOUT)*%
X238300000Y-112350000D02*
X242800000Y-112350000D01*
X242800000Y-112350000D02*
X246100000Y-115650000D01*
%TO.N,Net-(D172-DOUT)*%
X230100000Y-112350000D02*
X233400000Y-115650000D01*
X225600000Y-112350000D02*
X230100000Y-112350000D01*
%TO.N,Net-(D173-DOUT)*%
X212900000Y-112350000D02*
X217400000Y-112350000D01*
X217400000Y-112350000D02*
X220700000Y-115650000D01*
%TO.N,Net-(D174-DOUT)*%
X200200000Y-112350000D02*
X204700000Y-112350000D01*
X204700000Y-112350000D02*
X208000000Y-115650000D01*
%TO.N,Net-(D175-DOUT)*%
X192000000Y-112350000D02*
X195300000Y-115650000D01*
X187500000Y-112350000D02*
X192000000Y-112350000D01*
%TO.N,Net-(D176-DOUT)*%
X182600000Y-115650000D02*
X182600000Y-120150000D01*
X182600000Y-120150000D02*
X187500000Y-125050000D01*
%TO.N,Net-(D177-DOUT)*%
X184250000Y-126700000D02*
X197250000Y-126700000D01*
X197250000Y-126700000D02*
X198900000Y-125050000D01*
X182600000Y-128350000D02*
X184250000Y-126700000D01*
X198900000Y-125050000D02*
X200200000Y-125050000D01*
%TO.N,Net-(D178-DOUT)*%
X211500000Y-125050000D02*
X212900000Y-125050000D01*
X209950000Y-126600000D02*
X211500000Y-125050000D01*
X195300000Y-128350000D02*
X196300000Y-128350000D01*
X198050000Y-126600000D02*
X209950000Y-126600000D01*
X196300000Y-128350000D02*
X198050000Y-126600000D01*
%TO.N,Net-(D179-DOUT)*%
X222750000Y-126600000D02*
X224300000Y-125050000D01*
X209000000Y-128350000D02*
X210750000Y-126600000D01*
X210750000Y-126600000D02*
X222750000Y-126600000D01*
X224300000Y-125050000D02*
X225600000Y-125050000D01*
X208000000Y-128350000D02*
X209000000Y-128350000D01*
%TO.N,Net-(D180-DOUT)*%
X235450000Y-126700000D02*
X237100000Y-125050000D01*
X237100000Y-125050000D02*
X238300000Y-125050000D01*
X223350000Y-126700000D02*
X235450000Y-126700000D01*
X220700000Y-128350000D02*
X221700000Y-128350000D01*
X221700000Y-128350000D02*
X223350000Y-126700000D01*
%TO.N,Net-(D181-DOUT)*%
X247950000Y-126700000D02*
X249600000Y-125050000D01*
X249600000Y-125050000D02*
X251000000Y-125050000D01*
X234500000Y-128350000D02*
X236150000Y-126700000D01*
X233400000Y-128350000D02*
X234500000Y-128350000D01*
X236150000Y-126700000D02*
X247950000Y-126700000D01*
%TO.N,Net-(D182-DOUT)*%
X260850000Y-126600000D02*
X262400000Y-125050000D01*
X248850000Y-126600000D02*
X260850000Y-126600000D01*
X247100000Y-128350000D02*
X248850000Y-126600000D01*
X262400000Y-125050000D02*
X263700000Y-125050000D01*
X246100000Y-128350000D02*
X247100000Y-128350000D01*
%TO.N,Net-(D183-DOUT)*%
X273750000Y-126600000D02*
X275300000Y-125050000D01*
X259800000Y-128350000D02*
X261550000Y-126600000D01*
X261550000Y-126600000D02*
X273750000Y-126600000D01*
X258800000Y-128350000D02*
X259800000Y-128350000D01*
X275300000Y-125050000D02*
X276400000Y-125050000D01*
%TO.N,Net-(D184-DOUT)*%
X271500000Y-132850000D02*
X276400000Y-137750000D01*
X271500000Y-128350000D02*
X271500000Y-132850000D01*
%TO.N,Net-(D185-DOUT)*%
X263700000Y-137750000D02*
X268200000Y-137750000D01*
X268200000Y-137750000D02*
X271500000Y-141050000D01*
%TO.N,Net-(D186-DOUT)*%
X255500000Y-137750000D02*
X258800000Y-141050000D01*
X251000000Y-137750000D02*
X255500000Y-137750000D01*
%TO.N,Net-(D187-DOUT)*%
X242800000Y-137750000D02*
X246100000Y-141050000D01*
X238300000Y-137750000D02*
X242800000Y-137750000D01*
%TO.N,Net-(D188-DOUT)*%
X225600000Y-137750000D02*
X230100000Y-137750000D01*
X230100000Y-137750000D02*
X233400000Y-141050000D01*
%TO.N,Net-(D189-DOUT)*%
X217400000Y-137750000D02*
X220700000Y-141050000D01*
X212900000Y-137750000D02*
X217400000Y-137750000D01*
%TO.N,Net-(D190-DOUT)*%
X204700000Y-137750000D02*
X208000000Y-141050000D01*
X200200000Y-137750000D02*
X204700000Y-137750000D01*
%TO.N,Net-(D191-DOUT)*%
X187500000Y-137750000D02*
X192000000Y-137750000D01*
X192000000Y-137750000D02*
X195300000Y-141050000D01*
%TO.N,Net-(D193-DOUT)*%
X182600000Y-153750000D02*
X184250000Y-152100000D01*
X197250000Y-152100000D02*
X198900000Y-150450000D01*
X198900000Y-150450000D02*
X200200000Y-150450000D01*
X184250000Y-152100000D02*
X197250000Y-152100000D01*
%TO.N,Net-(D193-DIN)*%
X67000000Y-122700000D02*
X72700000Y-122700000D01*
X66213800Y-128225000D02*
X65548200Y-127559400D01*
X65548200Y-123810600D02*
X66658800Y-122700000D01*
X75700000Y-125700000D02*
X76700000Y-126700000D01*
X66658800Y-122700000D02*
X67000000Y-122700000D01*
X76700000Y-126700000D02*
X76800000Y-126700000D01*
X65548200Y-127559400D02*
X65548200Y-123810600D01*
X66863800Y-128225000D02*
X66213800Y-128225000D01*
X72700000Y-122700000D02*
X75700000Y-125700000D01*
%TO.N,Net-(D194-DOUT)*%
X198250000Y-152100000D02*
X209850000Y-152100000D01*
X211500000Y-150450000D02*
X212900000Y-150450000D01*
X209850000Y-152100000D02*
X211500000Y-150450000D01*
X196600000Y-153750000D02*
X198250000Y-152100000D01*
X195300000Y-153750000D02*
X196600000Y-153750000D01*
%TO.N,Net-(D195-DOUT)*%
X210750000Y-152100000D02*
X222650000Y-152100000D01*
X222650000Y-152100000D02*
X224300000Y-150450000D01*
X209100000Y-153750000D02*
X210750000Y-152100000D01*
X208000000Y-153750000D02*
X209100000Y-153750000D01*
X224300000Y-150450000D02*
X225600000Y-150450000D01*
%TO.N,Net-(D196-DOUT)*%
X222000000Y-153750000D02*
X223650000Y-152100000D01*
X220700000Y-153750000D02*
X222000000Y-153750000D01*
X236900000Y-150450000D02*
X238300000Y-150450000D01*
X235250000Y-152100000D02*
X236900000Y-150450000D01*
X223650000Y-152100000D02*
X235250000Y-152100000D01*
%TO.N,Net-(D197-DOUT)*%
X233400000Y-153750000D02*
X234400000Y-153750000D01*
X234400000Y-153750000D02*
X236050000Y-152100000D01*
X247950000Y-152100000D02*
X249600000Y-150450000D01*
X236050000Y-152100000D02*
X247950000Y-152100000D01*
X249600000Y-150450000D02*
X251000000Y-150450000D01*
%TO.N,Net-(D198-DOUT)*%
X247000000Y-153750000D02*
X248750000Y-152000000D01*
X262300000Y-150450000D02*
X263700000Y-150450000D01*
X260750000Y-152000000D02*
X262300000Y-150450000D01*
X246100000Y-153750000D02*
X247000000Y-153750000D01*
X248750000Y-152000000D02*
X260750000Y-152000000D01*
%TO.N,Net-(D199-DOUT)*%
X259800000Y-153750000D02*
X261650000Y-151900000D01*
X261650000Y-151900000D02*
X273350000Y-151900000D01*
X258800000Y-153750000D02*
X259800000Y-153750000D01*
X273350000Y-151900000D02*
X274800000Y-150450000D01*
X274800000Y-150450000D02*
X276400000Y-150450000D01*
%TO.N,Net-(D200-DOUT)*%
X271500000Y-158250000D02*
X276400000Y-163150000D01*
X271500000Y-153750000D02*
X271500000Y-158250000D01*
%TO.N,Net-(D201-DOUT)*%
X263700000Y-163150000D02*
X268200000Y-163150000D01*
X268200000Y-163150000D02*
X271500000Y-166450000D01*
%TO.N,Net-(D202-DOUT)*%
X251000000Y-163150000D02*
X255500000Y-163150000D01*
X255500000Y-163150000D02*
X258800000Y-166450000D01*
%TO.N,Net-(D203-DOUT)*%
X242800000Y-163150000D02*
X246100000Y-166450000D01*
X238300000Y-163150000D02*
X242800000Y-163150000D01*
%TO.N,Net-(D204-DOUT)*%
X225600000Y-163150000D02*
X230100000Y-163150000D01*
X230100000Y-163150000D02*
X233400000Y-166450000D01*
%TO.N,Net-(D205-DOUT)*%
X217400000Y-163150000D02*
X220700000Y-166450000D01*
X212900000Y-163150000D02*
X217400000Y-163150000D01*
%TO.N,Net-(D206-DOUT)*%
X200200000Y-163150000D02*
X204700000Y-163150000D01*
X204700000Y-163150000D02*
X208000000Y-166450000D01*
%TO.N,Net-(D207-DOUT)*%
X187500000Y-163150000D02*
X192000000Y-163150000D01*
X192000000Y-163150000D02*
X195300000Y-166450000D01*
%TO.N,Net-(D208-DOUT)*%
X182600000Y-170950000D02*
X187500000Y-175850000D01*
X182600000Y-166450000D02*
X182600000Y-170950000D01*
%TO.N,Net-(D209-DOUT)*%
X197150000Y-177400000D02*
X198700000Y-175850000D01*
X198700000Y-175850000D02*
X200200000Y-175850000D01*
X184350000Y-177400000D02*
X197150000Y-177400000D01*
X182600000Y-179150000D02*
X184350000Y-177400000D01*
%TO.N,Net-(D210-DOUT)*%
X195300000Y-179150000D02*
X196300000Y-179150000D01*
X197950000Y-177500000D02*
X209950000Y-177500000D01*
X196300000Y-179150000D02*
X197950000Y-177500000D01*
X209950000Y-177500000D02*
X211600000Y-175850000D01*
X211600000Y-175850000D02*
X212900000Y-175850000D01*
%TO.N,Net-(D211-DOUT)*%
X224400000Y-175850000D02*
X225600000Y-175850000D01*
X208000000Y-179150000D02*
X209000000Y-179150000D01*
X209000000Y-179150000D02*
X210650000Y-177500000D01*
X210650000Y-177500000D02*
X222750000Y-177500000D01*
X222750000Y-177500000D02*
X224400000Y-175850000D01*
%TO.N,Net-(D212-DOUT)*%
X235250000Y-177500000D02*
X236900000Y-175850000D01*
X220700000Y-179150000D02*
X222000000Y-179150000D01*
X222000000Y-179150000D02*
X223650000Y-177500000D01*
X236900000Y-175850000D02*
X238300000Y-175850000D01*
X223650000Y-177500000D02*
X235250000Y-177500000D01*
%TO.N,Net-(D213-DOUT)*%
X234400000Y-179150000D02*
X236150000Y-177400000D01*
X249700000Y-175850000D02*
X251000000Y-175850000D01*
X236150000Y-177400000D02*
X248150000Y-177400000D01*
X248150000Y-177400000D02*
X249700000Y-175850000D01*
X233400000Y-179150000D02*
X234400000Y-179150000D01*
%TO.N,Net-(D215-DOUT)*%
X261850000Y-177400000D02*
X274850000Y-177400000D01*
X260100000Y-179150000D02*
X261850000Y-177400000D01*
X258800000Y-179150000D02*
X260100000Y-179150000D01*
X274850000Y-177400000D02*
X276400000Y-175850000D01*
%TO.N,Net-(D216-DOUT)*%
X271500000Y-183650000D02*
X276400000Y-188550000D01*
X271500000Y-179150000D02*
X271500000Y-183650000D01*
%TO.N,Net-(D217-DOUT)*%
X263700000Y-188550000D02*
X268200000Y-188550000D01*
X268200000Y-188550000D02*
X271500000Y-191850000D01*
%TO.N,Net-(D218-DOUT)*%
X255500000Y-188550000D02*
X258800000Y-191850000D01*
X251000000Y-188550000D02*
X255500000Y-188550000D01*
%TO.N,Net-(D219-DOUT)*%
X242800000Y-188550000D02*
X246100000Y-191850000D01*
X238300000Y-188550000D02*
X242800000Y-188550000D01*
%TO.N,Net-(D220-DOUT)*%
X230100000Y-188550000D02*
X233400000Y-191850000D01*
X225600000Y-188550000D02*
X230100000Y-188550000D01*
%TO.N,Net-(D221-DOUT)*%
X217400000Y-188550000D02*
X220700000Y-191850000D01*
X212900000Y-188550000D02*
X217400000Y-188550000D01*
%TO.N,Net-(D222-DOUT)*%
X200200000Y-188550000D02*
X204700000Y-188550000D01*
X204700000Y-188550000D02*
X208000000Y-191850000D01*
%TO.N,Net-(D223-DOUT)*%
X187500000Y-188550000D02*
X192000000Y-188550000D01*
X192000000Y-188550000D02*
X195300000Y-191850000D01*
%TO.N,Net-(D224-DOUT)*%
X182600000Y-191850000D02*
X182600000Y-196350000D01*
X182600000Y-196350000D02*
X187500000Y-201250000D01*
%TO.N,Net-(D225-DOUT)*%
X198900000Y-201250000D02*
X200200000Y-201250000D01*
X197350000Y-202800000D02*
X198900000Y-201250000D01*
X184350000Y-202800000D02*
X197350000Y-202800000D01*
X182600000Y-204550000D02*
X184350000Y-202800000D01*
%TO.N,Net-(D226-DOUT)*%
X198050000Y-202800000D02*
X209950000Y-202800000D01*
X195300000Y-204550000D02*
X196300000Y-204550000D01*
X209950000Y-202800000D02*
X211500000Y-201250000D01*
X196300000Y-204550000D02*
X198050000Y-202800000D01*
X211500000Y-201250000D02*
X212900000Y-201250000D01*
%TO.N,Net-(D227-DOUT)*%
X222750000Y-202800000D02*
X224300000Y-201250000D01*
X208000000Y-204550000D02*
X209000000Y-204550000D01*
X224300000Y-201250000D02*
X225600000Y-201250000D01*
X210750000Y-202800000D02*
X222750000Y-202800000D01*
X209000000Y-204550000D02*
X210750000Y-202800000D01*
%TO.N,Net-(D228-DOUT)*%
X223450000Y-202800000D02*
X235050000Y-202800000D01*
X236600000Y-201250000D02*
X238300000Y-201250000D01*
X221700000Y-204550000D02*
X223450000Y-202800000D01*
X235050000Y-202800000D02*
X236600000Y-201250000D01*
X220700000Y-204550000D02*
X221700000Y-204550000D01*
%TO.N,Net-(D229-DOUT)*%
X248050000Y-202800000D02*
X249600000Y-201250000D01*
X236150000Y-202800000D02*
X248050000Y-202800000D01*
X249600000Y-201250000D02*
X251000000Y-201250000D01*
X233400000Y-204550000D02*
X234400000Y-204550000D01*
X234400000Y-204550000D02*
X236150000Y-202800000D01*
%TO.N,Net-(D230-DOUT)*%
X248850000Y-202800000D02*
X260850000Y-202800000D01*
X246100000Y-204550000D02*
X247100000Y-204550000D01*
X247100000Y-204550000D02*
X248850000Y-202800000D01*
X262400000Y-201250000D02*
X263700000Y-201250000D01*
X260850000Y-202800000D02*
X262400000Y-201250000D01*
%TO.N,Net-(D231-DOUT)*%
X273350000Y-202800000D02*
X274900000Y-201250000D01*
X259800000Y-204550000D02*
X261550000Y-202800000D01*
X261550000Y-202800000D02*
X273350000Y-202800000D01*
X258800000Y-204550000D02*
X259800000Y-204550000D01*
X274900000Y-201250000D02*
X276400000Y-201250000D01*
%TO.N,Net-(D232-DOUT)*%
X271500000Y-204550000D02*
X271500000Y-209050000D01*
X271500000Y-209050000D02*
X276400000Y-213950000D01*
%TO.N,Net-(D233-DOUT)*%
X263700000Y-213950000D02*
X268200000Y-213950000D01*
X268200000Y-213950000D02*
X271500000Y-217250000D01*
%TO.N,Net-(D234-DOUT)*%
X251000000Y-213950000D02*
X255500000Y-213950000D01*
X255500000Y-213950000D02*
X258800000Y-217250000D01*
%TO.N,Net-(D235-DOUT)*%
X242800000Y-213950000D02*
X246100000Y-217250000D01*
X238300000Y-213950000D02*
X242800000Y-213950000D01*
%TO.N,Net-(D236-DOUT)*%
X225600000Y-213950000D02*
X230100000Y-213950000D01*
X230100000Y-213950000D02*
X233400000Y-217250000D01*
%TO.N,Net-(D237-DOUT)*%
X217400000Y-213950000D02*
X220700000Y-217250000D01*
X212900000Y-213950000D02*
X217400000Y-213950000D01*
%TO.N,Net-(D238-DOUT)*%
X200200000Y-213950000D02*
X204700000Y-213950000D01*
X204700000Y-213950000D02*
X208000000Y-217250000D01*
%TO.N,Net-(D239-DOUT)*%
X187500000Y-213950000D02*
X192000000Y-213950000D01*
X192000000Y-213950000D02*
X195300000Y-217250000D01*
%TO.N,Net-(D240-DOUT)*%
X182600000Y-221750000D02*
X187500000Y-226650000D01*
X182600000Y-217250000D02*
X182600000Y-221750000D01*
%TO.N,Net-(D241-DOUT)*%
X198600000Y-226650000D02*
X200200000Y-226650000D01*
X184350000Y-228200000D02*
X197050000Y-228200000D01*
X182600000Y-229950000D02*
X184350000Y-228200000D01*
X197050000Y-228200000D02*
X198600000Y-226650000D01*
%TO.N,Net-(D242-DOUT)*%
X197950000Y-228300000D02*
X209750000Y-228300000D01*
X195300000Y-229950000D02*
X196300000Y-229950000D01*
X209750000Y-228300000D02*
X211400000Y-226650000D01*
X211400000Y-226650000D02*
X212900000Y-226650000D01*
X196300000Y-229950000D02*
X197950000Y-228300000D01*
%TO.N,Net-(D243-DOUT)*%
X224000000Y-226650000D02*
X225600000Y-226650000D01*
X222450000Y-228200000D02*
X224000000Y-226650000D01*
X210750000Y-228200000D02*
X222450000Y-228200000D01*
X209000000Y-229950000D02*
X210750000Y-228200000D01*
X208000000Y-229950000D02*
X209000000Y-229950000D01*
%TO.N,Net-(D244-DOUT)*%
X236800000Y-226650000D02*
X238300000Y-226650000D01*
X235150000Y-228300000D02*
X236800000Y-226650000D01*
X220700000Y-229950000D02*
X221700000Y-229950000D01*
X223350000Y-228300000D02*
X235150000Y-228300000D01*
X221700000Y-229950000D02*
X223350000Y-228300000D01*
%TO.N,Net-(D245-DOUT)*%
X248050000Y-228300000D02*
X249700000Y-226650000D01*
X233400000Y-229950000D02*
X234400000Y-229950000D01*
X249700000Y-226650000D02*
X251000000Y-226650000D01*
X236050000Y-228300000D02*
X248050000Y-228300000D01*
X234400000Y-229950000D02*
X236050000Y-228300000D01*
%TO.N,Net-(D246-DOUT)*%
X262300000Y-226650000D02*
X263700000Y-226650000D01*
X247100000Y-229950000D02*
X248850000Y-228200000D01*
X260750000Y-228200000D02*
X262300000Y-226650000D01*
X248850000Y-228200000D02*
X260750000Y-228200000D01*
X246100000Y-229950000D02*
X247100000Y-229950000D01*
%TO.N,Net-(D247-DOUT)*%
X274500000Y-226650000D02*
X276400000Y-226650000D01*
X272850000Y-228300000D02*
X274500000Y-226650000D01*
X261450000Y-228300000D02*
X272850000Y-228300000D01*
X258800000Y-229950000D02*
X259800000Y-229950000D01*
X259800000Y-229950000D02*
X261450000Y-228300000D01*
%TO.N,Net-(D248-DOUT)*%
X271500000Y-234450000D02*
X276400000Y-239350000D01*
X271500000Y-229950000D02*
X271500000Y-234450000D01*
%TO.N,Net-(D249-DOUT)*%
X268200000Y-239350000D02*
X271500000Y-242650000D01*
X263700000Y-239350000D02*
X268200000Y-239350000D01*
%TO.N,Net-(D250-DOUT)*%
X251000000Y-239350000D02*
X255500000Y-239350000D01*
X255500000Y-239350000D02*
X258800000Y-242650000D01*
%TO.N,Net-(D251-DOUT)*%
X242800000Y-239350000D02*
X246100000Y-242650000D01*
X238300000Y-239350000D02*
X242800000Y-239350000D01*
%TO.N,Net-(D252-DOUT)*%
X230100000Y-239350000D02*
X233400000Y-242650000D01*
X225600000Y-239350000D02*
X230100000Y-239350000D01*
%TO.N,Net-(D253-DOUT)*%
X217400000Y-239350000D02*
X220700000Y-242650000D01*
X212900000Y-239350000D02*
X217400000Y-239350000D01*
%TO.N,Net-(D254-DOUT)*%
X204700000Y-239350000D02*
X208000000Y-242650000D01*
X200200000Y-239350000D02*
X204700000Y-239350000D01*
%TO.N,Net-(D255-DOUT)*%
X192000000Y-239350000D02*
X195300000Y-242650000D01*
X187500000Y-239350000D02*
X192000000Y-239350000D01*
%TO.N,Net-(J1-Pin_1)*%
X61936200Y-125685000D02*
X54785000Y-125685000D01*
X54785000Y-125685000D02*
X45500000Y-116400000D01*
%TO.N,Net-(PS1-OUTPUT_TRIM)*%
X67800000Y-115525000D02*
X67800000Y-119637500D01*
X67800000Y-119637500D02*
X65312500Y-122125000D01*
%TO.N,Net-(J1-Pin_2)*%
X45500000Y-118940000D02*
X56055000Y-129495000D01*
X56055000Y-129495000D02*
X61936200Y-129495000D01*
%TO.N,Net-(J1-Pin_3)*%
X55389400Y-131369400D02*
X66259400Y-131369400D01*
X45500000Y-121480000D02*
X55389400Y-131369400D01*
X66259400Y-131369400D02*
X66863800Y-130765000D01*
%TD*%
M02*
