%TF.GenerationSoftware,KiCad,Pcbnew,(7.0.0)*%
%TF.CreationDate,2023-07-18T21:48:05-06:00*%
%TF.ProjectId,led-matrix-v4,6c65642d-6d61-4747-9269-782d76342e6b,0*%
%TF.SameCoordinates,Original*%
%TF.FileFunction,Paste,Top*%
%TF.FilePolarity,Positive*%
%FSLAX46Y46*%
G04 Gerber Fmt 4.6, Leading zero omitted, Abs format (unit mm)*
G04 Created by KiCad (PCBNEW (7.0.0)) date 2023-07-18 21:48:05*
%MOMM*%
%LPD*%
G01*
G04 APERTURE LIST*
G04 Aperture macros list*
%AMRoundRect*
0 Rectangle with rounded corners*
0 $1 Rounding radius*
0 $2 $3 $4 $5 $6 $7 $8 $9 X,Y pos of 4 corners*
0 Add a 4 corners polygon primitive as box body*
4,1,4,$2,$3,$4,$5,$6,$7,$8,$9,$2,$3,0*
0 Add four circle primitives for the rounded corners*
1,1,$1+$1,$2,$3*
1,1,$1+$1,$4,$5*
1,1,$1+$1,$6,$7*
1,1,$1+$1,$8,$9*
0 Add four rect primitives between the rounded corners*
20,1,$1+$1,$2,$3,$4,$5,0*
20,1,$1+$1,$4,$5,$6,$7,0*
20,1,$1+$1,$6,$7,$8,$9,0*
20,1,$1+$1,$8,$9,$2,$3,0*%
G04 Aperture macros list end*
%ADD10R,1.500000X0.900000*%
%ADD11RoundRect,0.250000X-0.262500X-0.450000X0.262500X-0.450000X0.262500X0.450000X-0.262500X0.450000X0*%
%ADD12R,1.981200X0.558800*%
G04 APERTURE END LIST*
D10*
%TO.C,D196*%
X220699999Y-150449999D03*
X220699999Y-153749999D03*
X225599999Y-153749999D03*
X225599999Y-150449999D03*
%TD*%
%TO.C,D116*%
X119099999Y-226649999D03*
X119099999Y-229949999D03*
X123999999Y-229949999D03*
X123999999Y-226649999D03*
%TD*%
%TO.C,D94*%
X106399999Y-188549999D03*
X106399999Y-191849999D03*
X111299999Y-191849999D03*
X111299999Y-188549999D03*
%TD*%
%TO.C,D33*%
X80999999Y-99649999D03*
X80999999Y-102949999D03*
X85899999Y-102949999D03*
X85899999Y-99649999D03*
%TD*%
%TO.C,D98*%
X93699999Y-201249999D03*
X93699999Y-204549999D03*
X98599999Y-204549999D03*
X98599999Y-201249999D03*
%TD*%
%TO.C,D135*%
X258799999Y-48849999D03*
X258799999Y-52149999D03*
X263699999Y-52149999D03*
X263699999Y-48849999D03*
%TD*%
%TO.C,D80*%
X80999999Y-163149999D03*
X80999999Y-166449999D03*
X85899999Y-166449999D03*
X85899999Y-163149999D03*
%TD*%
%TO.C,D18*%
X93699999Y-74249999D03*
X93699999Y-77549999D03*
X98599999Y-77549999D03*
X98599999Y-74249999D03*
%TD*%
%TO.C,D30*%
X106399999Y-86949999D03*
X106399999Y-90249999D03*
X111299999Y-90249999D03*
X111299999Y-86949999D03*
%TD*%
%TO.C,D35*%
X106399999Y-99649999D03*
X106399999Y-102949999D03*
X111299999Y-102949999D03*
X111299999Y-99649999D03*
%TD*%
%TO.C,D36*%
X119099999Y-99649999D03*
X119099999Y-102949999D03*
X123999999Y-102949999D03*
X123999999Y-99649999D03*
%TD*%
%TO.C,D146*%
X195299999Y-74249999D03*
X195299999Y-77549999D03*
X200199999Y-77549999D03*
X200199999Y-74249999D03*
%TD*%
%TO.C,D71*%
X157199999Y-150449999D03*
X157199999Y-153749999D03*
X162099999Y-153749999D03*
X162099999Y-150449999D03*
%TD*%
%TO.C,D101*%
X131799999Y-201249999D03*
X131799999Y-204549999D03*
X136699999Y-204549999D03*
X136699999Y-201249999D03*
%TD*%
%TO.C,D256*%
X182599999Y-239349999D03*
X182599999Y-242649999D03*
X187499999Y-242649999D03*
X187499999Y-239349999D03*
%TD*%
%TO.C,D244*%
X220699999Y-226649999D03*
X220699999Y-229949999D03*
X225599999Y-229949999D03*
X225599999Y-226649999D03*
%TD*%
%TO.C,D56*%
X169899999Y-125049999D03*
X169899999Y-128349999D03*
X174799999Y-128349999D03*
X174799999Y-125049999D03*
%TD*%
%TO.C,D208*%
X182599999Y-163149999D03*
X182599999Y-166449999D03*
X187499999Y-166449999D03*
X187499999Y-163149999D03*
%TD*%
%TO.C,D239*%
X195299999Y-213949999D03*
X195299999Y-217249999D03*
X200199999Y-217249999D03*
X200199999Y-213949999D03*
%TD*%
%TO.C,D227*%
X207999999Y-201249999D03*
X207999999Y-204549999D03*
X212899999Y-204549999D03*
X212899999Y-201249999D03*
%TD*%
D11*
%TO.C,R1*%
X63487500Y-122125000D03*
X65312500Y-122125000D03*
%TD*%
D10*
%TO.C,D138*%
X258799999Y-61549999D03*
X258799999Y-64849999D03*
X263699999Y-64849999D03*
X263699999Y-61549999D03*
%TD*%
%TO.C,D82*%
X93699999Y-175849999D03*
X93699999Y-179149999D03*
X98599999Y-179149999D03*
X98599999Y-175849999D03*
%TD*%
%TO.C,D172*%
X233399999Y-112349999D03*
X233399999Y-115649999D03*
X238299999Y-115649999D03*
X238299999Y-112349999D03*
%TD*%
%TO.C,D207*%
X195299999Y-163149999D03*
X195299999Y-166449999D03*
X200199999Y-166449999D03*
X200199999Y-163149999D03*
%TD*%
%TO.C,D235*%
X246099999Y-213949999D03*
X246099999Y-217249999D03*
X250999999Y-217249999D03*
X250999999Y-213949999D03*
%TD*%
%TO.C,D174*%
X207999999Y-112349999D03*
X207999999Y-115649999D03*
X212899999Y-115649999D03*
X212899999Y-112349999D03*
%TD*%
%TO.C,D151*%
X258799999Y-74249999D03*
X258799999Y-77549999D03*
X263699999Y-77549999D03*
X263699999Y-74249999D03*
%TD*%
%TO.C,D199*%
X258799999Y-150449999D03*
X258799999Y-153749999D03*
X263699999Y-153749999D03*
X263699999Y-150449999D03*
%TD*%
%TO.C,D25*%
X169899999Y-86949999D03*
X169899999Y-90249999D03*
X174799999Y-90249999D03*
X174799999Y-86949999D03*
%TD*%
%TO.C,D216*%
X271499999Y-175849999D03*
X271499999Y-179149999D03*
X276399999Y-179149999D03*
X276399999Y-175849999D03*
%TD*%
%TO.C,D96*%
X80999999Y-188549999D03*
X80999999Y-191849999D03*
X85899999Y-191849999D03*
X85899999Y-188549999D03*
%TD*%
%TO.C,D220*%
X233399999Y-188549999D03*
X233399999Y-191849999D03*
X238299999Y-191849999D03*
X238299999Y-188549999D03*
%TD*%
%TO.C,D189*%
X220699999Y-137749999D03*
X220699999Y-141049999D03*
X225599999Y-141049999D03*
X225599999Y-137749999D03*
%TD*%
%TO.C,D45*%
X119099999Y-112349999D03*
X119099999Y-115649999D03*
X123999999Y-115649999D03*
X123999999Y-112349999D03*
%TD*%
%TO.C,D43*%
X144499999Y-112349999D03*
X144499999Y-115649999D03*
X149399999Y-115649999D03*
X149399999Y-112349999D03*
%TD*%
%TO.C,D140*%
X233399999Y-61549999D03*
X233399999Y-64849999D03*
X238299999Y-64849999D03*
X238299999Y-61549999D03*
%TD*%
%TO.C,D134*%
X246099999Y-48849999D03*
X246099999Y-52149999D03*
X250999999Y-52149999D03*
X250999999Y-48849999D03*
%TD*%
%TO.C,D249*%
X271499999Y-239349999D03*
X271499999Y-242649999D03*
X276399999Y-242649999D03*
X276399999Y-239349999D03*
%TD*%
%TO.C,D85*%
X131799999Y-175849999D03*
X131799999Y-179149999D03*
X136699999Y-179149999D03*
X136699999Y-175849999D03*
%TD*%
%TO.C,D240*%
X182599999Y-213949999D03*
X182599999Y-217249999D03*
X187499999Y-217249999D03*
X187499999Y-213949999D03*
%TD*%
%TO.C,D90*%
X157199999Y-188549999D03*
X157199999Y-191849999D03*
X162099999Y-191849999D03*
X162099999Y-188549999D03*
%TD*%
%TO.C,D2*%
X93699999Y-48849999D03*
X93699999Y-52149999D03*
X98599999Y-52149999D03*
X98599999Y-48849999D03*
%TD*%
%TO.C,D111*%
X93699999Y-213949999D03*
X93699999Y-217249999D03*
X98599999Y-217249999D03*
X98599999Y-213949999D03*
%TD*%
%TO.C,D170*%
X258799999Y-112349999D03*
X258799999Y-115649999D03*
X263699999Y-115649999D03*
X263699999Y-112349999D03*
%TD*%
%TO.C,D39*%
X157199999Y-99649999D03*
X157199999Y-102949999D03*
X162099999Y-102949999D03*
X162099999Y-99649999D03*
%TD*%
%TO.C,D27*%
X144499999Y-86949999D03*
X144499999Y-90249999D03*
X149399999Y-90249999D03*
X149399999Y-86949999D03*
%TD*%
%TO.C,D42*%
X157199999Y-112349999D03*
X157199999Y-115649999D03*
X162099999Y-115649999D03*
X162099999Y-112349999D03*
%TD*%
%TO.C,D75*%
X144499999Y-163149999D03*
X144499999Y-166449999D03*
X149399999Y-166449999D03*
X149399999Y-163149999D03*
%TD*%
%TO.C,D28*%
X131799999Y-86949999D03*
X131799999Y-90249999D03*
X136699999Y-90249999D03*
X136699999Y-86949999D03*
%TD*%
%TO.C,D76*%
X131799999Y-163149999D03*
X131799999Y-166449999D03*
X136699999Y-166449999D03*
X136699999Y-163149999D03*
%TD*%
%TO.C,D123*%
X144499999Y-239349999D03*
X144499999Y-242649999D03*
X149399999Y-242649999D03*
X149399999Y-239349999D03*
%TD*%
%TO.C,D37*%
X131799999Y-99649999D03*
X131799999Y-102949999D03*
X136699999Y-102949999D03*
X136699999Y-99649999D03*
%TD*%
%TO.C,D54*%
X144499999Y-125049999D03*
X144499999Y-128349999D03*
X149399999Y-128349999D03*
X149399999Y-125049999D03*
%TD*%
%TO.C,D78*%
X106399999Y-163149999D03*
X106399999Y-166449999D03*
X111299999Y-166449999D03*
X111299999Y-163149999D03*
%TD*%
%TO.C,D3*%
X106399999Y-48849999D03*
X106399999Y-52149999D03*
X111299999Y-52149999D03*
X111299999Y-48849999D03*
%TD*%
%TO.C,D9*%
X169899999Y-61549999D03*
X169899999Y-64849999D03*
X174799999Y-64849999D03*
X174799999Y-61549999D03*
%TD*%
%TO.C,D163*%
X207999999Y-99649999D03*
X207999999Y-102949999D03*
X212899999Y-102949999D03*
X212899999Y-99649999D03*
%TD*%
%TO.C,D183*%
X258799999Y-125049999D03*
X258799999Y-128349999D03*
X263699999Y-128349999D03*
X263699999Y-125049999D03*
%TD*%
%TO.C,D126*%
X106399999Y-239349999D03*
X106399999Y-242649999D03*
X111299999Y-242649999D03*
X111299999Y-239349999D03*
%TD*%
D12*
%TO.C,U1*%
X61936199Y-124414999D03*
X61936199Y-125684999D03*
X61936199Y-126954999D03*
X61936199Y-128224999D03*
X61936199Y-129494999D03*
X61936199Y-130764999D03*
X61936199Y-132034999D03*
X66863799Y-132034999D03*
X66863799Y-130764999D03*
X66863799Y-129494999D03*
X66863799Y-128224999D03*
X66863799Y-126954999D03*
X66863799Y-125684999D03*
X66863799Y-124414999D03*
%TD*%
D10*
%TO.C,D93*%
X119099999Y-188549999D03*
X119099999Y-191849999D03*
X123999999Y-191849999D03*
X123999999Y-188549999D03*
%TD*%
%TO.C,D198*%
X246099999Y-150449999D03*
X246099999Y-153749999D03*
X250999999Y-153749999D03*
X250999999Y-150449999D03*
%TD*%
%TO.C,D219*%
X246099999Y-188549999D03*
X246099999Y-191849999D03*
X250999999Y-191849999D03*
X250999999Y-188549999D03*
%TD*%
%TO.C,D171*%
X246099999Y-112349999D03*
X246099999Y-115649999D03*
X250999999Y-115649999D03*
X250999999Y-112349999D03*
%TD*%
%TO.C,D103*%
X157199999Y-201249999D03*
X157199999Y-204549999D03*
X162099999Y-204549999D03*
X162099999Y-201249999D03*
%TD*%
%TO.C,D180*%
X220699999Y-125049999D03*
X220699999Y-128349999D03*
X225599999Y-128349999D03*
X225599999Y-125049999D03*
%TD*%
%TO.C,D229*%
X233399999Y-201249999D03*
X233399999Y-204549999D03*
X238299999Y-204549999D03*
X238299999Y-201249999D03*
%TD*%
%TO.C,D79*%
X93699999Y-163149999D03*
X93699999Y-166449999D03*
X98599999Y-166449999D03*
X98599999Y-163149999D03*
%TD*%
%TO.C,D20*%
X119099999Y-74249999D03*
X119099999Y-77549999D03*
X123999999Y-77549999D03*
X123999999Y-74249999D03*
%TD*%
%TO.C,D141*%
X220699999Y-61549999D03*
X220699999Y-64849999D03*
X225599999Y-64849999D03*
X225599999Y-61549999D03*
%TD*%
%TO.C,D186*%
X258799999Y-137749999D03*
X258799999Y-141049999D03*
X263699999Y-141049999D03*
X263699999Y-137749999D03*
%TD*%
%TO.C,D12*%
X131799999Y-61549999D03*
X131799999Y-64849999D03*
X136699999Y-64849999D03*
X136699999Y-61549999D03*
%TD*%
%TO.C,D124*%
X131799999Y-239349999D03*
X131799999Y-242649999D03*
X136699999Y-242649999D03*
X136699999Y-239349999D03*
%TD*%
%TO.C,D218*%
X258799999Y-188549999D03*
X258799999Y-191849999D03*
X263699999Y-191849999D03*
X263699999Y-188549999D03*
%TD*%
%TO.C,D4*%
X119099999Y-48849999D03*
X119099999Y-52149999D03*
X123999999Y-52149999D03*
X123999999Y-48849999D03*
%TD*%
%TO.C,D122*%
X157199999Y-239349999D03*
X157199999Y-242649999D03*
X162099999Y-242649999D03*
X162099999Y-239349999D03*
%TD*%
%TO.C,D222*%
X207999999Y-188549999D03*
X207999999Y-191849999D03*
X212899999Y-191849999D03*
X212899999Y-188549999D03*
%TD*%
%TO.C,D137*%
X271499999Y-61549999D03*
X271499999Y-64849999D03*
X276399999Y-64849999D03*
X276399999Y-61549999D03*
%TD*%
%TO.C,D190*%
X207999999Y-137749999D03*
X207999999Y-141049999D03*
X212899999Y-141049999D03*
X212899999Y-137749999D03*
%TD*%
%TO.C,D234*%
X258799999Y-213949999D03*
X258799999Y-217249999D03*
X263699999Y-217249999D03*
X263699999Y-213949999D03*
%TD*%
%TO.C,D165*%
X233399999Y-99649999D03*
X233399999Y-102949999D03*
X238299999Y-102949999D03*
X238299999Y-99649999D03*
%TD*%
%TO.C,D13*%
X119099999Y-61549999D03*
X119099999Y-64849999D03*
X123999999Y-64849999D03*
X123999999Y-61549999D03*
%TD*%
%TO.C,D117*%
X131799999Y-226649999D03*
X131799999Y-229949999D03*
X136699999Y-229949999D03*
X136699999Y-226649999D03*
%TD*%
%TO.C,D133*%
X233399999Y-48849999D03*
X233399999Y-52149999D03*
X238299999Y-52149999D03*
X238299999Y-48849999D03*
%TD*%
%TO.C,D252*%
X233399999Y-239349999D03*
X233399999Y-242649999D03*
X238299999Y-242649999D03*
X238299999Y-239349999D03*
%TD*%
%TO.C,D144*%
X182599999Y-61549999D03*
X182599999Y-64849999D03*
X187499999Y-64849999D03*
X187499999Y-61549999D03*
%TD*%
%TO.C,D74*%
X157199999Y-163149999D03*
X157199999Y-166449999D03*
X162099999Y-166449999D03*
X162099999Y-163149999D03*
%TD*%
%TO.C,D250*%
X258799999Y-239349999D03*
X258799999Y-242649999D03*
X263699999Y-242649999D03*
X263699999Y-239349999D03*
%TD*%
%TO.C,D67*%
X106399999Y-150449999D03*
X106399999Y-153749999D03*
X111299999Y-153749999D03*
X111299999Y-150449999D03*
%TD*%
%TO.C,D132*%
X220699999Y-48849999D03*
X220699999Y-52149999D03*
X225599999Y-52149999D03*
X225599999Y-48849999D03*
%TD*%
%TO.C,D241*%
X182599999Y-226649999D03*
X182599999Y-229949999D03*
X187499999Y-229949999D03*
X187499999Y-226649999D03*
%TD*%
%TO.C,D210*%
X195299999Y-175849999D03*
X195299999Y-179149999D03*
X200199999Y-179149999D03*
X200199999Y-175849999D03*
%TD*%
%TO.C,D72*%
X169899999Y-150449999D03*
X169899999Y-153749999D03*
X174799999Y-153749999D03*
X174799999Y-150449999D03*
%TD*%
%TO.C,D87*%
X157199999Y-175849999D03*
X157199999Y-179149999D03*
X162099999Y-179149999D03*
X162099999Y-175849999D03*
%TD*%
%TO.C,D41*%
X169899999Y-112349999D03*
X169899999Y-115649999D03*
X174799999Y-115649999D03*
X174799999Y-112349999D03*
%TD*%
%TO.C,D215*%
X258799999Y-175849999D03*
X258799999Y-179149999D03*
X263699999Y-179149999D03*
X263699999Y-175849999D03*
%TD*%
%TO.C,D206*%
X207999999Y-163149999D03*
X207999999Y-166449999D03*
X212899999Y-166449999D03*
X212899999Y-163149999D03*
%TD*%
%TO.C,D83*%
X106399999Y-175849999D03*
X106399999Y-179149999D03*
X111299999Y-179149999D03*
X111299999Y-175849999D03*
%TD*%
%TO.C,D95*%
X93699999Y-188549999D03*
X93699999Y-191849999D03*
X98599999Y-191849999D03*
X98599999Y-188549999D03*
%TD*%
%TO.C,D110*%
X106399999Y-213949999D03*
X106399999Y-217249999D03*
X111299999Y-217249999D03*
X111299999Y-213949999D03*
%TD*%
%TO.C,D157*%
X220699999Y-86949999D03*
X220699999Y-90249999D03*
X225599999Y-90249999D03*
X225599999Y-86949999D03*
%TD*%
%TO.C,D31*%
X93699999Y-86949999D03*
X93699999Y-90249999D03*
X98599999Y-90249999D03*
X98599999Y-86949999D03*
%TD*%
%TO.C,D40*%
X169899999Y-99649999D03*
X169899999Y-102949999D03*
X174799999Y-102949999D03*
X174799999Y-99649999D03*
%TD*%
%TO.C,D194*%
X195299999Y-150449999D03*
X195299999Y-153749999D03*
X200199999Y-153749999D03*
X200199999Y-150449999D03*
%TD*%
%TO.C,D108*%
X131799999Y-213949999D03*
X131799999Y-217249999D03*
X136699999Y-217249999D03*
X136699999Y-213949999D03*
%TD*%
%TO.C,D17*%
X80999999Y-74249999D03*
X80999999Y-77549999D03*
X85899999Y-77549999D03*
X85899999Y-74249999D03*
%TD*%
%TO.C,D175*%
X195299999Y-112349999D03*
X195299999Y-115649999D03*
X200199999Y-115649999D03*
X200199999Y-112349999D03*
%TD*%
%TO.C,D97*%
X80999999Y-201249999D03*
X80999999Y-204549999D03*
X85899999Y-204549999D03*
X85899999Y-201249999D03*
%TD*%
%TO.C,D204*%
X233399999Y-163149999D03*
X233399999Y-166449999D03*
X238299999Y-166449999D03*
X238299999Y-163149999D03*
%TD*%
%TO.C,D99*%
X106399999Y-201249999D03*
X106399999Y-204549999D03*
X111299999Y-204549999D03*
X111299999Y-201249999D03*
%TD*%
%TO.C,D92*%
X131799999Y-188549999D03*
X131799999Y-191849999D03*
X136699999Y-191849999D03*
X136699999Y-188549999D03*
%TD*%
%TO.C,D195*%
X207999999Y-150449999D03*
X207999999Y-153749999D03*
X212899999Y-153749999D03*
X212899999Y-150449999D03*
%TD*%
%TO.C,D125*%
X119099999Y-239349999D03*
X119099999Y-242649999D03*
X123999999Y-242649999D03*
X123999999Y-239349999D03*
%TD*%
%TO.C,D7*%
X157199999Y-48849999D03*
X157199999Y-52149999D03*
X162099999Y-52149999D03*
X162099999Y-48849999D03*
%TD*%
%TO.C,D173*%
X220699999Y-112349999D03*
X220699999Y-115649999D03*
X225599999Y-115649999D03*
X225599999Y-112349999D03*
%TD*%
%TO.C,D167*%
X258799999Y-99649999D03*
X258799999Y-102949999D03*
X263699999Y-102949999D03*
X263699999Y-99649999D03*
%TD*%
%TO.C,D48*%
X80999999Y-112349999D03*
X80999999Y-115649999D03*
X85899999Y-115649999D03*
X85899999Y-112349999D03*
%TD*%
%TO.C,D128*%
X80999999Y-239349999D03*
X80999999Y-242649999D03*
X85899999Y-242649999D03*
X85899999Y-239349999D03*
%TD*%
%TO.C,D214*%
X246099999Y-175849999D03*
X246099999Y-179149999D03*
X250999999Y-179149999D03*
X250999999Y-175849999D03*
%TD*%
%TO.C,D147*%
X207999999Y-74249999D03*
X207999999Y-77549999D03*
X212899999Y-77549999D03*
X212899999Y-74249999D03*
%TD*%
%TO.C,D63*%
X93699999Y-137749999D03*
X93699999Y-141049999D03*
X98599999Y-141049999D03*
X98599999Y-137749999D03*
%TD*%
%TO.C,D166*%
X246099999Y-99649999D03*
X246099999Y-102949999D03*
X250999999Y-102949999D03*
X250999999Y-99649999D03*
%TD*%
%TO.C,D22*%
X144499999Y-74249999D03*
X144499999Y-77549999D03*
X149399999Y-77549999D03*
X149399999Y-74249999D03*
%TD*%
%TO.C,D21*%
X131799999Y-74249999D03*
X131799999Y-77549999D03*
X136699999Y-77549999D03*
X136699999Y-74249999D03*
%TD*%
%TO.C,D131*%
X207999999Y-48849999D03*
X207999999Y-52149999D03*
X212899999Y-52149999D03*
X212899999Y-48849999D03*
%TD*%
%TO.C,D130*%
X195299999Y-48849999D03*
X195299999Y-52149999D03*
X200199999Y-52149999D03*
X200199999Y-48849999D03*
%TD*%
%TO.C,D26*%
X157199999Y-86949999D03*
X157199999Y-90249999D03*
X162099999Y-90249999D03*
X162099999Y-86949999D03*
%TD*%
%TO.C,D164*%
X220699999Y-99649999D03*
X220699999Y-102949999D03*
X225599999Y-102949999D03*
X225599999Y-99649999D03*
%TD*%
%TO.C,D181*%
X233399999Y-125049999D03*
X233399999Y-128349999D03*
X238299999Y-128349999D03*
X238299999Y-125049999D03*
%TD*%
%TO.C,D24*%
X169899999Y-74249999D03*
X169899999Y-77549999D03*
X174799999Y-77549999D03*
X174799999Y-74249999D03*
%TD*%
%TO.C,D70*%
X144499999Y-150449999D03*
X144499999Y-153749999D03*
X149399999Y-153749999D03*
X149399999Y-150449999D03*
%TD*%
%TO.C,D148*%
X220699999Y-74249999D03*
X220699999Y-77549999D03*
X225599999Y-77549999D03*
X225599999Y-74249999D03*
%TD*%
%TO.C,D221*%
X220699999Y-188549999D03*
X220699999Y-191849999D03*
X225599999Y-191849999D03*
X225599999Y-188549999D03*
%TD*%
%TO.C,D52*%
X119099999Y-125049999D03*
X119099999Y-128349999D03*
X123999999Y-128349999D03*
X123999999Y-125049999D03*
%TD*%
%TO.C,D191*%
X195299999Y-137749999D03*
X195299999Y-141049999D03*
X200199999Y-141049999D03*
X200199999Y-137749999D03*
%TD*%
%TO.C,D106*%
X157199999Y-213949999D03*
X157199999Y-217249999D03*
X162099999Y-217249999D03*
X162099999Y-213949999D03*
%TD*%
%TO.C,D89*%
X169899999Y-188549999D03*
X169899999Y-191849999D03*
X174799999Y-191849999D03*
X174799999Y-188549999D03*
%TD*%
%TO.C,D129*%
X182599999Y-48849999D03*
X182599999Y-52149999D03*
X187499999Y-52149999D03*
X187499999Y-48849999D03*
%TD*%
%TO.C,D182*%
X246099999Y-125049999D03*
X246099999Y-128349999D03*
X250999999Y-128349999D03*
X250999999Y-125049999D03*
%TD*%
%TO.C,D58*%
X157199999Y-137749999D03*
X157199999Y-141049999D03*
X162099999Y-141049999D03*
X162099999Y-137749999D03*
%TD*%
%TO.C,D109*%
X119099999Y-213949999D03*
X119099999Y-217249999D03*
X123999999Y-217249999D03*
X123999999Y-213949999D03*
%TD*%
%TO.C,D193*%
X182599999Y-150449999D03*
X182599999Y-153749999D03*
X187499999Y-153749999D03*
X187499999Y-150449999D03*
%TD*%
%TO.C,D169*%
X271499999Y-112349999D03*
X271499999Y-115649999D03*
X276399999Y-115649999D03*
X276399999Y-112349999D03*
%TD*%
%TO.C,D19*%
X106399999Y-74249999D03*
X106399999Y-77549999D03*
X111299999Y-77549999D03*
X111299999Y-74249999D03*
%TD*%
%TO.C,D47*%
X93699999Y-112349999D03*
X93699999Y-115649999D03*
X98599999Y-115649999D03*
X98599999Y-112349999D03*
%TD*%
%TO.C,D61*%
X119099999Y-137749999D03*
X119099999Y-141049999D03*
X123999999Y-141049999D03*
X123999999Y-137749999D03*
%TD*%
%TO.C,D127*%
X93699999Y-239349999D03*
X93699999Y-242649999D03*
X98599999Y-242649999D03*
X98599999Y-239349999D03*
%TD*%
%TO.C,D102*%
X144499999Y-201249999D03*
X144499999Y-204549999D03*
X149399999Y-204549999D03*
X149399999Y-201249999D03*
%TD*%
%TO.C,D155*%
X246099999Y-86949999D03*
X246099999Y-90249999D03*
X250999999Y-90249999D03*
X250999999Y-86949999D03*
%TD*%
%TO.C,D255*%
X195299999Y-239349999D03*
X195299999Y-242649999D03*
X200199999Y-242649999D03*
X200199999Y-239349999D03*
%TD*%
%TO.C,D119*%
X157199999Y-226649999D03*
X157199999Y-229949999D03*
X162099999Y-229949999D03*
X162099999Y-226649999D03*
%TD*%
%TO.C,D158*%
X207999999Y-86949999D03*
X207999999Y-90249999D03*
X212899999Y-90249999D03*
X212899999Y-86949999D03*
%TD*%
%TO.C,D185*%
X271499999Y-137749999D03*
X271499999Y-141049999D03*
X276399999Y-141049999D03*
X276399999Y-137749999D03*
%TD*%
%TO.C,D46*%
X106399999Y-112349999D03*
X106399999Y-115649999D03*
X111299999Y-115649999D03*
X111299999Y-112349999D03*
%TD*%
%TO.C,D187*%
X246099999Y-137749999D03*
X246099999Y-141049999D03*
X250999999Y-141049999D03*
X250999999Y-137749999D03*
%TD*%
%TO.C,D188*%
X233399999Y-137749999D03*
X233399999Y-141049999D03*
X238299999Y-141049999D03*
X238299999Y-137749999D03*
%TD*%
%TO.C,D44*%
X131799999Y-112349999D03*
X131799999Y-115649999D03*
X136699999Y-115649999D03*
X136699999Y-112349999D03*
%TD*%
%TO.C,D161*%
X182599999Y-99649999D03*
X182599999Y-102949999D03*
X187499999Y-102949999D03*
X187499999Y-99649999D03*
%TD*%
%TO.C,D69*%
X131799999Y-150449999D03*
X131799999Y-153749999D03*
X136699999Y-153749999D03*
X136699999Y-150449999D03*
%TD*%
%TO.C,D202*%
X258799999Y-163149999D03*
X258799999Y-166449999D03*
X263699999Y-166449999D03*
X263699999Y-163149999D03*
%TD*%
%TO.C,D209*%
X182599999Y-175849999D03*
X182599999Y-179149999D03*
X187499999Y-179149999D03*
X187499999Y-175849999D03*
%TD*%
%TO.C,D62*%
X106399999Y-137749999D03*
X106399999Y-141049999D03*
X111299999Y-141049999D03*
X111299999Y-137749999D03*
%TD*%
%TO.C,D11*%
X144499999Y-61549999D03*
X144499999Y-64849999D03*
X149399999Y-64849999D03*
X149399999Y-61549999D03*
%TD*%
%TO.C,D88*%
X169899999Y-175849999D03*
X169899999Y-179149999D03*
X174799999Y-179149999D03*
X174799999Y-175849999D03*
%TD*%
%TO.C,D177*%
X182599999Y-125049999D03*
X182599999Y-128349999D03*
X187499999Y-128349999D03*
X187499999Y-125049999D03*
%TD*%
%TO.C,D107*%
X144499999Y-213949999D03*
X144499999Y-217249999D03*
X149399999Y-217249999D03*
X149399999Y-213949999D03*
%TD*%
%TO.C,D168*%
X271499999Y-99649999D03*
X271499999Y-102949999D03*
X276399999Y-102949999D03*
X276399999Y-99649999D03*
%TD*%
%TO.C,D149*%
X233399999Y-74249999D03*
X233399999Y-77549999D03*
X238299999Y-77549999D03*
X238299999Y-74249999D03*
%TD*%
%TO.C,D153*%
X271499999Y-86949999D03*
X271499999Y-90249999D03*
X276399999Y-90249999D03*
X276399999Y-86949999D03*
%TD*%
%TO.C,D203*%
X246099999Y-163149999D03*
X246099999Y-166449999D03*
X250999999Y-166449999D03*
X250999999Y-163149999D03*
%TD*%
%TO.C,D16*%
X80999999Y-61549999D03*
X80999999Y-64849999D03*
X85899999Y-64849999D03*
X85899999Y-61549999D03*
%TD*%
%TO.C,D1*%
X80999999Y-48849999D03*
X80999999Y-52149999D03*
X85899999Y-52149999D03*
X85899999Y-48849999D03*
%TD*%
%TO.C,D118*%
X144499999Y-226649999D03*
X144499999Y-229949999D03*
X149399999Y-229949999D03*
X149399999Y-226649999D03*
%TD*%
%TO.C,D162*%
X195299999Y-99649999D03*
X195299999Y-102949999D03*
X200199999Y-102949999D03*
X200199999Y-99649999D03*
%TD*%
%TO.C,D142*%
X207999999Y-61549999D03*
X207999999Y-64849999D03*
X212899999Y-64849999D03*
X212899999Y-61549999D03*
%TD*%
%TO.C,D68*%
X119099999Y-150449999D03*
X119099999Y-153749999D03*
X123999999Y-153749999D03*
X123999999Y-150449999D03*
%TD*%
%TO.C,D213*%
X233399999Y-175849999D03*
X233399999Y-179149999D03*
X238299999Y-179149999D03*
X238299999Y-175849999D03*
%TD*%
%TO.C,D53*%
X131799999Y-125049999D03*
X131799999Y-128349999D03*
X136699999Y-128349999D03*
X136699999Y-125049999D03*
%TD*%
%TO.C,D5*%
X131799999Y-48849999D03*
X131799999Y-52149999D03*
X136699999Y-52149999D03*
X136699999Y-48849999D03*
%TD*%
%TO.C,D231*%
X258799999Y-201249999D03*
X258799999Y-204549999D03*
X263699999Y-204549999D03*
X263699999Y-201249999D03*
%TD*%
%TO.C,D217*%
X271499999Y-188549999D03*
X271499999Y-191849999D03*
X276399999Y-191849999D03*
X276399999Y-188549999D03*
%TD*%
%TO.C,D232*%
X271499999Y-201249999D03*
X271499999Y-204549999D03*
X276399999Y-204549999D03*
X276399999Y-201249999D03*
%TD*%
%TO.C,D212*%
X220699999Y-175849999D03*
X220699999Y-179149999D03*
X225599999Y-179149999D03*
X225599999Y-175849999D03*
%TD*%
%TO.C,D59*%
X144499999Y-137749999D03*
X144499999Y-141049999D03*
X149399999Y-141049999D03*
X149399999Y-137749999D03*
%TD*%
%TO.C,D251*%
X246099999Y-239349999D03*
X246099999Y-242649999D03*
X250999999Y-242649999D03*
X250999999Y-239349999D03*
%TD*%
%TO.C,D159*%
X195299999Y-86949999D03*
X195299999Y-90249999D03*
X200199999Y-90249999D03*
X200199999Y-86949999D03*
%TD*%
%TO.C,D223*%
X195299999Y-188549999D03*
X195299999Y-191849999D03*
X200199999Y-191849999D03*
X200199999Y-188549999D03*
%TD*%
%TO.C,D211*%
X207999999Y-175849999D03*
X207999999Y-179149999D03*
X212899999Y-179149999D03*
X212899999Y-175849999D03*
%TD*%
%TO.C,D104*%
X169899999Y-201249999D03*
X169899999Y-204549999D03*
X174799999Y-204549999D03*
X174799999Y-201249999D03*
%TD*%
%TO.C,D197*%
X233399999Y-150449999D03*
X233399999Y-153749999D03*
X238299999Y-153749999D03*
X238299999Y-150449999D03*
%TD*%
%TO.C,D10*%
X157199999Y-61549999D03*
X157199999Y-64849999D03*
X162099999Y-64849999D03*
X162099999Y-61549999D03*
%TD*%
%TO.C,D152*%
X271499999Y-74249999D03*
X271499999Y-77549999D03*
X276399999Y-77549999D03*
X276399999Y-74249999D03*
%TD*%
%TO.C,D242*%
X195299999Y-226649999D03*
X195299999Y-229949999D03*
X200199999Y-229949999D03*
X200199999Y-226649999D03*
%TD*%
%TO.C,D243*%
X207999999Y-226649999D03*
X207999999Y-229949999D03*
X212899999Y-229949999D03*
X212899999Y-226649999D03*
%TD*%
%TO.C,D253*%
X220699999Y-239349999D03*
X220699999Y-242649999D03*
X225599999Y-242649999D03*
X225599999Y-239349999D03*
%TD*%
%TO.C,D60*%
X131799999Y-137749999D03*
X131799999Y-141049999D03*
X136699999Y-141049999D03*
X136699999Y-137749999D03*
%TD*%
%TO.C,D65*%
X80999999Y-150449999D03*
X80999999Y-153749999D03*
X85899999Y-153749999D03*
X85899999Y-150449999D03*
%TD*%
%TO.C,D238*%
X207999999Y-213949999D03*
X207999999Y-217249999D03*
X212899999Y-217249999D03*
X212899999Y-213949999D03*
%TD*%
%TO.C,D91*%
X144499999Y-188549999D03*
X144499999Y-191849999D03*
X149399999Y-191849999D03*
X149399999Y-188549999D03*
%TD*%
%TO.C,D228*%
X220699999Y-201249999D03*
X220699999Y-204549999D03*
X225599999Y-204549999D03*
X225599999Y-201249999D03*
%TD*%
%TO.C,D14*%
X106399999Y-61549999D03*
X106399999Y-64849999D03*
X111299999Y-64849999D03*
X111299999Y-61549999D03*
%TD*%
%TO.C,D200*%
X271499999Y-150449999D03*
X271499999Y-153749999D03*
X276399999Y-153749999D03*
X276399999Y-150449999D03*
%TD*%
%TO.C,D136*%
X271499999Y-48849999D03*
X271499999Y-52149999D03*
X276399999Y-52149999D03*
X276399999Y-48849999D03*
%TD*%
%TO.C,D254*%
X207999999Y-239349999D03*
X207999999Y-242649999D03*
X212899999Y-242649999D03*
X212899999Y-239349999D03*
%TD*%
%TO.C,D73*%
X169899999Y-163149999D03*
X169899999Y-166449999D03*
X174799999Y-166449999D03*
X174799999Y-163149999D03*
%TD*%
%TO.C,D112*%
X80999999Y-213949999D03*
X80999999Y-217249999D03*
X85899999Y-217249999D03*
X85899999Y-213949999D03*
%TD*%
%TO.C,D8*%
X169899999Y-48849999D03*
X169899999Y-52149999D03*
X174799999Y-52149999D03*
X174799999Y-48849999D03*
%TD*%
%TO.C,D34*%
X93699999Y-99649999D03*
X93699999Y-102949999D03*
X98599999Y-102949999D03*
X98599999Y-99649999D03*
%TD*%
%TO.C,D121*%
X169899999Y-239349999D03*
X169899999Y-242649999D03*
X174799999Y-242649999D03*
X174799999Y-239349999D03*
%TD*%
%TO.C,D226*%
X195299999Y-201249999D03*
X195299999Y-204549999D03*
X200199999Y-204549999D03*
X200199999Y-201249999D03*
%TD*%
%TO.C,D150*%
X246099999Y-74249999D03*
X246099999Y-77549999D03*
X250999999Y-77549999D03*
X250999999Y-74249999D03*
%TD*%
%TO.C,D224*%
X182599999Y-188549999D03*
X182599999Y-191849999D03*
X187499999Y-191849999D03*
X187499999Y-188549999D03*
%TD*%
%TO.C,D156*%
X233399999Y-86949999D03*
X233399999Y-90249999D03*
X238299999Y-90249999D03*
X238299999Y-86949999D03*
%TD*%
%TO.C,D154*%
X258799999Y-86949999D03*
X258799999Y-90249999D03*
X263699999Y-90249999D03*
X263699999Y-86949999D03*
%TD*%
%TO.C,D55*%
X157199999Y-125049999D03*
X157199999Y-128349999D03*
X162099999Y-128349999D03*
X162099999Y-125049999D03*
%TD*%
%TO.C,D64*%
X80999999Y-137749999D03*
X80999999Y-141049999D03*
X85899999Y-141049999D03*
X85899999Y-137749999D03*
%TD*%
%TO.C,D120*%
X169899999Y-226649999D03*
X169899999Y-229949999D03*
X174799999Y-229949999D03*
X174799999Y-226649999D03*
%TD*%
%TO.C,D201*%
X271499999Y-163149999D03*
X271499999Y-166449999D03*
X276399999Y-166449999D03*
X276399999Y-163149999D03*
%TD*%
%TO.C,D51*%
X106399999Y-125049999D03*
X106399999Y-128349999D03*
X111299999Y-128349999D03*
X111299999Y-125049999D03*
%TD*%
%TO.C,D230*%
X246099999Y-201249999D03*
X246099999Y-204549999D03*
X250999999Y-204549999D03*
X250999999Y-201249999D03*
%TD*%
%TO.C,D139*%
X246099999Y-61549999D03*
X246099999Y-64849999D03*
X250999999Y-64849999D03*
X250999999Y-61549999D03*
%TD*%
%TO.C,D143*%
X195299999Y-61549999D03*
X195299999Y-64849999D03*
X200199999Y-64849999D03*
X200199999Y-61549999D03*
%TD*%
%TO.C,D113*%
X80999999Y-226649999D03*
X80999999Y-229949999D03*
X85899999Y-229949999D03*
X85899999Y-226649999D03*
%TD*%
%TO.C,D100*%
X119099999Y-201249999D03*
X119099999Y-204549999D03*
X123999999Y-204549999D03*
X123999999Y-201249999D03*
%TD*%
%TO.C,D192*%
X182599999Y-137749999D03*
X182599999Y-141049999D03*
X187499999Y-141049999D03*
X187499999Y-137749999D03*
%TD*%
%TO.C,D15*%
X93699999Y-61549999D03*
X93699999Y-64849999D03*
X98599999Y-64849999D03*
X98599999Y-61549999D03*
%TD*%
%TO.C,D176*%
X182599999Y-112349999D03*
X182599999Y-115649999D03*
X187499999Y-115649999D03*
X187499999Y-112349999D03*
%TD*%
%TO.C,D57*%
X169899999Y-137749999D03*
X169899999Y-141049999D03*
X174799999Y-141049999D03*
X174799999Y-137749999D03*
%TD*%
%TO.C,D248*%
X271499999Y-226649999D03*
X271499999Y-229949999D03*
X276399999Y-229949999D03*
X276399999Y-226649999D03*
%TD*%
%TO.C,D236*%
X233399999Y-213949999D03*
X233399999Y-217249999D03*
X238299999Y-217249999D03*
X238299999Y-213949999D03*
%TD*%
%TO.C,D245*%
X233399999Y-226649999D03*
X233399999Y-229949999D03*
X238299999Y-229949999D03*
X238299999Y-226649999D03*
%TD*%
%TO.C,D233*%
X271499999Y-213949999D03*
X271499999Y-217249999D03*
X276399999Y-217249999D03*
X276399999Y-213949999D03*
%TD*%
%TO.C,D178*%
X195299999Y-125049999D03*
X195299999Y-128349999D03*
X200199999Y-128349999D03*
X200199999Y-125049999D03*
%TD*%
%TO.C,D145*%
X182599999Y-74249999D03*
X182599999Y-77549999D03*
X187499999Y-77549999D03*
X187499999Y-74249999D03*
%TD*%
%TO.C,D84*%
X119099999Y-175849999D03*
X119099999Y-179149999D03*
X123999999Y-179149999D03*
X123999999Y-175849999D03*
%TD*%
%TO.C,D32*%
X80999999Y-86949999D03*
X80999999Y-90249999D03*
X85899999Y-90249999D03*
X85899999Y-86949999D03*
%TD*%
%TO.C,D86*%
X144499999Y-175849999D03*
X144499999Y-179149999D03*
X149399999Y-179149999D03*
X149399999Y-175849999D03*
%TD*%
%TO.C,D49*%
X80999999Y-125049999D03*
X80999999Y-128349999D03*
X85899999Y-128349999D03*
X85899999Y-125049999D03*
%TD*%
%TO.C,D225*%
X182599999Y-201249999D03*
X182599999Y-204549999D03*
X187499999Y-204549999D03*
X187499999Y-201249999D03*
%TD*%
%TO.C,D179*%
X207999999Y-125049999D03*
X207999999Y-128349999D03*
X212899999Y-128349999D03*
X212899999Y-125049999D03*
%TD*%
%TO.C,D6*%
X144499999Y-48849999D03*
X144499999Y-52149999D03*
X149399999Y-52149999D03*
X149399999Y-48849999D03*
%TD*%
%TO.C,D77*%
X119099999Y-163149999D03*
X119099999Y-166449999D03*
X123999999Y-166449999D03*
X123999999Y-163149999D03*
%TD*%
%TO.C,D237*%
X220699999Y-213949999D03*
X220699999Y-217249999D03*
X225599999Y-217249999D03*
X225599999Y-213949999D03*
%TD*%
%TO.C,D81*%
X80999999Y-175849999D03*
X80999999Y-179149999D03*
X85899999Y-179149999D03*
X85899999Y-175849999D03*
%TD*%
%TO.C,D23*%
X157199999Y-74249999D03*
X157199999Y-77549999D03*
X162099999Y-77549999D03*
X162099999Y-74249999D03*
%TD*%
%TO.C,D50*%
X93699999Y-125049999D03*
X93699999Y-128349999D03*
X98599999Y-128349999D03*
X98599999Y-125049999D03*
%TD*%
%TO.C,D66*%
X93699999Y-150449999D03*
X93699999Y-153749999D03*
X98599999Y-153749999D03*
X98599999Y-150449999D03*
%TD*%
%TO.C,D247*%
X258799999Y-226649999D03*
X258799999Y-229949999D03*
X263699999Y-229949999D03*
X263699999Y-226649999D03*
%TD*%
%TO.C,D105*%
X169899999Y-213949999D03*
X169899999Y-217249999D03*
X174799999Y-217249999D03*
X174799999Y-213949999D03*
%TD*%
%TO.C,D115*%
X106399999Y-226649999D03*
X106399999Y-229949999D03*
X111299999Y-229949999D03*
X111299999Y-226649999D03*
%TD*%
%TO.C,D205*%
X220699999Y-163149999D03*
X220699999Y-166449999D03*
X225599999Y-166449999D03*
X225599999Y-163149999D03*
%TD*%
%TO.C,D114*%
X93699999Y-226649999D03*
X93699999Y-229949999D03*
X98599999Y-229949999D03*
X98599999Y-226649999D03*
%TD*%
%TO.C,D29*%
X119099999Y-86949999D03*
X119099999Y-90249999D03*
X123999999Y-90249999D03*
X123999999Y-86949999D03*
%TD*%
%TO.C,D160*%
X182599999Y-86949999D03*
X182599999Y-90249999D03*
X187499999Y-90249999D03*
X187499999Y-86949999D03*
%TD*%
%TO.C,D38*%
X144499999Y-99649999D03*
X144499999Y-102949999D03*
X149399999Y-102949999D03*
X149399999Y-99649999D03*
%TD*%
%TO.C,D246*%
X246099999Y-226649999D03*
X246099999Y-229949999D03*
X250999999Y-229949999D03*
X250999999Y-226649999D03*
%TD*%
%TO.C,D184*%
X271499999Y-125049999D03*
X271499999Y-128349999D03*
X276399999Y-128349999D03*
X276399999Y-125049999D03*
%TD*%
M02*
