M48
; DRILL file {KiCad (7.0.0)} date Tue Jul 18 21:47:55 2023
; FORMAT={-:-/ absolute / inch / decimal}
; #@! TF.CreationDate,2023-07-18T21:47:55-06:00
; #@! TF.GenerationSoftware,Kicad,Pcbnew,(7.0.0)
; #@! TF.FileFunction,Plated,1,4,PTH
FMAT,2
INCH
; #@! TA.AperFunction,Plated,PTH,ViaDrill
T1C0.0157
; #@! TA.AperFunction,Plated,PTH,ComponentDrill
T2C0.0370
; #@! TA.AperFunction,Plated,PTH,ComponentDrill
T3C0.0394
; #@! TA.AperFunction,Plated,PTH,ComponentDrill
T4C0.0831
; #@! TA.AperFunction,Plated,PTH,ComponentDrill
T5C0.0866
%
G90
G05
T1
X2.4384Y-4.9982
X2.4384Y-5.1435
X2.4995Y-4.8081
X2.5157Y-5.2274
X2.6324Y-4.8982
X2.6324Y-5.1982
X3.0236Y-4.9882
X3.189Y-1.9232
X3.189Y-2.4232
X3.189Y-2.9232
X3.189Y-3.4232
X3.189Y-3.9232
X3.189Y-4.4232
X3.189Y-4.9232
X3.189Y-5.4232
X3.189Y-5.9232
X3.189Y-6.4232
X3.189Y-6.9232
X3.189Y-7.4232
X3.189Y-7.9232
X3.189Y-8.4232
X3.189Y-8.9232
X3.189Y-9.4232
X3.248Y-2.2362
X3.248Y-2.7362
X3.248Y-3.2362
X3.248Y-3.7362
X3.248Y-4.2362
X3.248Y-4.7362
X3.248Y-5.2362
X3.248Y-5.7362
X3.248Y-6.2362
X3.248Y-6.7362
X3.248Y-7.2362
X3.248Y-7.7362
X3.248Y-8.2362
X3.248Y-8.7362
X3.248Y-9.2362
X3.248Y-9.7362
X3.3228Y-2.2362
X3.3228Y-2.7362
X3.3228Y-3.2362
X3.3228Y-3.7362
X3.3228Y-4.2362
X3.3228Y-4.7362
X3.3228Y-5.2362
X3.3228Y-5.7362
X3.3228Y-6.2362
X3.3228Y-6.7362
X3.3228Y-7.2362
X3.3228Y-7.7362
X3.3228Y-8.2362
X3.3228Y-8.7362
X3.3228Y-9.2362
X3.3228Y-9.7362
X3.3819Y-1.9232
X3.3819Y-2.0531
X3.3819Y-2.5531
X3.3819Y-3.0551
X3.3819Y-3.5551
X3.3819Y-4.0512
X3.3819Y-4.5531
X3.3819Y-5.0531
X3.3819Y-5.5531
X3.3819Y-5.9232
X3.3819Y-6.0531
X3.3819Y-6.5531
X3.3819Y-7.0531
X3.3819Y-7.5531
X3.3819Y-8.0531
X3.3819Y-8.5531
X3.3819Y-9.0531
X3.3819Y-9.5531
X3.689Y-1.9232
X3.689Y-2.4232
X3.689Y-2.9232
X3.689Y-3.4232
X3.689Y-3.9232
X3.689Y-4.4232
X3.689Y-4.9232
X3.689Y-5.4232
X3.689Y-5.9232
X3.689Y-6.4232
X3.689Y-6.9232
X3.689Y-7.4232
X3.689Y-7.9232
X3.689Y-8.4232
X3.689Y-8.9232
X3.689Y-9.4232
X3.748Y-2.2362
X3.748Y-2.7362
X3.748Y-3.2362
X3.748Y-3.7362
X3.748Y-4.2362
X3.748Y-4.7362
X3.748Y-5.2362
X3.748Y-5.7362
X3.748Y-6.2362
X3.748Y-6.7362
X3.748Y-7.2362
X3.748Y-7.7362
X3.748Y-8.2362
X3.748Y-8.7362
X3.748Y-9.2362
X3.748Y-9.7362
X3.8228Y-2.2362
X3.8228Y-2.7362
X3.8228Y-3.2362
X3.8228Y-3.7362
X3.8228Y-4.2362
X3.8228Y-4.7362
X3.8228Y-5.2362
X3.8228Y-5.7362
X3.8228Y-6.2362
X3.8228Y-6.7362
X3.8228Y-7.2362
X3.8228Y-7.7362
X3.8228Y-8.2362
X3.8228Y-8.7362
X3.8228Y-9.2362
X3.8228Y-9.7362
X3.8819Y-2.0531
X3.8819Y-2.5531
X3.8819Y-3.0551
X3.8819Y-3.5551
X3.8819Y-4.0512
X3.8819Y-4.5531
X3.8819Y-5.0531
X3.8819Y-5.5531
X3.8819Y-6.0531
X3.8819Y-6.5531
X3.8819Y-7.0531
X3.8819Y-7.5531
X3.8819Y-8.0531
X3.8819Y-8.5531
X3.8819Y-9.0531
X3.8819Y-9.5531
X4.189Y-1.9232
X4.189Y-2.4232
X4.189Y-2.9232
X4.189Y-3.4232
X4.189Y-3.9232
X4.189Y-4.4232
X4.189Y-4.9232
X4.189Y-5.4232
X4.189Y-5.9232
X4.189Y-6.4232
X4.189Y-6.9232
X4.189Y-7.4232
X4.189Y-7.9232
X4.189Y-8.4232
X4.189Y-8.9232
X4.189Y-9.4232
X4.248Y-2.2362
X4.248Y-2.7362
X4.248Y-3.2362
X4.248Y-3.7362
X4.248Y-4.2362
X4.248Y-4.7362
X4.248Y-5.2362
X4.248Y-5.7362
X4.248Y-6.2362
X4.248Y-6.7362
X4.248Y-7.2362
X4.248Y-7.7362
X4.248Y-8.2362
X4.248Y-8.7362
X4.248Y-9.2362
X4.248Y-9.7362
X4.3228Y-2.2362
X4.3228Y-2.7362
X4.3228Y-3.2362
X4.3228Y-3.7362
X4.3228Y-4.2362
X4.3228Y-4.7362
X4.3228Y-5.2362
X4.3228Y-5.7362
X4.3228Y-6.2362
X4.3228Y-6.7362
X4.3228Y-7.2362
X4.3228Y-7.7362
X4.3228Y-8.2362
X4.3228Y-8.7362
X4.3228Y-9.2362
X4.3228Y-9.7362
X4.3819Y-2.0531
X4.3819Y-2.5531
X4.3819Y-3.0551
X4.3819Y-3.5551
X4.3819Y-4.0512
X4.3819Y-4.5531
X4.3819Y-5.0531
X4.3819Y-5.5531
X4.3819Y-6.0531
X4.3819Y-6.5531
X4.3819Y-7.0531
X4.3819Y-7.5531
X4.3819Y-8.0531
X4.3819Y-8.5531
X4.3819Y-9.0531
X4.3819Y-9.5531
X4.689Y-1.9232
X4.689Y-2.4232
X4.689Y-2.9232
X4.689Y-3.4232
X4.689Y-3.9232
X4.689Y-4.4232
X4.689Y-4.9232
X4.689Y-5.4232
X4.689Y-5.9232
X4.689Y-6.4232
X4.689Y-6.9232
X4.689Y-7.4232
X4.689Y-7.9232
X4.689Y-8.4232
X4.689Y-8.9232
X4.689Y-9.4232
X4.748Y-2.2362
X4.748Y-2.7362
X4.748Y-3.2362
X4.748Y-3.7362
X4.748Y-4.2362
X4.748Y-4.7362
X4.748Y-5.2362
X4.748Y-5.7362
X4.748Y-6.2362
X4.748Y-6.7362
X4.748Y-7.2362
X4.748Y-7.7362
X4.748Y-8.2362
X4.748Y-8.7362
X4.748Y-9.2362
X4.748Y-9.7362
X4.8228Y-2.2362
X4.8228Y-2.7362
X4.8228Y-3.2362
X4.8228Y-3.7362
X4.8228Y-4.2362
X4.8228Y-4.7362
X4.8228Y-5.2362
X4.8228Y-5.7362
X4.8228Y-6.2362
X4.8228Y-6.7362
X4.8228Y-7.2362
X4.8228Y-7.7362
X4.8228Y-8.2362
X4.8228Y-8.7362
X4.8228Y-9.2362
X4.8228Y-9.7362
X4.8819Y-2.0531
X4.8819Y-2.5531
X4.8819Y-3.0551
X4.8819Y-3.5551
X4.8819Y-4.0512
X4.8819Y-4.5531
X4.8819Y-5.0531
X4.8819Y-5.5531
X4.8819Y-6.0531
X4.8819Y-6.5531
X4.8819Y-7.0531
X4.8819Y-7.5531
X4.8819Y-8.0531
X4.8819Y-8.5531
X4.8819Y-9.0531
X4.8819Y-9.5531
X5.189Y-1.9232
X5.189Y-2.4232
X5.189Y-2.9232
X5.189Y-3.4232
X5.189Y-3.9232
X5.189Y-4.4232
X5.189Y-4.9232
X5.189Y-5.4232
X5.189Y-5.9232
X5.189Y-6.4232
X5.189Y-6.9232
X5.189Y-7.4232
X5.189Y-7.9232
X5.189Y-8.4232
X5.189Y-8.9232
X5.189Y-9.4232
X5.248Y-2.2362
X5.248Y-2.7362
X5.248Y-3.2362
X5.248Y-3.7362
X5.248Y-4.2362
X5.248Y-4.7362
X5.248Y-5.2362
X5.248Y-5.7362
X5.248Y-6.2362
X5.248Y-6.7362
X5.248Y-7.2362
X5.248Y-7.7362
X5.248Y-8.2362
X5.248Y-8.7362
X5.248Y-9.2362
X5.248Y-9.7362
X5.3228Y-2.2362
X5.3228Y-2.7362
X5.3228Y-3.2362
X5.3228Y-3.7362
X5.3228Y-4.2362
X5.3228Y-4.7362
X5.3228Y-5.2362
X5.3228Y-5.7362
X5.3228Y-6.2362
X5.3228Y-6.7362
X5.3228Y-7.2362
X5.3228Y-7.7362
X5.3228Y-8.2362
X5.3228Y-8.7362
X5.3228Y-9.2362
X5.3228Y-9.7362
X5.3819Y-2.0531
X5.3819Y-2.5531
X5.3819Y-3.0551
X5.3819Y-3.5551
X5.3819Y-4.0512
X5.3819Y-4.5531
X5.3819Y-5.0531
X5.3819Y-5.5531
X5.3819Y-6.0531
X5.3819Y-6.5531
X5.3819Y-7.0531
X5.3819Y-7.5531
X5.3819Y-8.0531
X5.3819Y-8.5531
X5.3819Y-9.0531
X5.3819Y-9.5531
X5.689Y-1.9232
X5.689Y-2.4232
X5.689Y-2.9232
X5.689Y-3.4232
X5.689Y-3.9232
X5.689Y-4.4232
X5.689Y-4.9232
X5.689Y-5.4232
X5.689Y-5.9232
X5.689Y-6.4232
X5.689Y-6.9232
X5.689Y-7.4232
X5.689Y-7.9232
X5.689Y-8.4232
X5.689Y-8.9232
X5.689Y-9.4232
X5.748Y-2.2362
X5.748Y-2.7362
X5.748Y-3.2362
X5.748Y-3.7362
X5.748Y-4.2362
X5.748Y-4.7362
X5.748Y-5.2362
X5.748Y-5.7362
X5.748Y-6.2362
X5.748Y-6.7362
X5.748Y-7.2362
X5.748Y-7.7362
X5.748Y-8.2362
X5.748Y-8.7362
X5.748Y-9.2362
X5.748Y-9.7362
X5.8228Y-2.2362
X5.8228Y-2.7362
X5.8228Y-3.2362
X5.8228Y-3.7362
X5.8228Y-4.2362
X5.8228Y-4.7362
X5.8228Y-5.2362
X5.8228Y-5.7362
X5.8228Y-6.2362
X5.8228Y-6.7362
X5.8228Y-7.2362
X5.8228Y-7.7362
X5.8228Y-8.2362
X5.8228Y-8.7362
X5.8228Y-9.2362
X5.8228Y-9.7362
X5.8819Y-2.0531
X5.8819Y-2.5531
X5.8819Y-3.0551
X5.8819Y-3.5551
X5.8819Y-4.0512
X5.8819Y-4.5531
X5.8819Y-5.0531
X5.8819Y-5.5531
X5.8819Y-6.0531
X5.8819Y-6.5531
X5.8819Y-7.0531
X5.8819Y-7.5531
X5.8819Y-8.0531
X5.8819Y-8.5531
X5.8819Y-9.0531
X5.8819Y-9.5531
X6.189Y-1.9232
X6.189Y-2.4232
X6.189Y-2.9232
X6.189Y-3.4232
X6.189Y-3.9232
X6.189Y-4.4232
X6.189Y-4.9232
X6.189Y-5.4232
X6.189Y-5.9232
X6.189Y-6.4232
X6.189Y-6.9232
X6.189Y-7.4232
X6.189Y-7.9232
X6.189Y-8.4232
X6.189Y-8.9232
X6.189Y-9.4232
X6.248Y-2.2362
X6.248Y-2.7362
X6.248Y-3.2362
X6.248Y-3.7362
X6.248Y-4.2362
X6.248Y-4.7362
X6.248Y-5.2362
X6.248Y-5.7362
X6.248Y-6.2362
X6.248Y-6.7362
X6.248Y-7.2362
X6.248Y-7.7362
X6.248Y-8.2362
X6.248Y-8.7362
X6.248Y-9.2362
X6.248Y-9.7362
X6.3228Y-2.2362
X6.3228Y-2.7362
X6.3228Y-3.2362
X6.3228Y-3.7362
X6.3228Y-4.2362
X6.3228Y-4.7362
X6.3228Y-5.2362
X6.3228Y-5.7362
X6.3228Y-6.2362
X6.3228Y-6.7362
X6.3228Y-7.2362
X6.3228Y-7.7362
X6.3228Y-8.2362
X6.3228Y-8.7362
X6.3228Y-9.2362
X6.3228Y-9.7362
X6.3819Y-2.0531
X6.3819Y-2.5531
X6.3819Y-3.0551
X6.3819Y-3.5551
X6.3819Y-4.0512
X6.3819Y-4.5531
X6.3819Y-5.0531
X6.3819Y-5.5531
X6.3819Y-6.0531
X6.3819Y-6.5531
X6.3819Y-7.0531
X6.3819Y-7.5531
X6.3819Y-8.0531
X6.3819Y-8.5531
X6.3819Y-9.0531
X6.3819Y-9.5531
X6.689Y-1.9232
X6.689Y-2.4232
X6.689Y-2.9232
X6.689Y-3.4232
X6.689Y-3.9232
X6.689Y-4.4232
X6.689Y-4.9232
X6.689Y-5.4232
X6.689Y-5.9232
X6.689Y-6.4232
X6.689Y-6.9232
X6.689Y-7.4232
X6.689Y-7.9232
X6.689Y-8.4232
X6.689Y-8.9232
X6.689Y-9.4232
X6.748Y-2.2362
X6.748Y-2.7362
X6.748Y-3.2362
X6.748Y-3.7362
X6.748Y-4.2362
X6.748Y-4.7362
X6.748Y-5.2362
X6.748Y-5.7362
X6.748Y-6.2362
X6.748Y-6.7362
X6.748Y-7.2362
X6.748Y-7.7362
X6.748Y-8.2362
X6.748Y-8.7362
X6.748Y-9.2362
X6.748Y-9.7362
X6.8228Y-2.2362
X6.8228Y-2.7362
X6.8228Y-3.2362
X6.8228Y-3.7362
X6.8228Y-4.2362
X6.8228Y-4.7362
X6.8228Y-5.2362
X6.8228Y-5.7362
X6.8228Y-6.2362
X6.8228Y-6.7362
X6.8228Y-7.2362
X6.8228Y-7.7362
X6.8228Y-8.2362
X6.8228Y-8.7362
X6.8228Y-9.2362
X6.8228Y-9.7362
X6.8819Y-2.0531
X6.8819Y-2.5531
X6.8819Y-3.0551
X6.8819Y-3.5551
X6.8819Y-4.0512
X6.8819Y-4.5531
X6.8819Y-5.0531
X6.8819Y-5.5531
X6.8819Y-6.0531
X6.8819Y-6.5531
X6.8819Y-7.0531
X6.8819Y-7.5531
X6.8819Y-8.0531
X6.8819Y-8.5531
X6.8819Y-9.0531
X6.8819Y-9.5531
X7.189Y-1.9232
X7.189Y-2.4232
X7.189Y-2.9232
X7.189Y-3.4232
X7.189Y-3.9232
X7.189Y-4.4232
X7.189Y-4.9232
X7.189Y-5.4232
X7.189Y-5.9232
X7.189Y-6.4232
X7.189Y-6.9232
X7.189Y-7.4232
X7.189Y-7.9232
X7.189Y-8.4232
X7.189Y-8.9232
X7.189Y-9.4232
X7.248Y-2.2362
X7.248Y-2.7362
X7.248Y-3.2362
X7.248Y-3.7362
X7.248Y-4.2362
X7.248Y-4.7362
X7.248Y-5.2362
X7.248Y-5.7362
X7.248Y-6.2362
X7.248Y-6.7362
X7.248Y-7.2362
X7.248Y-7.7362
X7.248Y-8.2362
X7.248Y-8.7362
X7.248Y-9.2362
X7.248Y-9.7362
X7.3228Y-2.2362
X7.3228Y-2.7362
X7.3228Y-3.2362
X7.3228Y-3.7362
X7.3228Y-4.2362
X7.3228Y-4.7362
X7.3228Y-5.2362
X7.3228Y-5.7362
X7.3228Y-6.2362
X7.3228Y-6.7362
X7.3228Y-7.2362
X7.3228Y-7.7362
X7.3228Y-8.2362
X7.3228Y-8.7362
X7.3228Y-9.2362
X7.3228Y-9.7362
X7.3819Y-1.9232
X7.3819Y-2.0531
X7.3819Y-2.5531
X7.3819Y-3.0531
X7.3819Y-3.5531
X7.3819Y-4.0531
X7.3819Y-4.5531
X7.3819Y-5.0531
X7.3819Y-5.5531
X7.3819Y-5.9232
X7.3819Y-6.0531
X7.3819Y-6.5531
X7.3819Y-7.0531
X7.3819Y-7.5531
X7.3819Y-8.0531
X7.3819Y-8.5531
X7.3819Y-9.0531
X7.3819Y-9.5531
X7.689Y-1.9232
X7.689Y-2.4232
X7.689Y-2.9232
X7.689Y-3.4232
X7.689Y-3.9232
X7.689Y-4.4232
X7.689Y-4.9232
X7.689Y-5.4232
X7.689Y-5.9232
X7.689Y-6.4232
X7.689Y-6.9232
X7.689Y-7.4232
X7.689Y-7.9232
X7.689Y-8.4232
X7.689Y-8.9232
X7.689Y-9.4232
X7.748Y-2.2362
X7.748Y-2.7362
X7.748Y-3.2362
X7.748Y-3.7362
X7.748Y-4.2362
X7.748Y-4.7362
X7.748Y-5.2362
X7.748Y-5.7362
X7.748Y-6.2362
X7.748Y-6.7362
X7.748Y-7.2362
X7.748Y-7.7362
X7.748Y-8.2362
X7.748Y-8.7362
X7.748Y-9.2362
X7.748Y-9.7362
X7.8228Y-2.2362
X7.8228Y-2.7362
X7.8228Y-3.2362
X7.8228Y-3.7362
X7.8228Y-4.2362
X7.8228Y-4.7362
X7.8228Y-5.2362
X7.8228Y-5.7362
X7.8228Y-6.2362
X7.8228Y-6.7362
X7.8228Y-7.2362
X7.8228Y-7.7362
X7.8228Y-8.2362
X7.8228Y-8.7362
X7.8228Y-9.2362
X7.8228Y-9.7362
X7.8819Y-2.0531
X7.8819Y-2.5531
X7.8819Y-3.0531
X7.8819Y-3.5531
X7.8819Y-4.0531
X7.8819Y-4.5531
X7.8819Y-5.0531
X7.8819Y-5.5531
X7.8819Y-6.0531
X7.8819Y-6.5531
X7.8819Y-7.0531
X7.8819Y-7.5531
X7.8819Y-8.0531
X7.8819Y-8.5531
X7.8819Y-9.0531
X7.8819Y-9.5531
X8.189Y-1.9232
X8.189Y-2.4232
X8.189Y-2.9232
X8.189Y-3.4232
X8.189Y-3.9232
X8.189Y-4.4232
X8.189Y-4.9232
X8.189Y-5.4232
X8.189Y-5.9232
X8.189Y-6.4232
X8.189Y-6.9232
X8.189Y-7.4232
X8.189Y-7.9232
X8.189Y-8.4232
X8.189Y-8.9232
X8.189Y-9.4232
X8.248Y-2.2362
X8.248Y-2.7362
X8.248Y-3.2362
X8.248Y-3.7362
X8.248Y-4.2362
X8.248Y-4.7362
X8.248Y-5.2362
X8.248Y-5.7362
X8.248Y-6.2362
X8.248Y-6.7362
X8.248Y-7.2362
X8.248Y-7.7362
X8.248Y-8.2362
X8.248Y-8.7362
X8.248Y-9.2362
X8.248Y-9.7362
X8.3228Y-2.2362
X8.3228Y-2.7362
X8.3228Y-3.2362
X8.3228Y-3.7362
X8.3228Y-4.2362
X8.3228Y-4.7362
X8.3228Y-5.2362
X8.3228Y-5.7362
X8.3228Y-6.2362
X8.3228Y-6.7362
X8.3228Y-7.2362
X8.3228Y-7.7362
X8.3228Y-8.2362
X8.3228Y-8.7362
X8.3228Y-9.2362
X8.3228Y-9.7362
X8.3819Y-2.0531
X8.3819Y-2.5531
X8.3819Y-3.0531
X8.3819Y-3.5531
X8.3819Y-4.0531
X8.3819Y-4.5531
X8.3819Y-5.0531
X8.3819Y-5.5531
X8.3819Y-6.0531
X8.3819Y-6.5531
X8.3819Y-7.0531
X8.3819Y-7.5531
X8.3819Y-8.0531
X8.3819Y-8.5531
X8.3819Y-9.0531
X8.3819Y-9.5531
X8.689Y-1.9232
X8.689Y-2.4232
X8.689Y-2.9232
X8.689Y-3.4232
X8.689Y-3.9232
X8.689Y-4.4232
X8.689Y-4.9232
X8.689Y-5.4232
X8.689Y-5.9232
X8.689Y-6.4232
X8.689Y-6.9232
X8.689Y-7.4232
X8.689Y-7.9232
X8.689Y-8.4232
X8.689Y-8.9232
X8.689Y-9.4232
X8.748Y-2.2362
X8.748Y-2.7362
X8.748Y-3.2362
X8.748Y-3.7362
X8.748Y-4.2362
X8.748Y-4.7362
X8.748Y-5.2362
X8.748Y-5.7362
X8.748Y-6.2362
X8.748Y-6.7362
X8.748Y-7.2362
X8.748Y-7.7362
X8.748Y-8.2362
X8.748Y-8.7362
X8.748Y-9.2362
X8.748Y-9.7362
X8.8228Y-2.2362
X8.8228Y-2.7362
X8.8228Y-3.2362
X8.8228Y-3.7362
X8.8228Y-4.2362
X8.8228Y-4.7362
X8.8228Y-5.2362
X8.8228Y-5.7362
X8.8228Y-6.2362
X8.8228Y-6.7362
X8.8228Y-7.2362
X8.8228Y-7.7362
X8.8228Y-8.2362
X8.8228Y-8.7362
X8.8228Y-9.2362
X8.8228Y-9.7362
X8.8819Y-2.0531
X8.8819Y-2.5531
X8.8819Y-3.0531
X8.8819Y-3.5531
X8.8819Y-4.0531
X8.8819Y-4.5531
X8.8819Y-5.0531
X8.8819Y-5.5531
X8.8819Y-6.0531
X8.8819Y-6.5531
X8.8819Y-7.0531
X8.8819Y-7.5531
X8.8819Y-8.0531
X8.8819Y-8.5531
X8.8819Y-9.0531
X8.8819Y-9.5531
X9.189Y-1.9232
X9.189Y-2.4232
X9.189Y-2.9232
X9.189Y-3.4232
X9.189Y-3.9232
X9.189Y-4.4232
X9.189Y-4.9232
X9.189Y-5.4232
X9.189Y-5.9232
X9.189Y-6.4232
X9.189Y-6.9232
X9.189Y-7.4232
X9.189Y-7.9232
X9.189Y-8.4232
X9.189Y-8.9232
X9.189Y-9.4232
X9.248Y-2.2362
X9.248Y-2.7362
X9.248Y-3.2362
X9.248Y-3.7362
X9.248Y-4.2362
X9.248Y-4.7362
X9.248Y-5.2362
X9.248Y-5.7362
X9.248Y-6.2362
X9.248Y-6.7362
X9.248Y-7.2362
X9.248Y-7.7362
X9.248Y-8.2362
X9.248Y-8.7362
X9.248Y-9.2362
X9.248Y-9.7362
X9.3228Y-2.2362
X9.3228Y-2.7362
X9.3228Y-3.2362
X9.3228Y-3.7362
X9.3228Y-4.2362
X9.3228Y-4.7362
X9.3228Y-5.2362
X9.3228Y-5.7362
X9.3228Y-6.2362
X9.3228Y-6.7362
X9.3228Y-7.2362
X9.3228Y-7.7362
X9.3228Y-8.2362
X9.3228Y-8.7362
X9.3228Y-9.2362
X9.3228Y-9.7362
X9.3819Y-2.0531
X9.3819Y-2.5531
X9.3819Y-3.0531
X9.3819Y-3.5531
X9.3819Y-4.0531
X9.3819Y-4.5531
X9.3819Y-5.0531
X9.3819Y-5.5531
X9.3819Y-6.0531
X9.3819Y-6.5531
X9.3819Y-7.0531
X9.3819Y-7.5531
X9.3819Y-8.0531
X9.3819Y-8.5531
X9.3819Y-9.0531
X9.3819Y-9.5531
X9.689Y-1.9232
X9.689Y-2.4232
X9.689Y-2.9232
X9.689Y-3.4232
X9.689Y-3.9232
X9.689Y-4.4232
X9.689Y-4.9232
X9.689Y-5.4232
X9.689Y-5.9232
X9.689Y-6.4232
X9.689Y-6.9232
X9.689Y-7.4232
X9.689Y-7.9232
X9.689Y-8.4232
X9.689Y-8.9232
X9.689Y-9.4232
X9.748Y-2.2362
X9.748Y-2.7362
X9.748Y-3.2362
X9.748Y-3.7362
X9.748Y-4.2362
X9.748Y-4.7362
X9.748Y-5.2362
X9.748Y-5.7362
X9.748Y-6.2362
X9.748Y-6.7362
X9.748Y-7.2362
X9.748Y-7.7362
X9.748Y-8.2362
X9.748Y-8.7362
X9.748Y-9.2362
X9.748Y-9.7362
X9.8228Y-2.2362
X9.8228Y-2.7362
X9.8228Y-3.2362
X9.8228Y-3.7362
X9.8228Y-4.2362
X9.8228Y-4.7362
X9.8228Y-5.2362
X9.8228Y-5.7362
X9.8228Y-6.2362
X9.8228Y-6.7362
X9.8228Y-7.2362
X9.8228Y-7.7362
X9.8228Y-8.2362
X9.8228Y-8.7362
X9.8228Y-9.2362
X9.8228Y-9.7362
X9.8819Y-2.0531
X9.8819Y-2.5531
X9.8819Y-3.0531
X9.8819Y-3.5531
X9.8819Y-4.0531
X9.8819Y-4.5531
X9.8819Y-5.0531
X9.8819Y-5.5531
X9.8819Y-6.0531
X9.8819Y-6.5531
X9.8819Y-7.0531
X9.8819Y-7.5531
X9.8819Y-8.0531
X9.8819Y-8.5531
X9.8819Y-9.0531
X9.8819Y-9.5531
X10.189Y-1.9232
X10.189Y-2.4232
X10.189Y-2.9232
X10.189Y-3.4232
X10.189Y-3.9232
X10.189Y-4.4232
X10.189Y-4.9232
X10.189Y-5.4232
X10.189Y-5.9232
X10.189Y-6.4232
X10.189Y-6.9232
X10.189Y-7.4232
X10.189Y-7.9232
X10.189Y-8.4232
X10.189Y-8.9232
X10.189Y-9.4232
X10.248Y-2.2362
X10.248Y-2.7362
X10.248Y-3.2362
X10.248Y-3.7362
X10.248Y-4.2362
X10.248Y-4.7362
X10.248Y-5.2362
X10.248Y-5.7362
X10.248Y-6.2362
X10.248Y-6.7362
X10.248Y-7.2362
X10.248Y-7.7362
X10.248Y-8.2362
X10.248Y-8.7362
X10.248Y-9.2362
X10.248Y-9.7362
X10.3228Y-2.2362
X10.3228Y-2.7362
X10.3228Y-3.2362
X10.3228Y-3.7362
X10.3228Y-4.2362
X10.3228Y-4.7362
X10.3228Y-5.2362
X10.3228Y-5.7362
X10.3228Y-6.2362
X10.3228Y-6.7362
X10.3228Y-7.2362
X10.3228Y-7.7362
X10.3228Y-8.2362
X10.3228Y-8.7362
X10.3228Y-9.2362
X10.3228Y-9.7362
X10.3819Y-2.0531
X10.3819Y-2.5531
X10.3819Y-3.0531
X10.3819Y-3.5531
X10.3819Y-4.0531
X10.3819Y-4.5531
X10.3819Y-5.0531
X10.3819Y-5.5531
X10.3819Y-6.0531
X10.3819Y-6.5531
X10.3819Y-7.0531
X10.3819Y-7.5531
X10.3819Y-8.0531
X10.3819Y-8.5531
X10.3819Y-9.0531
X10.3819Y-9.5531
X10.689Y-1.9232
X10.689Y-2.4232
X10.689Y-2.9232
X10.689Y-3.4232
X10.689Y-3.9232
X10.689Y-4.4232
X10.689Y-4.9232
X10.689Y-5.4232
X10.689Y-5.9232
X10.689Y-6.4232
X10.689Y-6.9232
X10.689Y-7.4232
X10.689Y-7.9232
X10.689Y-8.4232
X10.689Y-8.9232
X10.689Y-9.4232
X10.748Y-2.2362
X10.748Y-2.7362
X10.748Y-3.2362
X10.748Y-3.7362
X10.748Y-4.2362
X10.748Y-4.7362
X10.748Y-5.2362
X10.748Y-5.7362
X10.748Y-6.2362
X10.748Y-6.7362
X10.748Y-7.2362
X10.748Y-7.7362
X10.748Y-8.2362
X10.748Y-8.7362
X10.748Y-9.2362
X10.748Y-9.7362
X10.8228Y-2.2362
X10.8228Y-2.7362
X10.8228Y-3.2362
X10.8228Y-3.7362
X10.8228Y-4.2362
X10.8228Y-4.7362
X10.8228Y-5.2362
X10.8228Y-5.7362
X10.8228Y-6.2362
X10.8228Y-6.7362
X10.8228Y-7.2362
X10.8228Y-7.7362
X10.8228Y-8.2362
X10.8228Y-8.7362
X10.8228Y-9.2362
X10.8228Y-9.7362
X10.8819Y-2.0531
X10.8819Y-2.5531
X10.8819Y-3.0531
X10.8819Y-3.5531
X10.8819Y-4.0531
X10.8819Y-4.5531
X10.8819Y-5.0531
X10.8819Y-5.5531
X10.8819Y-6.0531
X10.8819Y-6.5531
X10.8819Y-7.0531
X10.8819Y-7.5531
X10.8819Y-8.0531
X10.8819Y-8.5531
X10.8819Y-9.0531
X10.8819Y-9.5531
T2
X2.4016Y-4.5482
X2.4685Y-4.5482
X2.5354Y-4.5482
X2.6024Y-4.5482
X2.6693Y-4.5482
T3
X1.7913Y-4.5827
X1.7913Y-4.6827
X1.7913Y-4.7827
X1.7913Y-4.8827
T4
X2.0354Y-4.1575
X2.5354Y-4.1575
T5
X1.7323Y-1.7717
X1.7323Y-9.8031
X11.063Y-1.7717
X11.063Y-9.8031
T0
M30
