%TF.GenerationSoftware,KiCad,Pcbnew,(7.0.0)*%
%TF.CreationDate,2023-07-18T21:48:05-06:00*%
%TF.ProjectId,led-matrix-v4,6c65642d-6d61-4747-9269-782d76342e6b,0*%
%TF.SameCoordinates,Original*%
%TF.FileFunction,Paste,Bot*%
%TF.FilePolarity,Positive*%
%FSLAX46Y46*%
G04 Gerber Fmt 4.6, Leading zero omitted, Abs format (unit mm)*
G04 Created by KiCad (PCBNEW (7.0.0)) date 2023-07-18 21:48:05*
%MOMM*%
%LPD*%
G01*
G04 APERTURE LIST*
G04 Aperture macros list*
%AMRoundRect*
0 Rectangle with rounded corners*
0 $1 Rounding radius*
0 $2 $3 $4 $5 $6 $7 $8 $9 X,Y pos of 4 corners*
0 Add a 4 corners polygon primitive as box body*
4,1,4,$2,$3,$4,$5,$6,$7,$8,$9,$2,$3,0*
0 Add four circle primitives for the rounded corners*
1,1,$1+$1,$2,$3*
1,1,$1+$1,$4,$5*
1,1,$1+$1,$6,$7*
1,1,$1+$1,$8,$9*
0 Add four rect primitives between the rounded corners*
20,1,$1+$1,$2,$3,$4,$5,0*
20,1,$1+$1,$4,$5,$6,$7,0*
20,1,$1+$1,$6,$7,$8,$9,0*
20,1,$1+$1,$8,$9,$2,$3,0*%
G04 Aperture macros list end*
%ADD10RoundRect,0.250000X0.250000X0.475000X-0.250000X0.475000X-0.250000X-0.475000X0.250000X-0.475000X0*%
G04 APERTURE END LIST*
D10*
%TO.C,C228*%
X224100000Y-209200000D03*
X222200000Y-209200000D03*
%TD*%
%TO.C,C36*%
X122500000Y-107600000D03*
X120600000Y-107600000D03*
%TD*%
%TO.C,C19*%
X109800000Y-82200000D03*
X107900000Y-82200000D03*
%TD*%
%TO.C,C90*%
X160600000Y-196500000D03*
X158700000Y-196500000D03*
%TD*%
%TO.C,C208*%
X186000000Y-171100000D03*
X184100000Y-171100000D03*
%TD*%
%TO.C,C153*%
X274900000Y-94900000D03*
X273000000Y-94900000D03*
%TD*%
%TO.C,C47*%
X97100000Y-120300000D03*
X95200000Y-120300000D03*
%TD*%
%TO.C,C200*%
X274900000Y-158400000D03*
X273000000Y-158400000D03*
%TD*%
%TO.C,C28*%
X135200000Y-94900000D03*
X133300000Y-94900000D03*
%TD*%
%TO.C,C173*%
X224100000Y-120300000D03*
X222200000Y-120300000D03*
%TD*%
%TO.C,C220*%
X236800000Y-196500000D03*
X234900000Y-196500000D03*
%TD*%
%TO.C,C113*%
X84400000Y-234600000D03*
X82500000Y-234600000D03*
%TD*%
%TO.C,C100*%
X122500000Y-209200000D03*
X120600000Y-209200000D03*
%TD*%
%TO.C,C162*%
X198700000Y-107600000D03*
X196800000Y-107600000D03*
%TD*%
%TO.C,C215*%
X262200000Y-183800000D03*
X260300000Y-183800000D03*
%TD*%
%TO.C,C27*%
X147900000Y-94900000D03*
X146000000Y-94900000D03*
%TD*%
%TO.C,C53*%
X135200000Y-133000000D03*
X133300000Y-133000000D03*
%TD*%
%TO.C,C59*%
X147900000Y-145700000D03*
X146000000Y-145700000D03*
%TD*%
%TO.C,C256*%
X186000000Y-247300000D03*
X184100000Y-247300000D03*
%TD*%
%TO.C,C125*%
X122500000Y-247300000D03*
X120600000Y-247300000D03*
%TD*%
%TO.C,C23*%
X160600000Y-82200000D03*
X158700000Y-82200000D03*
%TD*%
%TO.C,C167*%
X262200000Y-107600000D03*
X260300000Y-107600000D03*
%TD*%
%TO.C,C108*%
X135200000Y-221900000D03*
X133300000Y-221900000D03*
%TD*%
%TO.C,C166*%
X249500000Y-107600000D03*
X247600000Y-107600000D03*
%TD*%
%TO.C,C52*%
X122500000Y-133000000D03*
X120600000Y-133000000D03*
%TD*%
%TO.C,C140*%
X236800000Y-69500000D03*
X234900000Y-69500000D03*
%TD*%
%TO.C,C150*%
X249500000Y-82200000D03*
X247600000Y-82200000D03*
%TD*%
%TO.C,C135*%
X262200000Y-56800000D03*
X260300000Y-56800000D03*
%TD*%
%TO.C,C211*%
X211400000Y-183800000D03*
X209500000Y-183800000D03*
%TD*%
%TO.C,C73*%
X173300000Y-171100000D03*
X171400000Y-171100000D03*
%TD*%
%TO.C,C172*%
X236800000Y-120300000D03*
X234900000Y-120300000D03*
%TD*%
%TO.C,C196*%
X224100000Y-158400000D03*
X222200000Y-158400000D03*
%TD*%
%TO.C,C199*%
X262200000Y-158400000D03*
X260300000Y-158400000D03*
%TD*%
%TO.C,C65*%
X84400000Y-158400000D03*
X82500000Y-158400000D03*
%TD*%
%TO.C,C4*%
X122500000Y-56800000D03*
X120600000Y-56800000D03*
%TD*%
%TO.C,C239*%
X198700000Y-221900000D03*
X196800000Y-221900000D03*
%TD*%
%TO.C,C78*%
X109800000Y-171100000D03*
X107900000Y-171100000D03*
%TD*%
%TO.C,C242*%
X198700000Y-234600000D03*
X196800000Y-234600000D03*
%TD*%
%TO.C,C243*%
X211400000Y-234600000D03*
X209500000Y-234600000D03*
%TD*%
%TO.C,C210*%
X198700000Y-183800000D03*
X196800000Y-183800000D03*
%TD*%
%TO.C,C88*%
X173300000Y-183800000D03*
X171400000Y-183800000D03*
%TD*%
%TO.C,C67*%
X109800000Y-158400000D03*
X107900000Y-158400000D03*
%TD*%
%TO.C,C231*%
X262200000Y-209200000D03*
X260300000Y-209200000D03*
%TD*%
%TO.C,C112*%
X84400000Y-221900000D03*
X82500000Y-221900000D03*
%TD*%
%TO.C,C136*%
X274900000Y-56800000D03*
X273000000Y-56800000D03*
%TD*%
%TO.C,C193*%
X186000000Y-158400000D03*
X184100000Y-158400000D03*
%TD*%
%TO.C,C17*%
X84400000Y-82200000D03*
X82500000Y-82200000D03*
%TD*%
%TO.C,C158*%
X211400000Y-94900000D03*
X209500000Y-94900000D03*
%TD*%
%TO.C,C160*%
X186000000Y-94900000D03*
X184100000Y-94900000D03*
%TD*%
%TO.C,C101*%
X135200000Y-209200000D03*
X133300000Y-209200000D03*
%TD*%
%TO.C,C185*%
X274900000Y-145700000D03*
X273000000Y-145700000D03*
%TD*%
%TO.C,C99*%
X109800000Y-209200000D03*
X107900000Y-209200000D03*
%TD*%
%TO.C,C76*%
X135200000Y-171100000D03*
X133300000Y-171100000D03*
%TD*%
%TO.C,C70*%
X147900000Y-158400000D03*
X146000000Y-158400000D03*
%TD*%
%TO.C,C84*%
X122500000Y-183800000D03*
X120600000Y-183800000D03*
%TD*%
%TO.C,C226*%
X198700000Y-209200000D03*
X196800000Y-209200000D03*
%TD*%
%TO.C,C72*%
X173300000Y-158400000D03*
X171400000Y-158400000D03*
%TD*%
%TO.C,C223*%
X198700000Y-196500000D03*
X196800000Y-196500000D03*
%TD*%
%TO.C,C50*%
X97100000Y-133000000D03*
X95200000Y-133000000D03*
%TD*%
%TO.C,C39*%
X160600000Y-107600000D03*
X158700000Y-107600000D03*
%TD*%
%TO.C,C41*%
X173300000Y-120300000D03*
X171400000Y-120300000D03*
%TD*%
%TO.C,C25*%
X173300000Y-94900000D03*
X171400000Y-94900000D03*
%TD*%
%TO.C,C33*%
X84400000Y-107600000D03*
X82500000Y-107600000D03*
%TD*%
%TO.C,C232*%
X274900000Y-209200000D03*
X273000000Y-209200000D03*
%TD*%
%TO.C,C109*%
X122500000Y-221900000D03*
X120600000Y-221900000D03*
%TD*%
%TO.C,C44*%
X135200000Y-120300000D03*
X133300000Y-120300000D03*
%TD*%
%TO.C,C251*%
X249500000Y-247300000D03*
X247600000Y-247300000D03*
%TD*%
%TO.C,C168*%
X274900000Y-107600000D03*
X273000000Y-107600000D03*
%TD*%
%TO.C,C130*%
X198700000Y-56800000D03*
X196800000Y-56800000D03*
%TD*%
%TO.C,C222*%
X211400000Y-196500000D03*
X209500000Y-196500000D03*
%TD*%
%TO.C,C147*%
X211400000Y-82200000D03*
X209500000Y-82200000D03*
%TD*%
%TO.C,C237*%
X224100000Y-221900000D03*
X222200000Y-221900000D03*
%TD*%
%TO.C,C82*%
X97100000Y-183800000D03*
X95200000Y-183800000D03*
%TD*%
%TO.C,C1*%
X84400000Y-56800000D03*
X82500000Y-56800000D03*
%TD*%
%TO.C,C213*%
X236800000Y-183800000D03*
X234900000Y-183800000D03*
%TD*%
%TO.C,C35*%
X109800000Y-107600000D03*
X107900000Y-107600000D03*
%TD*%
%TO.C,C77*%
X122500000Y-171100000D03*
X120600000Y-171100000D03*
%TD*%
%TO.C,C138*%
X262200000Y-69500000D03*
X260300000Y-69500000D03*
%TD*%
%TO.C,C204*%
X236800000Y-171100000D03*
X234900000Y-171100000D03*
%TD*%
%TO.C,C157*%
X224100000Y-94900000D03*
X222200000Y-94900000D03*
%TD*%
%TO.C,C155*%
X249500000Y-94900000D03*
X247600000Y-94900000D03*
%TD*%
%TO.C,C119*%
X160600000Y-234600000D03*
X158700000Y-234600000D03*
%TD*%
%TO.C,C206*%
X211400000Y-171100000D03*
X209500000Y-171100000D03*
%TD*%
%TO.C,C61*%
X122500000Y-145700000D03*
X120600000Y-145700000D03*
%TD*%
%TO.C,C207*%
X198700000Y-171100000D03*
X196800000Y-171100000D03*
%TD*%
%TO.C,C221*%
X224100000Y-196500000D03*
X222200000Y-196500000D03*
%TD*%
%TO.C,C230*%
X249500000Y-209200000D03*
X247600000Y-209200000D03*
%TD*%
%TO.C,C9*%
X173300000Y-69500000D03*
X171400000Y-69500000D03*
%TD*%
%TO.C,C79*%
X97100000Y-171100000D03*
X95200000Y-171100000D03*
%TD*%
%TO.C,C252*%
X236800000Y-247300000D03*
X234900000Y-247300000D03*
%TD*%
%TO.C,C143*%
X198700000Y-69500000D03*
X196800000Y-69500000D03*
%TD*%
%TO.C,C188*%
X236800000Y-145700000D03*
X234900000Y-145700000D03*
%TD*%
%TO.C,C121*%
X173300000Y-247300000D03*
X171400000Y-247300000D03*
%TD*%
%TO.C,C192*%
X186000000Y-145700000D03*
X184100000Y-145700000D03*
%TD*%
%TO.C,C7*%
X160600000Y-56800000D03*
X158700000Y-56800000D03*
%TD*%
%TO.C,C16*%
X84400000Y-69500000D03*
X82500000Y-69500000D03*
%TD*%
%TO.C,C152*%
X274900000Y-82200000D03*
X273000000Y-82200000D03*
%TD*%
%TO.C,C187*%
X249500000Y-145700000D03*
X247600000Y-145700000D03*
%TD*%
%TO.C,C212*%
X224100000Y-183800000D03*
X222200000Y-183800000D03*
%TD*%
%TO.C,C198*%
X249500000Y-158400000D03*
X247600000Y-158400000D03*
%TD*%
%TO.C,C194*%
X198700000Y-158400000D03*
X196800000Y-158400000D03*
%TD*%
%TO.C,C144*%
X186000000Y-69500000D03*
X184100000Y-69500000D03*
%TD*%
%TO.C,C129*%
X186000000Y-56800000D03*
X184100000Y-56800000D03*
%TD*%
%TO.C,C142*%
X211400000Y-69500000D03*
X209500000Y-69500000D03*
%TD*%
%TO.C,C191*%
X198700000Y-145700000D03*
X196800000Y-145700000D03*
%TD*%
%TO.C,C37*%
X135200000Y-107600000D03*
X133300000Y-107600000D03*
%TD*%
%TO.C,C248*%
X274900000Y-234600000D03*
X273000000Y-234600000D03*
%TD*%
%TO.C,C240*%
X186000000Y-221900000D03*
X184100000Y-221900000D03*
%TD*%
%TO.C,C159*%
X198700000Y-94900000D03*
X196800000Y-94900000D03*
%TD*%
%TO.C,C236*%
X236800000Y-221900000D03*
X234900000Y-221900000D03*
%TD*%
%TO.C,C137*%
X274900000Y-69500000D03*
X273000000Y-69500000D03*
%TD*%
%TO.C,C95*%
X97100000Y-196500000D03*
X95200000Y-196500000D03*
%TD*%
%TO.C,C224*%
X186000000Y-196500000D03*
X184100000Y-196500000D03*
%TD*%
%TO.C,C55*%
X160600000Y-133000000D03*
X158700000Y-133000000D03*
%TD*%
%TO.C,C169*%
X274900000Y-120300000D03*
X273000000Y-120300000D03*
%TD*%
%TO.C,C146*%
X198700000Y-82200000D03*
X196800000Y-82200000D03*
%TD*%
%TO.C,C132*%
X224100000Y-56800000D03*
X222200000Y-56800000D03*
%TD*%
%TO.C,C209*%
X186000000Y-183800000D03*
X184100000Y-183800000D03*
%TD*%
%TO.C,C244*%
X224100000Y-234600000D03*
X222200000Y-234600000D03*
%TD*%
%TO.C,C31*%
X97100000Y-94900000D03*
X95200000Y-94900000D03*
%TD*%
%TO.C,C64*%
X84400000Y-145700000D03*
X82500000Y-145700000D03*
%TD*%
%TO.C,C18*%
X97100000Y-82200000D03*
X95200000Y-82200000D03*
%TD*%
%TO.C,C56*%
X173300000Y-133000000D03*
X171400000Y-133000000D03*
%TD*%
%TO.C,C80*%
X84400000Y-171100000D03*
X82500000Y-171100000D03*
%TD*%
%TO.C,C134*%
X249500000Y-56800000D03*
X247600000Y-56800000D03*
%TD*%
%TO.C,C111*%
X97100000Y-221900000D03*
X95200000Y-221900000D03*
%TD*%
%TO.C,C69*%
X135200000Y-158400000D03*
X133300000Y-158400000D03*
%TD*%
%TO.C,C93*%
X122500000Y-196500000D03*
X120600000Y-196500000D03*
%TD*%
%TO.C,C184*%
X274900000Y-133000000D03*
X273000000Y-133000000D03*
%TD*%
%TO.C,C66*%
X97100000Y-158400000D03*
X95200000Y-158400000D03*
%TD*%
%TO.C,C87*%
X160600000Y-183800000D03*
X158700000Y-183800000D03*
%TD*%
%TO.C,C5*%
X135200000Y-56800000D03*
X133300000Y-56800000D03*
%TD*%
%TO.C,C171*%
X249500000Y-120300000D03*
X247600000Y-120300000D03*
%TD*%
%TO.C,C20*%
X122500000Y-82200000D03*
X120600000Y-82200000D03*
%TD*%
%TO.C,C68*%
X122500000Y-158400000D03*
X120600000Y-158400000D03*
%TD*%
%TO.C,C81*%
X84400000Y-183800000D03*
X82500000Y-183800000D03*
%TD*%
%TO.C,C156*%
X236800000Y-94900000D03*
X234900000Y-94900000D03*
%TD*%
%TO.C,C107*%
X147900000Y-221900000D03*
X146000000Y-221900000D03*
%TD*%
%TO.C,C98*%
X97100000Y-209200000D03*
X95200000Y-209200000D03*
%TD*%
%TO.C,C216*%
X274900000Y-183800000D03*
X273000000Y-183800000D03*
%TD*%
%TO.C,C63*%
X97100000Y-145700000D03*
X95200000Y-145700000D03*
%TD*%
%TO.C,C13*%
X122500000Y-69500000D03*
X120600000Y-69500000D03*
%TD*%
%TO.C,C180*%
X224100000Y-133000000D03*
X222200000Y-133000000D03*
%TD*%
%TO.C,C106*%
X160600000Y-221900000D03*
X158700000Y-221900000D03*
%TD*%
%TO.C,C15*%
X97100000Y-69500000D03*
X95200000Y-69500000D03*
%TD*%
%TO.C,C38*%
X147900000Y-107600000D03*
X146000000Y-107600000D03*
%TD*%
%TO.C,C22*%
X147900000Y-82200000D03*
X146000000Y-82200000D03*
%TD*%
%TO.C,C115*%
X109800000Y-234600000D03*
X107900000Y-234600000D03*
%TD*%
%TO.C,C148*%
X224100000Y-82200000D03*
X222200000Y-82200000D03*
%TD*%
%TO.C,C49*%
X84400000Y-133000000D03*
X82500000Y-133000000D03*
%TD*%
%TO.C,C190*%
X211400000Y-145700000D03*
X209500000Y-145700000D03*
%TD*%
%TO.C,C58*%
X160600000Y-145700000D03*
X158700000Y-145700000D03*
%TD*%
%TO.C,C197*%
X236800000Y-158400000D03*
X234900000Y-158400000D03*
%TD*%
%TO.C,C118*%
X147900000Y-234600000D03*
X146000000Y-234600000D03*
%TD*%
%TO.C,C149*%
X236800000Y-82200000D03*
X234900000Y-82200000D03*
%TD*%
%TO.C,C57*%
X173300000Y-145700000D03*
X171400000Y-145700000D03*
%TD*%
%TO.C,C219*%
X249500000Y-196500000D03*
X247600000Y-196500000D03*
%TD*%
%TO.C,C189*%
X224100000Y-145700000D03*
X222200000Y-145700000D03*
%TD*%
%TO.C,C127*%
X97100000Y-247300000D03*
X95200000Y-247300000D03*
%TD*%
%TO.C,C203*%
X249500000Y-171100000D03*
X247600000Y-171100000D03*
%TD*%
%TO.C,C235*%
X249500000Y-221900000D03*
X247600000Y-221900000D03*
%TD*%
%TO.C,C30*%
X109800000Y-94900000D03*
X107900000Y-94900000D03*
%TD*%
%TO.C,C42*%
X160600000Y-120300000D03*
X158700000Y-120300000D03*
%TD*%
%TO.C,C54*%
X147900000Y-133000000D03*
X146000000Y-133000000D03*
%TD*%
%TO.C,C181*%
X236800000Y-133000000D03*
X234900000Y-133000000D03*
%TD*%
%TO.C,C46*%
X109800000Y-120300000D03*
X107900000Y-120300000D03*
%TD*%
%TO.C,C126*%
X109800000Y-247300000D03*
X107900000Y-247300000D03*
%TD*%
%TO.C,C2*%
X97100000Y-56800000D03*
X95200000Y-56800000D03*
%TD*%
%TO.C,C8*%
X173300000Y-56800000D03*
X171400000Y-56800000D03*
%TD*%
%TO.C,C154*%
X262200000Y-94900000D03*
X260300000Y-94900000D03*
%TD*%
%TO.C,C225*%
X186000000Y-209200000D03*
X184100000Y-209200000D03*
%TD*%
%TO.C,C250*%
X262200000Y-247300000D03*
X260300000Y-247300000D03*
%TD*%
%TO.C,C164*%
X224100000Y-107600000D03*
X222200000Y-107600000D03*
%TD*%
%TO.C,C247*%
X262200000Y-234600000D03*
X260300000Y-234600000D03*
%TD*%
%TO.C,C89*%
X173300000Y-196500000D03*
X171400000Y-196500000D03*
%TD*%
%TO.C,C92*%
X135200000Y-196500000D03*
X133300000Y-196500000D03*
%TD*%
%TO.C,C94*%
X109800000Y-196500000D03*
X107900000Y-196500000D03*
%TD*%
%TO.C,C217*%
X274900000Y-196500000D03*
X273000000Y-196500000D03*
%TD*%
%TO.C,C12*%
X135200000Y-69500000D03*
X133300000Y-69500000D03*
%TD*%
%TO.C,C43*%
X147900000Y-120300000D03*
X146000000Y-120300000D03*
%TD*%
%TO.C,C34*%
X97100000Y-107600000D03*
X95200000Y-107600000D03*
%TD*%
%TO.C,C234*%
X262200000Y-221900000D03*
X260300000Y-221900000D03*
%TD*%
%TO.C,C227*%
X211400000Y-209200000D03*
X209500000Y-209200000D03*
%TD*%
%TO.C,C201*%
X274900000Y-171100000D03*
X273000000Y-171100000D03*
%TD*%
%TO.C,C122*%
X160600000Y-247300000D03*
X158700000Y-247300000D03*
%TD*%
%TO.C,C86*%
X147900000Y-183800000D03*
X146000000Y-183800000D03*
%TD*%
%TO.C,C179*%
X211400000Y-133000000D03*
X209500000Y-133000000D03*
%TD*%
%TO.C,C195*%
X211400000Y-158400000D03*
X209500000Y-158400000D03*
%TD*%
%TO.C,C139*%
X249500000Y-69500000D03*
X247600000Y-69500000D03*
%TD*%
%TO.C,C29*%
X122500000Y-94900000D03*
X120600000Y-94900000D03*
%TD*%
%TO.C,C253*%
X224100000Y-247300000D03*
X222200000Y-247300000D03*
%TD*%
%TO.C,C104*%
X173300000Y-209200000D03*
X171400000Y-209200000D03*
%TD*%
%TO.C,C85*%
X135200000Y-183800000D03*
X133300000Y-183800000D03*
%TD*%
%TO.C,C48*%
X84400000Y-120300000D03*
X82500000Y-120300000D03*
%TD*%
%TO.C,C178*%
X198700000Y-133000000D03*
X196800000Y-133000000D03*
%TD*%
%TO.C,C21*%
X135200000Y-82200000D03*
X133300000Y-82200000D03*
%TD*%
%TO.C,C255*%
X198700000Y-247300000D03*
X196800000Y-247300000D03*
%TD*%
%TO.C,C249*%
X274900000Y-247300000D03*
X273000000Y-247300000D03*
%TD*%
%TO.C,C202*%
X262200000Y-171100000D03*
X260300000Y-171100000D03*
%TD*%
%TO.C,C218*%
X262200000Y-196500000D03*
X260300000Y-196500000D03*
%TD*%
%TO.C,C105*%
X173300000Y-221900000D03*
X171400000Y-221900000D03*
%TD*%
%TO.C,C10*%
X160600000Y-69500000D03*
X158700000Y-69500000D03*
%TD*%
%TO.C,C102*%
X147900000Y-209200000D03*
X146000000Y-209200000D03*
%TD*%
%TO.C,C103*%
X160600000Y-209200000D03*
X158700000Y-209200000D03*
%TD*%
%TO.C,C110*%
X109800000Y-221900000D03*
X107900000Y-221900000D03*
%TD*%
%TO.C,C71*%
X160600000Y-158400000D03*
X158700000Y-158400000D03*
%TD*%
%TO.C,C11*%
X147900000Y-69500000D03*
X146000000Y-69500000D03*
%TD*%
%TO.C,C97*%
X84400000Y-209200000D03*
X82500000Y-209200000D03*
%TD*%
%TO.C,C74*%
X160600000Y-171100000D03*
X158700000Y-171100000D03*
%TD*%
%TO.C,C233*%
X274900000Y-221900000D03*
X273000000Y-221900000D03*
%TD*%
%TO.C,C114*%
X97100000Y-234600000D03*
X95200000Y-234600000D03*
%TD*%
%TO.C,C124*%
X135200000Y-247300000D03*
X133300000Y-247300000D03*
%TD*%
%TO.C,C254*%
X211400000Y-247300000D03*
X209500000Y-247300000D03*
%TD*%
%TO.C,C117*%
X135200000Y-234600000D03*
X133300000Y-234600000D03*
%TD*%
%TO.C,C177*%
X186000000Y-133000000D03*
X184100000Y-133000000D03*
%TD*%
%TO.C,C51*%
X109800000Y-133000000D03*
X107900000Y-133000000D03*
%TD*%
%TO.C,C123*%
X147900000Y-247300000D03*
X146000000Y-247300000D03*
%TD*%
%TO.C,C83*%
X109800000Y-183800000D03*
X107900000Y-183800000D03*
%TD*%
%TO.C,C141*%
X224100000Y-69500000D03*
X222200000Y-69500000D03*
%TD*%
%TO.C,C40*%
X173300000Y-107600000D03*
X171400000Y-107600000D03*
%TD*%
%TO.C,C62*%
X109800000Y-145700000D03*
X107900000Y-145700000D03*
%TD*%
%TO.C,C163*%
X211400000Y-107600000D03*
X209500000Y-107600000D03*
%TD*%
%TO.C,C26*%
X160600000Y-94900000D03*
X158700000Y-94900000D03*
%TD*%
%TO.C,C245*%
X236800000Y-234600000D03*
X234900000Y-234600000D03*
%TD*%
%TO.C,C14*%
X109800000Y-69500000D03*
X107900000Y-69500000D03*
%TD*%
%TO.C,C120*%
X173300000Y-234600000D03*
X171400000Y-234600000D03*
%TD*%
%TO.C,C3*%
X109800000Y-56800000D03*
X107900000Y-56800000D03*
%TD*%
%TO.C,C60*%
X135200000Y-145700000D03*
X133300000Y-145700000D03*
%TD*%
%TO.C,C170*%
X262200000Y-120300000D03*
X260300000Y-120300000D03*
%TD*%
%TO.C,C32*%
X84400000Y-94900000D03*
X82500000Y-94900000D03*
%TD*%
%TO.C,C186*%
X262200000Y-145700000D03*
X260300000Y-145700000D03*
%TD*%
%TO.C,C182*%
X249500000Y-133000000D03*
X247600000Y-133000000D03*
%TD*%
%TO.C,C75*%
X147900000Y-171100000D03*
X146000000Y-171100000D03*
%TD*%
%TO.C,C96*%
X84400000Y-196500000D03*
X82500000Y-196500000D03*
%TD*%
%TO.C,C175*%
X198700000Y-120300000D03*
X196800000Y-120300000D03*
%TD*%
%TO.C,C246*%
X249500000Y-234600000D03*
X247600000Y-234600000D03*
%TD*%
%TO.C,C214*%
X249500000Y-183800000D03*
X247600000Y-183800000D03*
%TD*%
%TO.C,C6*%
X147900000Y-56800000D03*
X146000000Y-56800000D03*
%TD*%
%TO.C,C183*%
X262200000Y-133000000D03*
X260300000Y-133000000D03*
%TD*%
%TO.C,C176*%
X186000000Y-120300000D03*
X184100000Y-120300000D03*
%TD*%
%TO.C,C131*%
X211400000Y-56800000D03*
X209500000Y-56800000D03*
%TD*%
%TO.C,C238*%
X211400000Y-221900000D03*
X209500000Y-221900000D03*
%TD*%
%TO.C,C229*%
X236800000Y-209200000D03*
X234900000Y-209200000D03*
%TD*%
%TO.C,C205*%
X224100000Y-171100000D03*
X222200000Y-171100000D03*
%TD*%
%TO.C,C45*%
X122500000Y-120300000D03*
X120600000Y-120300000D03*
%TD*%
%TO.C,C165*%
X236800000Y-107600000D03*
X234900000Y-107600000D03*
%TD*%
%TO.C,C133*%
X236800000Y-56800000D03*
X234900000Y-56800000D03*
%TD*%
%TO.C,C24*%
X173300000Y-82200000D03*
X171400000Y-82200000D03*
%TD*%
%TO.C,C174*%
X211400000Y-120300000D03*
X209500000Y-120300000D03*
%TD*%
%TO.C,C128*%
X84400000Y-247300000D03*
X82500000Y-247300000D03*
%TD*%
%TO.C,C91*%
X147900000Y-196500000D03*
X146000000Y-196500000D03*
%TD*%
%TO.C,C241*%
X186000000Y-234600000D03*
X184100000Y-234600000D03*
%TD*%
%TO.C,C161*%
X186000000Y-107600000D03*
X184100000Y-107600000D03*
%TD*%
%TO.C,C151*%
X262200000Y-82200000D03*
X260300000Y-82200000D03*
%TD*%
%TO.C,C145*%
X186000000Y-82200000D03*
X184100000Y-82200000D03*
%TD*%
%TO.C,C116*%
X122500000Y-234600000D03*
X120600000Y-234600000D03*
%TD*%
M02*
