M48
; DRILL file {KiCad (7.0.0)} date Mon Jul 17 21:55:51 2023
; FORMAT={-:-/ absolute / inch / decimal}
; #@! TF.CreationDate,2023-07-17T21:55:51-06:00
; #@! TF.GenerationSoftware,Kicad,Pcbnew,(7.0.0)
; #@! TF.FileFunction,Plated,1,2,Blind
FMAT,2
INCH
; #@! TA.AperFunction,Plated,Buried,ViaDrill
T1C0.0157
%
G90
G05
T1
X2.6324Y-4.8982
X3.189Y-1.9232
X3.189Y-2.4232
X3.189Y-2.9232
X3.189Y-3.4232
X3.189Y-3.9232
X3.189Y-4.4232
X3.189Y-4.9232
X3.189Y-5.4232
X3.189Y-5.9213
X3.189Y-6.4213
X3.189Y-6.9213
X3.189Y-7.4213
X3.189Y-7.9213
X3.189Y-8.4213
X3.189Y-8.9213
X3.189Y-9.4213
X3.689Y-1.9232
X3.689Y-2.4232
X3.689Y-2.9232
X3.689Y-3.4232
X3.689Y-3.9232
X3.689Y-4.4232
X3.689Y-4.9232
X3.689Y-5.4232
X3.689Y-5.9213
X3.689Y-6.4213
X3.689Y-6.9213
X3.689Y-7.4213
X3.689Y-7.9213
X3.689Y-8.4213
X3.689Y-8.9213
X3.689Y-9.4213
X4.189Y-1.9232
X4.189Y-2.4232
X4.189Y-2.9232
X4.189Y-3.4232
X4.189Y-3.9232
X4.189Y-4.4232
X4.189Y-4.9232
X4.189Y-5.4232
X4.189Y-5.9213
X4.189Y-6.4213
X4.189Y-6.9213
X4.189Y-7.4213
X4.189Y-7.9213
X4.189Y-8.4213
X4.189Y-8.9213
X4.189Y-9.4213
X4.689Y-1.9232
X4.689Y-2.4232
X4.689Y-2.9232
X4.689Y-3.4232
X4.689Y-3.9232
X4.689Y-4.4232
X4.689Y-4.9232
X4.689Y-5.4232
X4.689Y-5.9213
X4.689Y-6.4213
X4.689Y-6.9213
X4.689Y-7.4213
X4.689Y-7.9213
X4.689Y-8.4213
X4.689Y-8.9213
X4.689Y-9.4213
X5.189Y-1.9232
X5.189Y-2.4232
X5.189Y-2.9232
X5.189Y-3.4232
X5.189Y-3.9232
X5.189Y-4.4232
X5.189Y-4.9232
X5.189Y-5.4232
X5.189Y-5.9213
X5.189Y-6.4213
X5.189Y-6.9213
X5.189Y-7.4213
X5.189Y-7.9213
X5.189Y-8.4213
X5.189Y-8.9213
X5.189Y-9.4213
X5.689Y-1.9232
X5.689Y-2.4232
X5.689Y-2.9232
X5.689Y-3.4232
X5.689Y-3.9232
X5.689Y-4.4232
X5.689Y-4.9232
X5.689Y-5.4232
X5.689Y-5.9213
X5.689Y-6.4213
X5.689Y-6.9213
X5.689Y-7.4213
X5.689Y-7.9213
X5.689Y-8.4213
X5.689Y-8.9213
X5.689Y-9.4213
X6.189Y-1.9232
X6.189Y-2.4232
X6.189Y-2.9232
X6.189Y-3.4232
X6.189Y-3.9232
X6.189Y-4.4232
X6.189Y-4.9232
X6.189Y-5.4232
X6.189Y-5.9213
X6.189Y-6.4213
X6.189Y-6.9213
X6.189Y-7.4213
X6.189Y-7.9213
X6.189Y-8.4213
X6.189Y-8.9213
X6.189Y-9.4213
X6.689Y-1.9232
X6.689Y-2.4232
X6.689Y-2.9232
X6.689Y-3.4232
X6.689Y-3.9232
X6.689Y-4.4232
X6.689Y-4.9232
X6.689Y-5.4232
X6.689Y-5.9213
X6.689Y-6.4213
X6.689Y-6.9213
X6.689Y-7.4213
X6.689Y-7.9213
X6.689Y-8.4213
X6.689Y-8.9213
X6.689Y-9.4213
X7.189Y-1.9232
X7.189Y-2.4232
X7.189Y-2.9232
X7.189Y-3.4232
X7.189Y-3.9232
X7.189Y-4.4232
X7.189Y-4.9232
X7.189Y-5.4232
X7.189Y-5.9252
X7.189Y-6.4252
X7.189Y-6.9252
X7.189Y-7.4252
X7.189Y-7.9252
X7.189Y-8.4252
X7.189Y-8.9252
X7.189Y-9.4252
X7.689Y-1.9232
X7.689Y-2.4232
X7.689Y-2.9232
X7.689Y-3.4232
X7.689Y-3.9232
X7.689Y-4.4232
X7.689Y-4.9232
X7.689Y-5.4232
X7.689Y-5.9252
X7.689Y-6.4252
X7.689Y-6.9252
X7.689Y-7.4252
X7.689Y-7.9252
X7.689Y-8.4252
X7.689Y-8.9252
X7.689Y-9.4252
X8.189Y-1.9232
X8.189Y-2.4232
X8.189Y-2.9232
X8.189Y-3.4232
X8.189Y-3.9232
X8.189Y-4.4232
X8.189Y-4.9232
X8.189Y-5.4232
X8.189Y-5.9252
X8.189Y-6.4252
X8.189Y-6.9252
X8.189Y-7.4252
X8.189Y-7.9252
X8.189Y-8.4252
X8.189Y-8.9252
X8.189Y-9.4252
X8.689Y-1.9232
X8.689Y-2.4232
X8.689Y-2.9232
X8.689Y-3.4232
X8.689Y-3.9232
X8.689Y-4.4232
X8.689Y-4.9232
X8.689Y-5.4232
X8.689Y-5.9252
X8.689Y-6.4252
X8.689Y-6.9252
X8.689Y-7.4252
X8.689Y-7.9252
X8.689Y-8.4252
X8.689Y-8.9252
X8.689Y-9.4252
X9.189Y-1.9232
X9.189Y-2.4232
X9.189Y-2.9232
X9.189Y-3.4232
X9.189Y-3.9232
X9.189Y-4.4232
X9.189Y-4.9232
X9.189Y-5.4232
X9.189Y-5.9252
X9.189Y-6.4252
X9.189Y-6.9252
X9.189Y-7.4252
X9.189Y-7.9252
X9.189Y-8.4252
X9.189Y-8.9252
X9.189Y-9.4252
X9.689Y-1.9232
X9.689Y-2.4232
X9.689Y-2.9232
X9.689Y-3.4232
X9.689Y-3.9232
X9.689Y-4.4232
X9.689Y-4.9232
X9.689Y-5.4232
X9.689Y-5.9252
X9.689Y-6.4252
X9.689Y-6.9252
X9.689Y-7.4252
X9.689Y-7.9252
X9.689Y-8.4252
X9.689Y-8.9252
X9.689Y-9.4252
X10.189Y-1.9232
X10.189Y-2.4232
X10.189Y-2.9232
X10.189Y-3.4232
X10.189Y-3.9232
X10.189Y-4.4232
X10.189Y-4.9232
X10.189Y-5.4232
X10.189Y-5.9252
X10.189Y-6.4252
X10.189Y-6.9252
X10.189Y-7.4252
X10.189Y-7.9252
X10.189Y-8.4252
X10.189Y-8.9252
X10.189Y-9.4252
X10.689Y-1.9232
X10.689Y-2.4232
X10.689Y-2.9232
X10.689Y-3.4232
X10.689Y-3.9232
X10.689Y-4.4232
X10.689Y-4.9232
X10.689Y-5.4232
X10.689Y-5.9252
X10.689Y-6.4252
X10.689Y-6.9252
X10.689Y-7.4252
X10.689Y-7.9252
X10.689Y-8.4252
X10.689Y-8.9252
X10.689Y-9.4252
T0
M30
