M48
; DRILL file {KiCad (7.0.0)} date Mon Jul 17 21:55:51 2023
; FORMAT={-:-/ absolute / inch / decimal}
; #@! TF.CreationDate,2023-07-17T21:55:51-06:00
; #@! TF.GenerationSoftware,Kicad,Pcbnew,(7.0.0)
; #@! TF.FileFunction,Plated,1,4,PTH
FMAT,2
INCH
; #@! TA.AperFunction,Plated,PTH,ViaDrill
T1C0.0157
; #@! TA.AperFunction,Plated,PTH,ComponentDrill
T2C0.0370
; #@! TA.AperFunction,Plated,PTH,ComponentDrill
T3C0.0394
; #@! TA.AperFunction,Plated,PTH,ComponentDrill
T4C0.0831
; #@! TA.AperFunction,Plated,PTH,ComponentDrill
T5C0.0866
%
G90
G05
T1
X2.4384Y-4.9982
X2.4384Y-5.1435
X2.6324Y-5.1982
X3.0236Y-4.9882
X3.3819Y-1.9232
X3.3819Y-5.9232
X7.3819Y-1.9232
X7.3819Y-5.9232
T2
X2.4016Y-4.5482
X2.4685Y-4.5482
X2.5354Y-4.5482
X2.6024Y-4.5482
X2.6693Y-4.5482
T3
X1.7913Y-4.5827
X1.7913Y-4.6827
X1.7913Y-4.7827
X1.7913Y-4.8827
T4
X2.0354Y-4.1575
X2.5354Y-4.1575
T5
X1.7323Y-1.7717
X1.7323Y-9.8031
X11.063Y-1.7717
X11.063Y-9.8031
T0
M30
