M48
; DRILL file {KiCad (7.0.0)} date Mon Jul 17 21:55:51 2023
; FORMAT={-:-/ absolute / inch / decimal}
; #@! TF.CreationDate,2023-07-17T21:55:51-06:00
; #@! TF.GenerationSoftware,Kicad,Pcbnew,(7.0.0)
; #@! TF.FileFunction,Plated,2,4,Blind
FMAT,2
INCH
; #@! TA.AperFunction,Plated,Buried,ViaDrill
T1C0.0157
%
G90
G05
T1
X3.3228Y-2.2362
X3.3228Y-2.7362
X3.3228Y-3.2362
X3.3228Y-3.7362
X3.3228Y-4.2362
X3.3228Y-4.7362
X3.3228Y-5.2362
X3.3228Y-5.7362
X3.3228Y-6.2362
X3.3228Y-6.7362
X3.3228Y-7.2362
X3.3228Y-7.7362
X3.3268Y-8.2362
X3.3268Y-8.7362
X3.3268Y-9.2362
X3.3268Y-9.7362
X3.8228Y-2.2362
X3.8228Y-2.7362
X3.8228Y-3.2362
X3.8228Y-3.7362
X3.8228Y-4.2362
X3.8228Y-4.7362
X3.8228Y-5.2362
X3.8228Y-5.7362
X3.8228Y-6.2362
X3.8228Y-6.7362
X3.8228Y-7.2362
X3.8228Y-7.7362
X3.8268Y-8.2362
X3.8268Y-8.7362
X3.8268Y-9.2362
X3.8268Y-9.7362
X4.3228Y-2.2362
X4.3228Y-2.7362
X4.3228Y-3.2362
X4.3228Y-3.7362
X4.3228Y-4.2362
X4.3228Y-4.7362
X4.3228Y-5.2362
X4.3228Y-5.7362
X4.3228Y-6.2362
X4.3228Y-6.7362
X4.3228Y-7.2362
X4.3228Y-7.7362
X4.3268Y-8.2362
X4.3268Y-8.7362
X4.3268Y-9.2362
X4.3268Y-9.7362
X4.8228Y-2.2362
X4.8228Y-2.7362
X4.8228Y-3.2362
X4.8228Y-3.7362
X4.8228Y-4.2362
X4.8228Y-4.7362
X4.8228Y-5.2362
X4.8228Y-5.7362
X4.8228Y-6.2362
X4.8228Y-6.7362
X4.8228Y-7.2362
X4.8228Y-7.7362
X4.8268Y-8.2362
X4.8268Y-8.7362
X4.8268Y-9.2362
X4.8268Y-9.7362
X5.3228Y-2.2362
X5.3228Y-2.7362
X5.3228Y-3.2362
X5.3228Y-3.7362
X5.3228Y-4.2362
X5.3228Y-4.7362
X5.3228Y-5.2362
X5.3228Y-5.7362
X5.3228Y-6.2362
X5.3228Y-6.7362
X5.3228Y-7.2362
X5.3228Y-7.7362
X5.3268Y-8.2362
X5.3268Y-8.7362
X5.3268Y-9.2362
X5.3268Y-9.7362
X5.8228Y-2.2362
X5.8228Y-2.7362
X5.8228Y-3.2362
X5.8228Y-3.7362
X5.8228Y-4.2362
X5.8228Y-4.7362
X5.8228Y-5.2362
X5.8228Y-5.7362
X5.8228Y-6.2362
X5.8228Y-6.7362
X5.8228Y-7.2362
X5.8228Y-7.7362
X5.8268Y-8.2362
X5.8268Y-8.7362
X5.8268Y-9.2362
X5.8268Y-9.7362
X6.3228Y-2.2362
X6.3228Y-2.7362
X6.3228Y-3.2362
X6.3228Y-3.7362
X6.3228Y-4.2362
X6.3228Y-4.7362
X6.3228Y-5.2362
X6.3228Y-5.7362
X6.3228Y-6.2362
X6.3228Y-6.7362
X6.3228Y-7.2362
X6.3228Y-7.7362
X6.3268Y-8.2362
X6.3268Y-8.7362
X6.3268Y-9.2362
X6.3268Y-9.7362
X6.8228Y-2.2362
X6.8228Y-2.7362
X6.8228Y-3.2362
X6.8228Y-3.7362
X6.8228Y-4.2362
X6.8228Y-4.7362
X6.8228Y-5.2362
X6.8228Y-5.7362
X6.8228Y-6.2362
X6.8228Y-6.7362
X6.8228Y-7.2362
X6.8228Y-7.7362
X6.8268Y-8.2362
X6.8268Y-8.7362
X6.8268Y-9.2362
X6.8268Y-9.7362
X7.3228Y-2.2362
X7.3228Y-2.7362
X7.3228Y-3.2362
X7.3228Y-3.7362
X7.3228Y-4.2362
X7.3228Y-4.7362
X7.3228Y-5.2362
X7.3228Y-5.7362
X7.3228Y-6.2362
X7.3228Y-6.7362
X7.3228Y-7.2362
X7.3228Y-7.7362
X7.3268Y-8.2362
X7.3268Y-8.7362
X7.3268Y-9.2362
X7.3268Y-9.7362
X7.8228Y-2.2362
X7.8228Y-2.7362
X7.8228Y-3.2362
X7.8228Y-3.7362
X7.8228Y-4.2362
X7.8228Y-4.7362
X7.8228Y-5.2362
X7.8228Y-5.7362
X7.8228Y-6.2362
X7.8228Y-6.7362
X7.8228Y-7.2362
X7.8228Y-7.7362
X7.8268Y-8.2362
X7.8268Y-8.7362
X7.8268Y-9.2362
X7.8268Y-9.7362
X8.3228Y-2.2362
X8.3228Y-2.7362
X8.3228Y-3.2362
X8.3228Y-3.7362
X8.3228Y-4.2362
X8.3228Y-4.7362
X8.3228Y-5.2362
X8.3228Y-5.7362
X8.3228Y-6.2362
X8.3228Y-6.7362
X8.3228Y-7.2362
X8.3228Y-7.7362
X8.3268Y-8.2362
X8.3268Y-8.7362
X8.3268Y-9.2362
X8.3268Y-9.7362
X8.8228Y-2.2362
X8.8228Y-2.7362
X8.8228Y-3.2362
X8.8228Y-3.7362
X8.8228Y-4.2362
X8.8228Y-4.7362
X8.8228Y-5.2362
X8.8228Y-5.7362
X8.8228Y-6.2362
X8.8228Y-6.7362
X8.8228Y-7.2362
X8.8228Y-7.7362
X8.8268Y-8.2362
X8.8268Y-8.7362
X8.8268Y-9.2362
X8.8268Y-9.7362
X9.3228Y-2.2362
X9.3228Y-2.7362
X9.3228Y-3.2362
X9.3228Y-3.7362
X9.3228Y-4.2362
X9.3228Y-4.7362
X9.3228Y-5.2362
X9.3228Y-5.7362
X9.3228Y-6.2362
X9.3228Y-6.7362
X9.3228Y-7.2362
X9.3228Y-7.7362
X9.3268Y-8.2362
X9.3268Y-8.7362
X9.3268Y-9.2362
X9.3268Y-9.7362
X9.8228Y-2.2362
X9.8228Y-2.7362
X9.8228Y-3.2362
X9.8228Y-3.7362
X9.8228Y-4.2362
X9.8228Y-4.7362
X9.8228Y-5.2362
X9.8228Y-5.7362
X9.8228Y-6.2362
X9.8228Y-6.7362
X9.8228Y-7.2362
X9.8228Y-7.7362
X9.8268Y-8.2362
X9.8268Y-8.7362
X9.8268Y-9.2362
X9.8268Y-9.7362
X10.3228Y-2.2362
X10.3228Y-2.7362
X10.3228Y-3.2362
X10.3228Y-3.7362
X10.3228Y-4.2362
X10.3228Y-4.7362
X10.3228Y-5.2362
X10.3228Y-5.7362
X10.3228Y-6.2362
X10.3228Y-6.7362
X10.3228Y-7.2362
X10.3228Y-7.7362
X10.3268Y-8.2362
X10.3268Y-8.7362
X10.3268Y-9.2362
X10.3268Y-9.7362
X10.8228Y-2.2362
X10.8228Y-2.7362
X10.8228Y-3.2362
X10.8228Y-3.7362
X10.8228Y-4.2362
X10.8228Y-4.7362
X10.8228Y-5.2362
X10.8228Y-5.7362
X10.8228Y-6.2362
X10.8228Y-6.7362
X10.8228Y-7.2362
X10.8228Y-7.7362
X10.8268Y-8.2362
X10.8268Y-8.7362
X10.8268Y-9.2362
X10.8268Y-9.7362
T0
M30
