M48
; DRILL file {KiCad (7.0.0)} date Mon Jul 17 21:55:51 2023
; FORMAT={-:-/ absolute / inch / decimal}
; #@! TF.CreationDate,2023-07-17T21:55:51-06:00
; #@! TF.GenerationSoftware,Kicad,Pcbnew,(7.0.0)
; #@! TF.FileFunction,Plated,1,3,Blind
FMAT,2
INCH
; #@! TA.AperFunction,Plated,Buried,ViaDrill
T1C0.0157
%
G90
G05
T1
X2.4384Y-5.2005
X2.4995Y-4.8081
X3.3819Y-2.0531
X3.3819Y-2.5531
X3.3819Y-3.0551
X3.3819Y-3.5551
X3.3819Y-4.0512
X3.3819Y-4.5512
X3.3819Y-5.0551
X3.3819Y-5.5551
X3.3819Y-6.0551
X3.3819Y-6.5551
X3.3819Y-7.0512
X3.3819Y-7.5512
X3.3819Y-8.0551
X3.3819Y-8.5551
X3.3819Y-9.0512
X3.3819Y-9.5512
X3.8819Y-2.0531
X3.8819Y-2.5531
X3.8819Y-3.0551
X3.8819Y-3.5551
X3.8819Y-4.0512
X3.8819Y-4.5512
X3.8819Y-5.0551
X3.8819Y-5.5551
X3.8819Y-6.0551
X3.8819Y-6.5551
X3.8819Y-7.0512
X3.8819Y-7.5512
X3.8819Y-8.0551
X3.8819Y-8.5551
X3.8819Y-9.0512
X3.8819Y-9.5512
X4.3819Y-2.0531
X4.3819Y-2.5531
X4.3819Y-3.0551
X4.3819Y-3.5551
X4.3819Y-4.0512
X4.3819Y-4.5512
X4.3819Y-5.0551
X4.3819Y-5.5551
X4.3819Y-6.0551
X4.3819Y-6.5551
X4.3819Y-7.0512
X4.3819Y-7.5512
X4.3819Y-8.0551
X4.3819Y-8.5551
X4.3819Y-9.0512
X4.3819Y-9.5512
X4.8819Y-2.0531
X4.8819Y-2.5531
X4.8819Y-3.0551
X4.8819Y-3.5551
X4.8819Y-4.0512
X4.8819Y-4.5512
X4.8819Y-5.0551
X4.8819Y-5.5551
X4.8819Y-6.0551
X4.8819Y-6.5551
X4.8819Y-7.0512
X4.8819Y-7.5512
X4.8819Y-8.0551
X4.8819Y-8.5551
X4.8819Y-9.0512
X4.8819Y-9.5512
X5.3819Y-2.0531
X5.3819Y-2.5531
X5.3819Y-3.0551
X5.3819Y-3.5551
X5.3819Y-4.0512
X5.3819Y-4.5512
X5.3819Y-5.0551
X5.3819Y-5.5551
X5.3819Y-6.0551
X5.3819Y-6.5551
X5.3819Y-7.0512
X5.3819Y-7.5512
X5.3819Y-8.0551
X5.3819Y-8.5551
X5.3819Y-9.0512
X5.3819Y-9.5512
X5.8819Y-2.0531
X5.8819Y-2.5531
X5.8819Y-3.0551
X5.8819Y-3.5551
X5.8819Y-4.0512
X5.8819Y-4.5512
X5.8819Y-5.0551
X5.8819Y-5.5551
X5.8819Y-6.0551
X5.8819Y-6.5551
X5.8819Y-7.0512
X5.8819Y-7.5512
X5.8819Y-8.0551
X5.8819Y-8.5551
X5.8819Y-9.0512
X5.8819Y-9.5512
X6.3819Y-2.0531
X6.3819Y-2.5531
X6.3819Y-3.0551
X6.3819Y-3.5551
X6.3819Y-4.0512
X6.3819Y-4.5512
X6.3819Y-5.0551
X6.3819Y-5.5551
X6.3819Y-6.0551
X6.3819Y-6.5551
X6.3819Y-7.0512
X6.3819Y-7.5512
X6.3819Y-8.0551
X6.3819Y-8.5551
X6.3819Y-9.0512
X6.3819Y-9.5512
X6.8819Y-2.0531
X6.8819Y-2.5531
X6.8819Y-3.0551
X6.8819Y-3.5551
X6.8819Y-4.0512
X6.8819Y-4.5512
X6.8819Y-5.0551
X6.8819Y-5.5551
X6.8819Y-6.0551
X6.8819Y-6.5551
X6.8819Y-7.0512
X6.8819Y-7.5512
X6.8819Y-8.0551
X6.8819Y-8.5551
X6.8819Y-9.0512
X6.8819Y-9.5512
X7.3819Y-2.0512
X7.3819Y-2.5512
X7.3819Y-3.0512
X7.3819Y-3.5512
X7.3819Y-4.0512
X7.3819Y-4.5512
X7.3819Y-5.0512
X7.3819Y-5.5512
X7.3819Y-6.0512
X7.3819Y-6.5512
X7.3819Y-7.0512
X7.3819Y-7.5512
X7.3819Y-8.0512
X7.3819Y-8.5512
X7.3819Y-9.0512
X7.3819Y-9.5512
X7.8819Y-2.0512
X7.8819Y-2.5512
X7.8819Y-3.0512
X7.8819Y-3.5512
X7.8819Y-4.0512
X7.8819Y-4.5512
X7.8819Y-5.0512
X7.8819Y-5.5512
X7.8819Y-6.0512
X7.8819Y-6.5512
X7.8819Y-7.0512
X7.8819Y-7.5512
X7.8819Y-8.0512
X7.8819Y-8.5512
X7.8819Y-9.0512
X7.8819Y-9.5512
X8.3819Y-2.0512
X8.3819Y-2.5512
X8.3819Y-3.0512
X8.3819Y-3.5512
X8.3819Y-4.0512
X8.3819Y-4.5512
X8.3819Y-5.0512
X8.3819Y-5.5512
X8.3819Y-6.0512
X8.3819Y-6.5512
X8.3819Y-7.0512
X8.3819Y-7.5512
X8.3819Y-8.0512
X8.3819Y-8.5512
X8.3819Y-9.0512
X8.3819Y-9.5512
X8.8819Y-2.0512
X8.8819Y-2.5512
X8.8819Y-3.0512
X8.8819Y-3.5512
X8.8819Y-4.0512
X8.8819Y-4.5512
X8.8819Y-5.0512
X8.8819Y-5.5512
X8.8819Y-6.0512
X8.8819Y-6.5512
X8.8819Y-7.0512
X8.8819Y-7.5512
X8.8819Y-8.0512
X8.8819Y-8.5512
X8.8819Y-9.0512
X8.8819Y-9.5512
X9.3819Y-2.0512
X9.3819Y-2.5512
X9.3819Y-3.0512
X9.3819Y-3.5512
X9.3819Y-4.0512
X9.3819Y-4.5512
X9.3819Y-5.0512
X9.3819Y-5.5512
X9.3819Y-6.0512
X9.3819Y-6.5512
X9.3819Y-7.0512
X9.3819Y-7.5512
X9.3819Y-8.0512
X9.3819Y-8.5512
X9.3819Y-9.0512
X9.3819Y-9.5512
X9.8819Y-2.0512
X9.8819Y-2.5512
X9.8819Y-3.0512
X9.8819Y-3.5512
X9.8819Y-4.0512
X9.8819Y-4.5512
X9.8819Y-5.0512
X9.8819Y-5.5512
X9.8819Y-6.0512
X9.8819Y-6.5512
X9.8819Y-7.0512
X9.8819Y-7.5512
X9.8819Y-8.0512
X9.8819Y-8.5512
X9.8819Y-9.0512
X9.8819Y-9.5512
X10.3819Y-2.0512
X10.3819Y-2.5512
X10.3819Y-3.0512
X10.3819Y-3.5512
X10.3819Y-4.0512
X10.3819Y-4.5512
X10.3819Y-5.0512
X10.3819Y-5.5512
X10.3819Y-6.0512
X10.3819Y-6.5512
X10.3819Y-7.0512
X10.3819Y-7.5512
X10.3819Y-8.0512
X10.3819Y-8.5512
X10.3819Y-9.0512
X10.3819Y-9.5512
X10.8819Y-2.0512
X10.8819Y-2.5512
X10.8819Y-3.0512
X10.8819Y-3.5512
X10.8819Y-4.0512
X10.8819Y-4.5512
X10.8819Y-5.0512
X10.8819Y-5.5512
X10.8819Y-6.0512
X10.8819Y-6.5512
X10.8819Y-7.0512
X10.8819Y-7.5512
X10.8819Y-8.0512
X10.8819Y-8.5512
X10.8819Y-9.0512
X10.8819Y-9.5512
T0
M30
