M48
; DRILL file {KiCad (7.0.0)} date Mon Jul 17 21:55:51 2023
; FORMAT={-:-/ absolute / inch / decimal}
; #@! TF.CreationDate,2023-07-17T21:55:51-06:00
; #@! TF.GenerationSoftware,Kicad,Pcbnew,(7.0.0)
; #@! TF.FileFunction,Plated,3,4,Blind
FMAT,2
INCH
; #@! TA.AperFunction,Plated,Buried,ViaDrill
T1C0.0157
%
G90
G05
T1
X3.248Y-2.2362
X3.248Y-2.7362
X3.248Y-3.2362
X3.248Y-3.7362
X3.248Y-4.2362
X3.248Y-4.7362
X3.248Y-5.2362
X3.248Y-5.7362
X3.248Y-6.2362
X3.248Y-6.7362
X3.248Y-7.2362
X3.248Y-7.7362
X3.248Y-8.2362
X3.248Y-8.7362
X3.248Y-9.2362
X3.248Y-9.7362
X3.748Y-2.2362
X3.748Y-2.7362
X3.748Y-3.2362
X3.748Y-3.7362
X3.748Y-4.2362
X3.748Y-4.7362
X3.748Y-5.2362
X3.748Y-5.7362
X3.748Y-6.2362
X3.748Y-6.7362
X3.748Y-7.2362
X3.748Y-7.7362
X3.748Y-8.2362
X3.748Y-8.7362
X3.748Y-9.2362
X3.748Y-9.7362
X4.248Y-2.2362
X4.248Y-2.7362
X4.248Y-3.2362
X4.248Y-3.7362
X4.248Y-4.2362
X4.248Y-4.7362
X4.248Y-5.2362
X4.248Y-5.7362
X4.248Y-6.2362
X4.248Y-6.7362
X4.248Y-7.2362
X4.248Y-7.7362
X4.248Y-8.2362
X4.248Y-8.7362
X4.248Y-9.2362
X4.248Y-9.7362
X4.748Y-2.2362
X4.748Y-2.7362
X4.748Y-3.2362
X4.748Y-3.7362
X4.748Y-4.2362
X4.748Y-4.7362
X4.748Y-5.2362
X4.748Y-5.7362
X4.748Y-6.2362
X4.748Y-6.7362
X4.748Y-7.2362
X4.748Y-7.7362
X4.748Y-8.2362
X4.748Y-8.7362
X4.748Y-9.2362
X4.748Y-9.7362
X5.248Y-2.2362
X5.248Y-2.7362
X5.248Y-3.2362
X5.248Y-3.7362
X5.248Y-4.2362
X5.248Y-4.7362
X5.248Y-5.2362
X5.248Y-5.7362
X5.248Y-6.2362
X5.248Y-6.7362
X5.248Y-7.2362
X5.248Y-7.7362
X5.248Y-8.2362
X5.248Y-8.7362
X5.248Y-9.2362
X5.248Y-9.7362
X5.748Y-2.2362
X5.748Y-2.7362
X5.748Y-3.2362
X5.748Y-3.7362
X5.748Y-4.2362
X5.748Y-4.7362
X5.748Y-5.2362
X5.748Y-5.7362
X5.748Y-6.2362
X5.748Y-6.7362
X5.748Y-7.2362
X5.748Y-7.7362
X5.748Y-8.2362
X5.748Y-8.7362
X5.748Y-9.2362
X5.748Y-9.7362
X6.248Y-2.2362
X6.248Y-2.7362
X6.248Y-3.2362
X6.248Y-3.7362
X6.248Y-4.2362
X6.248Y-4.7362
X6.248Y-5.2362
X6.248Y-5.7362
X6.248Y-6.2362
X6.248Y-6.7362
X6.248Y-7.2362
X6.248Y-7.7362
X6.248Y-8.2362
X6.248Y-8.7362
X6.248Y-9.2362
X6.248Y-9.7362
X6.748Y-2.2362
X6.748Y-2.7362
X6.748Y-3.2362
X6.748Y-3.7362
X6.748Y-4.2362
X6.748Y-4.7362
X6.748Y-5.2362
X6.748Y-5.7362
X6.748Y-6.2362
X6.748Y-6.7362
X6.748Y-7.2362
X6.748Y-7.7362
X6.748Y-8.2362
X6.748Y-8.7362
X6.748Y-9.2362
X6.748Y-9.7362
X7.248Y-2.2362
X7.248Y-2.7362
X7.248Y-3.2362
X7.248Y-3.7362
X7.248Y-4.2362
X7.248Y-4.7362
X7.248Y-5.2362
X7.248Y-5.7362
X7.248Y-6.2362
X7.248Y-6.7362
X7.248Y-7.2362
X7.248Y-7.7362
X7.248Y-8.2362
X7.248Y-8.7362
X7.248Y-9.2362
X7.248Y-9.7362
X7.748Y-2.2362
X7.748Y-2.7362
X7.748Y-3.2362
X7.748Y-3.7362
X7.748Y-4.2362
X7.748Y-4.7362
X7.748Y-5.2362
X7.748Y-5.7362
X7.748Y-6.2362
X7.748Y-6.7362
X7.748Y-7.2362
X7.748Y-7.7362
X7.748Y-8.2362
X7.748Y-8.7362
X7.748Y-9.2362
X7.748Y-9.7362
X8.248Y-2.2362
X8.248Y-2.7362
X8.248Y-3.2362
X8.248Y-3.7362
X8.248Y-4.2362
X8.248Y-4.7362
X8.248Y-5.2362
X8.248Y-5.7362
X8.248Y-6.2362
X8.248Y-6.7362
X8.248Y-7.2362
X8.248Y-7.7362
X8.248Y-8.2362
X8.248Y-8.7362
X8.248Y-9.2362
X8.248Y-9.7362
X8.748Y-2.2362
X8.748Y-2.7362
X8.748Y-3.2362
X8.748Y-3.7362
X8.748Y-4.2362
X8.748Y-4.7362
X8.748Y-5.2362
X8.748Y-5.7362
X8.748Y-6.2362
X8.748Y-6.7362
X8.748Y-7.2362
X8.748Y-7.7362
X8.748Y-8.2362
X8.748Y-8.7362
X8.748Y-9.2362
X8.748Y-9.7362
X9.248Y-2.2362
X9.248Y-2.7362
X9.248Y-3.2362
X9.248Y-3.7362
X9.248Y-4.2362
X9.248Y-4.7362
X9.248Y-5.2362
X9.248Y-5.7362
X9.248Y-6.2362
X9.248Y-6.7362
X9.248Y-7.2362
X9.248Y-7.7362
X9.248Y-8.2362
X9.248Y-8.7362
X9.248Y-9.2362
X9.248Y-9.7362
X9.748Y-2.2362
X9.748Y-2.7362
X9.748Y-3.2362
X9.748Y-3.7362
X9.748Y-4.2362
X9.748Y-4.7362
X9.748Y-5.2362
X9.748Y-5.7362
X9.748Y-6.2362
X9.748Y-6.7362
X9.748Y-7.2362
X9.748Y-7.7362
X9.748Y-8.2362
X9.748Y-8.7362
X9.748Y-9.2362
X9.748Y-9.7362
X10.248Y-2.2362
X10.248Y-2.7362
X10.248Y-3.2362
X10.248Y-3.7362
X10.248Y-4.2362
X10.248Y-4.7362
X10.248Y-5.2362
X10.248Y-5.7362
X10.248Y-6.2362
X10.248Y-6.7362
X10.248Y-7.2362
X10.248Y-7.7362
X10.248Y-8.2362
X10.248Y-8.7362
X10.248Y-9.2362
X10.248Y-9.7362
X10.748Y-2.2362
X10.748Y-2.7362
X10.748Y-3.2362
X10.748Y-3.7362
X10.748Y-4.2362
X10.748Y-4.7362
X10.748Y-5.2362
X10.748Y-5.7362
X10.748Y-6.2362
X10.748Y-6.7362
X10.748Y-7.2362
X10.748Y-7.7362
X10.748Y-8.2362
X10.748Y-8.7362
X10.748Y-9.2362
X10.748Y-9.7362
T0
M30
